<svg width="713" height="589" viewBox="0 0 713 589" fill="none" xmlns="http://www.w3.org/2000/svg">
<path d="M656.753 366.617L643.948 366.947L637.448 367.077C635.271 367.135 633.085 367.077 630.909 367.147H630.479V366.617L630.421 353.4V352.811H630.909L643.831 352.882C648.145 352.882 652.449 353.011 656.753 353.07H657.026V353.4C657.026 355.638 656.948 357.865 656.9 360.068L656.753 366.617ZM656.753 366.617L656.616 359.962C656.568 357.77 656.509 355.603 656.49 353.435L656.753 353.765C652.449 353.824 648.145 353.954 643.831 353.954L630.909 354.024L631.397 353.435V366.617L630.957 366.099C633.085 366.099 635.213 366.099 637.35 366.158L643.704 366.358L656.753 366.617Z" fill="#EBEBEB"/>
<path d="M642.337 383.239L629.532 383.569L623.022 383.698C620.856 383.698 618.669 383.698 616.493 383.769H616.063V383.239V370.057V369.468H616.551L629.474 369.55C633.778 369.55 638.092 369.68 642.396 369.739H642.669V370.057C642.669 372.295 642.591 374.522 642.542 376.724L642.337 383.239ZM642.337 383.239L642.201 376.583C642.152 374.392 642.093 372.224 642.074 370.057L642.337 370.387C638.033 370.446 633.719 370.575 629.415 370.575L616.493 370.646L616.981 370.057V383.239L616.542 382.72C618.669 382.72 620.797 382.72 622.934 382.779L629.347 382.921L642.337 383.239Z" fill="#EBEBEB"/>
<path d="M671.168 383.239L658.363 383.569L651.863 383.698C649.687 383.698 647.5 383.698 645.324 383.769H644.894V383.239L644.836 370.057V369.468H645.324L658.246 369.55C662.56 369.55 666.864 369.68 671.168 369.739H671.442V370.057C671.442 372.295 671.354 374.522 671.315 376.724L671.168 383.239ZM671.168 383.239L671.032 376.583C671.032 374.392 670.924 372.224 670.905 370.057L671.168 370.387C666.864 370.446 662.56 370.575 658.246 370.575L645.324 370.646L645.812 370.057V383.239L645.373 382.72C647.51 382.72 649.628 382.72 651.766 382.779L658.188 382.921L671.168 383.239Z" fill="#EBEBEB"/>
<path d="M288.235 209.766L275.43 210.096L268.93 210.226C266.753 210.226 264.567 210.226 262.391 210.226H261.961V209.696L261.903 196.514V195.925H262.391L275.313 195.996C279.627 195.996 283.931 196.125 288.235 196.184H288.508V196.502C288.508 198.74 288.42 200.955 288.372 203.158L288.235 209.766ZM288.235 209.766L288.098 203.099C288.098 200.908 287.991 198.74 287.972 196.585L288.235 196.903C283.931 196.903 279.627 197.091 275.313 197.091L262.391 197.174L262.879 196.585L262.83 209.766L262.391 209.236C264.518 209.236 266.646 209.236 268.783 209.307L275.205 209.437L288.235 209.766Z" fill="#EBEBEB"/>
<path d="M273.8 226.388L260.995 226.718L254.485 226.848C252.318 226.848 250.132 226.847 247.956 226.906H247.526V226.376L247.448 213.218V212.629H247.936L260.858 212.7C265.162 212.7 269.476 212.829 273.78 212.888H274.054V213.218C274.054 215.456 273.976 217.671 273.927 219.874L273.8 226.388ZM273.8 226.388L273.663 219.721C273.615 217.53 273.556 215.362 273.536 213.206L273.8 213.524C269.496 213.583 265.182 213.713 260.878 213.713L247.956 213.795L248.444 213.206L248.424 226.388L247.985 225.858C250.112 225.858 252.24 225.858 254.378 225.929L260.79 226.058L273.8 226.388Z" fill="#EBEBEB"/>
<path d="M302.65 226.388L289.845 226.718L283.345 226.848C281.169 226.848 278.992 226.847 276.806 226.906H276.376V226.376L276.318 213.218V212.629H276.806L289.728 212.7C294.042 212.7 298.346 212.829 302.65 212.888H302.924V213.218C302.924 215.456 302.836 217.671 302.797 219.874L302.65 226.388ZM302.65 226.388L302.514 219.721C302.514 217.53 302.406 215.362 302.387 213.206L302.65 213.524C298.346 213.583 294.042 213.713 289.728 213.713L276.806 213.795L277.294 213.206L277.245 226.388L276.806 225.858C278.943 225.858 281.061 225.858 283.199 225.929L289.621 226.058L302.65 226.388Z" fill="#EBEBEB"/>
<path d="M77.5068 296.986L64.7017 297.315L58.1918 297.445C56.0251 297.445 53.8389 297.445 51.6624 297.504H51.272V296.974V283.792V283.203H51.76L64.6822 283.274C68.9864 283.274 73.3003 283.403 77.6045 283.462H77.8777V283.78C77.8777 286.018 77.7996 288.233 77.7508 290.436L77.5068 296.986ZM77.5068 296.986L77.3702 290.318C77.3702 288.127 77.2628 285.96 77.2433 283.804L77.5068 284.122C73.2027 284.181 68.8888 284.31 64.5846 284.31L51.6624 284.393L52.1504 283.804L52.1016 296.986L51.6624 296.456C53.7901 296.456 55.9177 296.456 58.0552 296.526L64.4675 296.656L77.5068 296.986Z" fill="#EBEBEB"/>
<path d="M505.951 209.755L493.146 210.085L486.646 210.214C484.47 210.273 482.283 210.214 480.107 210.273H479.677V209.743L479.619 196.561V195.972H480.107L493.029 196.043C497.343 196.043 501.647 196.184 505.951 196.243H506.225V196.561C506.225 198.799 506.147 201.026 506.098 203.217L505.951 209.755ZM505.951 209.755L505.815 203.099C505.766 200.896 505.707 198.729 505.688 196.573L505.951 196.891C501.647 196.95 497.343 197.079 493.029 197.091L480.107 197.162L480.595 196.573L480.546 209.755L480.107 209.225C482.235 209.225 484.362 209.225 486.5 209.295L492.922 209.425L505.951 209.755Z" fill="#EBEBEB"/>
<path d="M655.26 81.7296L642.455 82.0595L635.945 82.189C633.778 82.189 631.592 82.189 629.415 82.2597H628.986V81.7296V68.5478V67.9588H629.474L642.396 68.0295C646.7 68.0295 651.014 68.1708 655.318 68.2297H655.592V68.5478C655.592 70.786 655.514 73.0124 655.465 75.2035L655.26 81.7296ZM655.26 81.7296L655.123 75.0739C655.074 72.8711 655.016 70.7035 654.996 68.5478L655.26 68.8659C650.956 68.8659 646.642 69.0543 642.338 69.0661L629.415 69.1368L629.903 68.5478L629.854 81.7296L629.415 81.1995C631.543 81.1995 633.671 81.1995 635.808 81.2702L642.22 81.3998L655.26 81.7296Z" fill="#EBEBEB"/>
<path d="M669.675 98.3512L656.87 98.681L650.37 98.8106C648.194 98.8695 646.007 98.8106 643.831 98.8695H643.401V98.3394L643.343 85.1576V84.5686H643.831L656.753 84.6393C661.067 84.6393 665.371 84.7806 669.675 84.8395H669.949V85.1576C669.949 87.3958 669.861 89.6222 669.812 91.8133L669.675 98.3512ZM669.675 98.3512L669.539 91.6955C669.539 89.4926 669.431 87.3251 669.412 85.1694L669.675 85.4874C665.371 85.5463 661.067 85.6759 656.753 85.6877L643.831 85.7584L644.319 85.1694V98.3512L643.88 97.8211C646.007 97.8211 648.135 97.8211 650.272 97.8918L656.694 98.0214L669.675 98.3512Z" fill="#EBEBEB"/>
<path d="M48.6758 81.7414L35.8609 82.0712L29.3607 82.2008C27.194 82.2008 25.0078 82.2008 22.8313 82.2715H22.3921V81.7414V68.5596V67.9706H22.8898L35.8121 68.053C40.1162 68.053 44.4204 68.1826 48.7343 68.2415H48.9978V68.5596C48.9978 70.7978 48.91 73.0242 48.871 75.2271L48.6758 81.7414ZM48.6758 81.7414L48.5294 75.0857C48.5294 72.8828 48.422 70.7153 48.4025 68.5596L48.6758 68.8776C44.3618 68.9483 40.0577 69.0661 35.7535 69.0779L22.8313 69.1486L23.3193 68.5596L23.2607 81.7414L22.8313 81.282C24.959 81.282 27.0769 81.282 29.2143 81.282L35.6364 81.4116L48.6758 81.7414Z" fill="#EBEBEB"/>
<path d="M365.232 245.248C364.034 246.613 362.548 247.555 360.937 247.969C359.961 248.275 358.878 248.452 357.843 248.676H354.31C352.856 248.405 351.382 248.193 349.967 247.851C344.678 246.481 339.668 243.854 335.229 240.124C323.539 230.796 313.69 218.482 306.379 204.053C303.928 199.292 302.239 194.017 301.401 188.504C301.187 187.055 301.021 185.594 300.835 184.133V179.869C301.128 178.231 301.362 176.57 301.723 174.957C302.079 173.442 302.751 172.063 303.675 170.951C303.851 171.14 304.007 171.293 304.163 171.481C309.785 178.259 315.41 185.036 321.038 191.814C321.221 191.997 321.351 192.244 321.41 192.521C321.47 192.798 321.456 193.09 321.37 193.357C320.943 195.037 320.885 196.822 321.203 198.536C321.522 200.251 322.205 201.836 323.186 203.134C327.986 209.716 333.127 215.925 338.577 221.723C339.664 222.914 340.989 223.741 342.422 224.124C343.855 224.506 345.345 224.43 346.746 223.902C347.156 223.773 347.449 223.69 347.8 224.115C353.546 231.088 359.304 238.046 365.076 244.989C365.105 245.024 365.144 245.13 365.232 245.248Z" fill="#EBEBEB"/>
<path d="M376.28 230.016V231.43C375.771 232.315 375.22 233.165 374.63 233.974C372.893 236.154 371.097 238.262 369.331 240.394L368.784 241.019L351.431 220.086C353.705 217.376 355.969 214.608 358.312 211.91C358.566 211.626 358.864 211.406 359.19 211.263C359.515 211.121 359.861 211.059 360.207 211.081C360.553 211.103 360.892 211.208 361.204 211.391C361.515 211.574 361.793 211.831 362.021 212.146C363.328 213.677 364.597 215.244 365.925 216.787C368.94 220.439 371.976 224.067 374.962 227.743C375.45 228.458 375.891 229.218 376.28 230.016Z" fill="#EBEBEB"/>
<path d="M330.789 179.975C328.641 182.484 326.445 184.934 324.318 187.361L307.101 166.593C307.482 166.18 307.921 165.745 308.321 165.273C309.902 163.377 311.454 161.433 313.064 159.572C313.719 158.879 314.406 158.234 315.124 157.64H316.305C316.963 158.128 317.589 158.675 318.179 159.277C322.395 164.319 326.595 169.385 330.779 174.474C332.36 176.382 332.36 178.102 330.789 179.975Z" fill="#EBEBEB"/>
<path d="M42.2537 191.531H155.206V105.042H42.2537V191.531Z" fill="#EBEBEB"/>
<path d="M176.336 191.531H155.206V164.967L176.336 191.531Z" fill="#EBEBEB"/>
<path d="M142.128 119.991H55.3223V121.64H142.128V119.991Z" fill="white"/>
<path d="M100.189 128.873H55.3223V130.522H100.189V128.873Z" fill="white"/>
<path d="M125.516 146.626H55.3223V148.275H125.516V146.626Z" fill="white"/>
<path d="M142.128 155.496H55.3223V157.145H142.128V155.496Z" fill="white"/>
<path d="M142.128 164.366H55.3223V166.016H142.128V164.366Z" fill="white"/>
<path d="M86.1639 173.248H55.3223V174.898H86.1639V173.248Z" fill="white"/>
<path d="M651.746 226.07H538.794V302.345H651.746V226.07Z" fill="#DBDBDB"/>
<path d="M517.663 302.357H538.794V275.793L517.663 302.357Z" fill="#DBDBDB"/>
<path d="M627.698 265.898H552.126V267.547H627.698V265.898Z" fill="white"/>
<path d="M612.16 274.78H552.126V276.43H612.16V274.78Z" fill="white"/>
<path d="M616.688 248.146H552.126V249.795H616.688V248.146Z" fill="white"/>
<path d="M636.423 239.275H552.126V240.925H636.423V239.275Z" fill="white"/>
<path d="M618.387 283.651H552.126V285.3H618.387V283.651Z" fill="white"/>
<path d="M594.68 145H387.27V155.979H594.68V145Z" fill="#EBEBEB"/>
<path d="M407.99 155.991H398.894V192.297H407.99V155.991Z" fill="#EBEBEB"/>
<path d="M407.99 155.991H398.894V167.217H407.99V155.991Z" fill="#DBDBDB"/>
<path d="M583.055 155.991H573.959V192.297H583.055V155.991Z" fill="#EBEBEB"/>
<path d="M583.055 155.991H573.959V167.217H583.055V155.991Z" fill="#DBDBDB"/>
<path d="M440.589 145V75.0386H425.988V145H440.589Z" fill="#C7C7C7"/>
<path d="M440.589 78.9849V71.2926H425.988V78.9849H440.589Z" fill="#DBDBDB"/>
<path d="M440.579 91.6955V88.8448H425.978V91.6955H440.579Z" fill="#DBDBDB"/>
<path d="M442.404 135.835V128.143H425.988V135.835H442.404Z" fill="#DBDBDB"/>
<path d="M450.788 145V63.3882H440.589V145H450.788Z" fill="#DBDBDB"/>
<path d="M448.709 102.451V71.0569H442.589V102.451H448.709Z" fill="#EBEBEB"/>
<path d="M523.333 136.282L475.246 78.9075L468.076 87.662L516.163 145.037L523.333 136.282Z" fill="#C7C7C7"/>
<path d="M510.644 124.55L492.146 102.479L487.844 107.732L506.341 129.803L510.644 124.55Z" fill="#DBDBDB"/>
<path d="M468.102 145.024V83.0255H450.778V145.024H468.102Z" fill="#A6A6A6"/>
<path d="M468.102 138.439V132.666H450.778V138.439H468.102Z" fill="#C7C7C7"/>
<path d="M468.102 128.885V126.647H450.778V128.885H468.102Z" fill="#C7C7C7"/>
<path d="M425.988 145.024V86.7597H414.022V145.024H425.988Z" fill="#A6A6A6"/>
<path d="M425.988 138.839V133.409H414.022V138.839H425.988Z" fill="#C7C7C7"/>
<path d="M425.988 104.194V98.7635H414.022V104.194H425.988Z" fill="#C7C7C7"/>
<path d="M425.988 110.025V107.917H414.022V110.025H425.988Z" fill="#C7C7C7"/>
<path d="M572.876 117.859L571.578 122.017L570.777 124.55L569.469 128.72L564.375 145.012H536.822L531.708 128.72L530.4 124.55L529.61 122.017L528.302 117.859L538.472 99.9651L533.201 88.1733H568.005L562.706 99.9651L572.876 117.859Z" fill="#DBDBDB"/>
<path d="M572.876 117.859L571.578 122.017H529.61L528.302 117.859H572.876Z" fill="#A6A6A6"/>
<path d="M570.777 124.55L569.469 128.72H531.708L530.4 124.55H570.777Z" fill="#A6A6A6"/>
<path d="M35.4802 462.518L113.365 462.235L191.24 462.129L347 461.941L502.76 462.129L580.635 462.235L658.52 462.518L580.635 462.813L502.76 462.919L347 463.107L191.24 462.919L113.365 462.813L35.4802 462.518Z" fill="#263238"/>
<path d="M338.548 462.495H458.264L434.401 294.901H344.872L338.548 462.495Z" fill="#DBDBDB"/>
<path d="M338.548 462.495H349.05L354.935 294.901H344.872L338.548 462.495Z" fill="#A6A6A6"/>
<path d="M442.57 327.755C456.117 364.273 488.852 424.881 503.502 409.862C525.413 387.409 540.248 337.744 546.104 317.659C549.393 306.41 501.911 287.585 499.002 297.798C494.864 312.311 488.374 342.645 484.616 346.945C482.664 349.195 467.106 322.843 455.336 310.344C438.344 292.332 438.246 316.093 442.57 327.755Z" fill="#AD6359"/>
<path d="M557.962 300.755C553.736 312.229 537.466 331.631 532.059 334.493C526.652 337.356 498.094 306.221 498.69 298.894C499.285 291.567 516.326 253.188 525.764 247.298C535.202 241.408 562.345 288.857 557.962 300.755Z" fill="#AD6359"/>
<path d="M500.925 290.836C500.925 290.836 501.608 274.509 498.192 260.703C495.323 249.1 489.984 232.266 495.088 230.169C505.59 225.87 518.903 267.865 518.903 267.865C518.903 267.865 522.319 287.538 512.237 292.91C505.912 296.279 500.925 290.836 500.925 290.836Z" fill="#AD6359"/>
<path d="M512.764 259.867C513.447 266.475 519.508 261.716 519.508 261.716C519.508 261.716 512.159 271.14 515.048 277.584C517.859 283.816 525.003 277.749 525.52 277.325C525.13 277.831 518.571 286.666 522.036 292.815C525.637 299.2 531.942 291.637 532.352 291.143C532.108 291.743 529.044 299.883 532.557 303.842C538.589 310.615 546.904 290.071 553.307 287.774C553.307 287.774 557.777 300.414 557.962 300.732C557.962 300.732 566.21 281.365 563.164 271.117C562.738 269.619 561.901 268.343 560.792 267.497C559.683 266.651 558.368 266.286 557.064 266.464C557.064 266.464 560.295 260.574 557.699 255.626C556.352 253.093 551.843 253.423 551.843 253.423C551.843 253.423 554.263 248.582 551.726 244.364C549.705 240.983 545.46 241.843 545.46 241.843C545.46 241.843 545.997 235.883 543.01 233.244C536.939 227.919 511.29 245.719 512.764 259.867Z" fill="#AD6359"/>
<path d="M544.728 241.879C544.816 241.82 544.728 241.667 544.679 241.702C535.056 245.071 525.344 252.304 519.157 261.928C518.952 262.246 519.283 262.776 519.567 262.482C527.56 254.059 535.124 247.38 544.728 241.879Z" fill="#263238"/>
<path d="M551.901 253.27C552.009 253.211 551.901 252.999 551.814 253.034C541.907 256.568 531.161 265.121 525.1 277.195C524.895 277.607 525.052 278.232 525.325 277.784C529.854 270.151 543.235 258.182 551.901 253.27Z" fill="#263238"/>
<path d="M532.167 292.144C538.345 280.835 546.904 273.049 556.655 266.581C556.772 266.499 556.655 266.299 556.547 266.334C551.062 267.924 545.206 272.825 540.931 277.113C536.886 280.992 533.755 286.086 531.854 291.885C531.767 292.144 532.04 292.403 532.167 292.144Z" fill="#263238"/>
<path d="M519.313 261.704C519.069 262.081 519.801 262.093 519.567 262.482C518.591 264.108 513.369 274.533 515.76 277.796C517.712 280.399 521.899 279.08 523.363 277.796L527.023 274.604L524.505 279.186C523.372 281.194 522.515 283.409 521.968 285.747C521.665 286.812 521.552 287.942 521.638 289.063C521.724 290.184 522.006 291.27 522.465 292.25C522.896 293.158 523.573 293.858 524.382 294.234C525.191 294.609 526.082 294.637 526.906 294.311C528.742 293.549 530.385 292.231 531.679 290.483L535.388 285.771L533.162 291.661C532.54 293.291 532.091 295.008 531.825 296.774C531.527 298.433 531.639 300.161 532.147 301.745C532.399 302.442 532.806 303.041 533.323 303.475C533.84 303.91 534.446 304.163 535.075 304.207C536.501 304.032 537.855 303.37 538.979 302.298C541.443 300.026 543.757 297.525 545.899 294.818C547.022 293.499 548.144 292.168 549.325 290.895C550.434 289.556 551.764 288.512 553.229 287.832C551.837 288.684 550.597 289.856 549.579 291.284C548.495 292.639 547.461 294.052 546.426 295.478C544.393 298.42 542.139 301.13 539.692 303.571C538.38 304.914 536.773 305.77 535.066 306.033C534.124 306.043 533.201 305.726 532.406 305.117C531.611 304.509 530.979 303.637 530.586 302.605C529.903 300.661 529.716 298.516 530.049 296.444C530.311 294.473 530.787 292.552 531.464 290.73L532.948 291.908C531.444 294.003 529.513 295.587 527.345 296.503C526.131 296.971 524.819 296.913 523.637 296.338C522.494 295.733 521.528 294.728 520.865 293.452C520.284 292.208 519.927 290.831 519.82 289.409C519.712 287.988 519.855 286.555 520.24 285.206C520.863 282.645 521.837 280.229 523.119 278.055L524.261 279.398C522.309 280.929 517.781 283.026 514.374 279.457C510.607 273.932 517.878 263.495 519.313 261.704Z" fill="#263238"/>
<path d="M519.508 261.716C518.453 262.224 517.341 262.538 516.209 262.647C515.755 262.704 515.296 262.612 514.88 262.382C514.465 262.152 514.108 261.792 513.847 261.339C513.387 260.249 513.201 259.021 513.31 257.805C513.369 256.462 513.486 255.061 513.662 253.612C512.918 254.795 512.393 256.157 512.12 257.605C511.932 258.387 511.874 259.205 511.95 260.014C512.025 260.823 512.232 261.605 512.559 262.317C512.986 263.056 513.588 263.623 514.286 263.943C514.959 264.208 515.679 264.24 516.365 264.037C517.589 263.682 518.689 262.87 519.508 261.716Z" fill="#263238"/>
<path d="M496.113 298.894L545.538 340.442C545.538 340.442 516.014 414.267 497.772 414.067C479.531 413.867 453.179 358.571 444.092 334.67C435.006 310.768 440.423 290.518 458.81 312.288C477.198 334.057 483.786 343.034 484.382 342.739C485.494 342.197 496.113 298.894 496.113 298.894Z" fill="#008DB9"/>
<path d="M545.538 340.442C545.538 340.442 525.042 391.638 507.679 408.648C504.195 412.064 500.847 414.102 497.773 414.055C479.531 413.867 453.179 358.56 444.044 334.67C438.393 319.874 438.344 306.48 443.478 303.594C446.65 301.815 451.774 304.006 458.772 312.323C477.316 334.246 483.738 343.057 484.343 342.763C485.494 342.197 496.123 298.906 496.123 298.906L545.538 340.442Z" fill="#008DB9"/>
<path d="M514.95 399.931C514.345 400.779 513.73 401.604 513.115 402.405C507.553 406.632 501.313 409.39 494.805 410.498C493.01 410.737 491.204 410.824 489.398 410.757L488.276 409.909C490.431 410.066 492.592 409.999 494.737 409.708C497.305 409.37 499.831 408.666 502.262 407.612L504.107 406.881L505.893 405.974C506.488 405.668 507.103 405.409 507.679 405.055L509.406 403.995C511.328 402.793 513.18 401.435 514.95 399.931ZM477.452 334.894C471.812 337.99 466.668 342.26 462.256 347.51C459.394 350.913 456.748 354.571 454.341 358.454C454.458 358.713 454.585 358.984 454.721 359.243C457.157 355.296 459.843 351.582 462.754 348.134C466.451 343.75 470.664 340.046 475.256 337.144L476.984 336.083C477.301 335.889 477.627 335.716 477.96 335.565L477.452 334.894ZM520.142 338.651C515.455 335.883 510.551 333.685 505.502 332.09C504.975 331.937 504.448 331.784 503.912 331.654C503.57 331.56 503.219 331.466 502.877 331.395C498.611 330.316 494.231 330.046 489.896 330.594C489.262 330.7 488.637 330.818 488.003 330.959C487.934 331.23 487.856 331.513 487.788 331.772C488.51 331.619 489.242 331.489 489.974 331.383C493.998 330.87 498.062 331.073 502.038 331.984L503.101 332.22C503.853 332.408 504.604 332.608 505.356 332.832C510.362 334.389 515.227 336.544 519.879 339.264C526.847 343.39 533.607 348.012 540.121 353.105C540.219 352.905 540.307 352.705 540.385 352.517C533.872 347.413 527.112 342.783 520.142 338.651ZM525.266 323.408C517.354 323.802 509.643 326.546 502.818 331.395L501.979 331.984C500.256 333.231 498.591 334.591 496.992 336.06C488.627 343.74 481.952 353.612 475.598 363.543C472.416 368.526 469.293 373.544 465.994 378.397C465.76 378.751 465.516 379.092 465.272 379.446L465.643 380.093C465.926 379.693 466.209 379.292 466.482 378.915C469.8 374.05 472.933 369.032 476.125 364.061C482.479 354.166 489.145 344.365 497.421 336.79C499.215 335.139 501.093 333.624 503.043 332.255C503.306 332.055 503.58 331.866 503.853 331.689C506.126 330.15 508.495 328.826 510.939 327.731L512.764 326.93C513.369 326.671 514.003 326.494 514.628 326.271L516.492 325.646L518.444 325.187C520.964 324.501 523.542 324.177 526.125 324.221H526.242L525.266 323.408ZM464.608 319.297C461.198 321.126 457.635 322.504 453.979 323.408L452.076 323.856C451.442 323.997 450.798 324.044 450.124 324.15L448.172 324.421L446.22 324.515C444.438 324.665 442.648 324.625 440.872 324.398L441.047 325.175C449.297 325.902 457.566 324.103 465.086 319.945C464.979 319.721 464.793 319.509 464.608 319.297ZM450.534 304.666C447.078 307.5 443.494 310.099 439.798 312.453C439.798 312.771 439.798 313.089 439.798 313.419C443.741 310.93 447.555 308.152 451.217 305.102C450.983 304.949 450.759 304.796 450.534 304.666Z" fill="white"/>
<path d="M533.855 347.369C532.547 346.061 531.23 344.789 529.902 343.517C527.209 340.949 524.515 338.392 521.821 335.848C516.453 330.794 510.968 325.917 505.444 321.123C502.311 318.39 499.227 315.516 495.996 312.959C495.981 312.945 495.963 312.935 495.945 312.929C495.926 312.924 495.907 312.922 495.888 312.926C495.869 312.929 495.85 312.937 495.834 312.949C495.817 312.96 495.803 312.976 495.791 312.995C495.78 313.013 495.771 313.034 495.767 313.057C495.762 313.079 495.761 313.103 495.763 313.126C495.766 313.149 495.773 313.171 495.782 313.191C495.792 313.211 495.805 313.228 495.821 313.242C498.387 315.975 501.14 318.472 503.804 321.076C506.469 323.679 509.114 326.294 511.817 328.839C517.192 333.881 522.631 338.824 528.136 343.67C529.668 345.036 531.181 346.473 532.772 347.757C533.582 348.417 534.353 349.147 535.173 349.784C535.993 350.42 536.871 350.962 537.671 351.68C537.69 351.693 537.711 351.697 537.732 351.692C537.752 351.687 537.771 351.674 537.784 351.654C537.797 351.634 537.804 351.609 537.803 351.583C537.802 351.558 537.793 351.534 537.779 351.515C536.442 350.16 535.192 348.688 533.855 347.369Z" fill="#263238"/>
<path d="M484.762 341.42C482.876 347.574 481.324 353.87 480.117 360.268C479.472 363.425 478.965 366.617 478.467 369.798C477.94 372.958 477.588 376.158 477.413 379.375C477.413 379.493 477.559 379.493 477.579 379.375C478.399 376.3 479.004 373.096 479.59 369.951C480.175 366.806 480.839 363.637 481.424 360.527C482.605 354.189 483.991 347.91 485.016 341.537C485.022 341.517 485.026 341.496 485.025 341.474C485.025 341.453 485.021 341.432 485.013 341.412C485.006 341.392 484.996 341.374 484.983 341.36C484.97 341.345 484.955 341.333 484.938 341.325C484.921 341.318 484.904 341.314 484.886 341.315C484.868 341.315 484.85 341.32 484.834 341.329C484.818 341.337 484.803 341.35 484.791 341.366C484.778 341.381 484.769 341.4 484.762 341.42Z" fill="#263238"/>
<path opacity="0.1" d="M507.679 408.648C504.195 412.064 500.847 414.102 497.773 414.055C479.531 413.867 453.179 358.56 444.044 334.67C438.393 319.874 438.344 306.48 443.478 303.594L507.679 408.648Z" fill="black"/>
<path d="M479.385 462.495H360.732C359.424 459.597 378.866 334.163 418.882 298.835C427.764 291.001 443.517 296.043 447.889 303.665C469.908 341.962 479.385 462.495 479.385 462.495Z" fill="#008DB9"/>
<path d="M473.216 406.811C470.254 405.545 467.351 404.086 464.52 402.44C460.548 400.143 456.712 397.599 452.896 394.913L452.34 394.512C448.436 391.72 444.532 388.764 440.706 385.783L440.159 385.359L437.563 383.333C428.779 376.536 420.132 369.539 410.752 364.096C406.116 361.298 401.193 359.254 396.112 358.018C393.562 357.469 390.967 357.295 388.382 357.499C387.738 357.499 387.104 357.664 386.43 357.77C385.991 357.876 385.552 357.947 385.103 358.053C385.171 357.865 385.23 357.688 385.308 357.499C385.659 357.417 386.02 357.346 386.372 357.252C387.016 357.158 387.67 357.04 388.324 356.981C390.934 356.77 393.556 356.94 396.132 357.488C401.267 358.714 406.243 360.762 410.928 363.578C420.356 369.02 429.062 376.018 437.827 382.791L440.403 384.782L440.959 385.206C444.863 388.233 448.768 391.237 452.818 394.076L453.374 394.477C457.083 397.08 460.86 399.554 464.745 401.78C467.458 403.347 470.237 404.743 473.07 405.962L473.216 406.811ZM462.656 347.003L462.256 347.463C454.731 356.31 449.109 367.1 443.809 377.891C442.69 380.192 441.565 382.489 440.432 384.782C440.345 384.982 440.257 385.171 440.159 385.359C438.724 388.281 437.28 391.19 435.777 394.053C434.459 396.574 433.083 399.059 431.619 401.462C431.483 401.686 431.356 401.91 431.219 402.122C429.738 404.537 428.141 406.846 426.437 409.037C424.66 411.312 422.699 413.364 420.581 415.163L419.79 415.834C419.527 416.058 419.234 416.235 418.96 416.435L417.291 417.613C416.141 418.313 414.954 418.923 413.739 419.439C408.816 421.412 403.662 422.418 398.474 422.419C393.305 422.394 388.154 421.687 383.112 420.31C378.232 419.062 373.498 417.389 368.726 415.716C368.726 415.905 368.648 416.093 368.599 416.27C373.362 417.954 378.144 419.651 383.005 420.911C388.106 422.316 393.32 423.043 398.552 423.079C403.798 423.082 409.011 422.072 413.993 420.087C415.236 419.571 416.449 418.953 417.623 418.237L419.331 417.059C419.62 416.873 419.9 416.669 420.171 416.447L420.981 415.763C423.131 413.946 425.123 411.87 426.925 409.567C428.742 407.22 430.443 404.746 432.019 402.157C432.166 401.934 432.293 401.722 432.419 401.498C433.805 399.212 435.113 396.868 436.323 394.489C437.836 391.626 439.251 388.716 440.715 385.807L440.999 385.23L444.385 378.326C449.695 367.548 455.316 356.852 462.763 348.111L462.89 347.969C462.802 347.628 462.724 347.31 462.656 347.003ZM468.287 374.981C467.536 376.159 466.775 377.266 466.004 378.397C462.772 383.3 459.161 387.821 455.219 391.897C454.438 392.639 453.657 393.381 452.847 394.076L452.34 394.512C451.21 395.474 450.026 396.34 448.797 397.104L447.948 397.657C447.665 397.846 447.352 397.976 447.059 398.14L445.283 399.059C444.072 399.587 442.833 400.016 441.574 400.343C438.549 401.125 435.464 401.52 432.371 401.521H431.619C429.784 401.521 427.949 401.345 426.124 401.109C420.974 400.326 415.91 398.861 411.026 396.739C406.146 394.701 401.334 392.192 396.551 389.671C391.792 387.072 386.902 384.833 381.911 382.968C380.438 382.461 378.984 382.014 377.422 381.684L377.276 382.19C378.798 382.532 380.311 382.968 381.785 383.486C386.746 385.357 391.606 387.6 396.337 390.201C401.119 392.686 405.902 395.207 410.83 397.269C415.757 399.408 420.863 400.893 426.056 401.698C427.774 401.934 429.492 402.087 431.209 402.122C431.463 402.122 431.707 402.122 431.961 402.122C435.238 402.186 438.511 401.815 441.721 401.015C443.004 400.673 444.269 400.236 445.508 399.707L447.323 398.765C447.626 398.6 447.928 398.47 448.221 398.282L449.09 397.716C450.422 396.897 451.701 395.955 452.915 394.901L453.423 394.465C454.165 393.817 454.897 393.134 455.619 392.439C459.601 388.346 463.248 383.802 466.511 378.868C467.162 377.902 467.813 376.925 468.463 375.935C468.405 375.629 468.346 375.299 468.287 374.981ZM456.029 322.854C455.346 323.055 454.663 323.243 453.979 323.408L452.076 323.856C451.442 323.997 450.798 324.044 450.124 324.15L448.172 324.421L446.22 324.515C443.643 324.717 441.055 324.551 438.51 324.021C434.517 323.188 430.649 321.643 427.032 319.438L426.056 318.861C425.373 318.437 424.699 317.989 424.036 317.53C419.568 314.364 415.376 310.662 411.523 306.48L411.094 306.999C414.983 311.225 419.21 314.973 423.714 318.19C424.182 318.519 424.69 318.837 425.139 319.144L426.115 319.733C429.974 322.177 434.121 323.889 438.412 324.81C444.36 325.818 450.413 325.417 456.234 323.632C456.195 323.373 456.107 323.114 456.029 322.854ZM449.08 305.832C443.897 310.029 438.365 313.562 432.576 316.375C430.476 317.363 428.328 318.193 426.144 318.861L425.226 319.144C422.689 319.856 420.112 320.34 417.516 320.593L415.564 320.746C414.92 320.805 414.276 320.746 413.612 320.746H411.66L409.708 320.557C407.357 320.393 405.027 319.923 402.759 319.156C402.622 319.379 402.486 319.603 402.359 319.839C410.153 322.201 418.315 322.165 426.095 319.733L427.071 319.438C429.018 318.816 430.934 318.061 432.81 317.176C438.629 314.344 444.19 310.791 449.402 306.574L449.08 305.832ZM478.272 450.173C477.296 450.173 476.242 450.279 475.227 450.314H475.149L474.553 450.373C469.552 451.005 464.69 452.75 460.216 455.521C457.014 457.539 453.956 459.871 451.071 462.495H451.686C454.438 460.035 457.35 457.844 460.392 455.945C464.905 453.164 469.812 451.433 474.856 450.844H475.217H475.451C476.427 450.844 477.345 450.715 478.282 450.726C478.301 450.514 478.291 450.349 478.272 450.173ZM478.779 455.592C477.719 453.966 476.623 452.368 475.49 450.797C475.383 450.632 475.266 450.479 475.149 450.326L474.749 449.76C471.338 444.963 467.417 440.733 463.085 437.179C460.887 435.448 458.52 434.052 456.039 433.021C455.424 432.774 454.78 432.562 454.155 432.35C453.53 432.138 452.876 431.973 452.203 431.867C450.915 431.572 449.597 431.549 448.299 431.395C443.052 431.164 437.817 432.168 432.888 434.352C428.004 436.593 423.34 439.477 418.98 442.952C411.172 449.018 404.057 456.157 396.454 462.495H396.776C404.34 456.263 411.416 449.254 419.146 443.317C423.49 439.867 428.138 437.01 433.005 434.8C437.885 432.644 443.067 431.655 448.26 431.89C449.539 432.055 450.846 432.079 452.115 432.373C452.759 432.479 453.374 432.703 454.009 432.856C454.643 433.009 455.258 433.268 455.863 433.516C458.309 434.538 460.64 435.923 462.802 437.639C467.096 441.169 470.979 445.376 474.348 450.149C474.407 450.232 474.466 450.302 474.514 450.385L474.856 450.844C476.222 452.764 477.559 454.72 478.848 456.734C478.858 456.357 478.819 455.992 478.76 455.592H478.779Z" fill="white"/>
<path d="M403.13 314.208C378.974 347.934 346.414 407.505 359.717 420.676C381.589 442.327 445.469 454.838 460.128 456.934C466.453 457.853 479.121 407.953 474.895 401.498C470.669 395.042 403.13 390.483 402.671 385.477C402.408 382.638 412.665 357.947 419.263 327.661C426.847 292.745 409.932 304.701 403.13 314.208Z" fill="#AD6359"/>
<path d="M463.827 397.387C463.827 397.387 483.211 397.21 495.889 397.811C502.965 398.14 515.048 400.025 520.152 403.147C527.784 407.8 557.24 433.186 552.302 441.938C547.822 449.855 524.808 424.174 524.808 424.174C524.808 424.174 549.93 447.616 543.088 455.98C536.246 464.344 513.437 431.148 513.437 431.148C513.437 431.148 538.813 455.886 530.625 463.19C524.437 468.667 502.379 440.018 502.379 440.018C502.379 440.018 524.056 461.493 517.898 467.466C511.066 474.062 489.35 449.16 489.35 449.16C471.586 461.152 459.094 458.089 450.31 454.637C448.25 453.754 463.827 397.387 463.827 397.387Z" fill="#AD6359"/>
<path d="M516.551 415.398C519.586 418.025 522.67 420.652 525.501 423.644C528.331 426.636 531.074 429.64 533.67 432.891C540.024 440.855 542.971 447.027 542.747 446.674C537.632 438.204 527.638 427.496 524.808 424.551C521.977 421.606 519.274 418.508 516.453 415.575C516.385 415.445 516.482 415.339 516.551 415.398Z" fill="#263238"/>
<path d="M507.571 427.543C511.319 431.077 515.155 434.446 518.776 438.204C522.397 441.962 527.296 447.381 530.683 451.41C530.937 451.716 530.683 452.305 530.41 452.01C526.896 448.146 521.675 442.869 518.122 439.052C514.569 435.236 511.144 431.266 507.493 427.626C507.435 427.614 507.513 427.484 507.571 427.543Z" fill="#263238"/>
<path d="M498.28 436.284C504.243 441.361 509.426 447.758 514.384 454.178C514.638 454.496 514.384 454.543 514.072 454.237C508.811 448.17 504.712 443.364 498.134 436.567C498.056 436.425 498.182 436.178 498.28 436.284Z" fill="#263238"/>
<path d="M461.104 396.644C469.947 396.574 495.918 396.491 504.741 397.316C512.549 398.034 518.981 400.061 525.53 405.291C539.584 416.505 548.642 429.675 550.906 433.563C552.272 435.919 554.254 439.724 552.448 442.363C550.232 445.567 542.083 442.433 533.484 433.045C533.172 432.703 533.367 432.491 533.689 432.809C545.762 444.589 550.564 443.246 551.823 441.232C552.643 439.924 551.823 437.698 551.121 435.931C549.945 433.43 548.508 431.122 546.846 429.063C541.3 421.902 535.165 415.441 528.536 409.779C521.433 403.38 512.972 399.545 504.136 398.718C495.098 397.822 470.093 398.105 461.065 397.057C460.88 396.986 460.909 396.656 461.104 396.644Z" fill="#263238"/>
<path d="M544.523 451.268C544.025 448.359 542.288 445.696 540.912 443.293C539.24 440.269 537.32 437.455 535.182 434.894C535.095 434.788 534.929 434.894 535.017 435.059C536.837 437.628 538.529 440.327 540.082 443.14C540.908 444.688 541.657 446.292 542.327 447.946C542.961 449.537 543.713 451.374 543.381 453.188C542.756 456.652 539.106 456.569 536.949 455.639C535.552 455.004 534.205 454.215 532.928 453.283C531.187 451.944 529.536 450.443 527.989 448.794C527.862 448.653 527.511 448.712 527.648 448.865C530.869 452.564 536.969 460.256 541.946 457.441C542.901 456.931 543.681 456.037 544.151 454.912C544.62 453.786 544.752 452.498 544.523 451.268Z" fill="#263238"/>
<path d="M464.12 394.359L440.901 457.971C440.901 457.971 359.756 435.86 355.052 417.271C350.348 398.682 375.772 348.947 398.718 317.895C421.283 287.385 424.621 308.082 419.009 331.678C413.397 355.273 404.193 382.473 405.218 384.511C406.243 386.549 464.12 394.359 464.12 394.359Z" fill="#008DB9"/>
<path d="M410.44 363.295C410.381 363.472 410.333 363.66 410.274 363.837C405.766 361.161 400.989 359.205 396.063 358.018C393.514 357.469 390.918 357.295 388.334 357.499C387.689 357.499 387.055 357.664 386.382 357.77C385.708 357.876 385.113 358.006 384.488 358.218C383.219 358.548 382.019 359.137 380.779 359.596C375.997 361.793 371.609 365.08 367.857 369.279L368.472 367.995C372.051 364.181 376.171 361.176 380.633 359.125C381.882 358.654 383.102 358.053 384.391 357.723C385.025 357.511 385.679 357.417 386.343 357.252C387.006 357.087 387.641 357.04 388.295 356.981C390.905 356.77 393.526 356.94 396.103 357.488C401.071 358.663 405.89 360.615 410.44 363.295ZM453.384 394.477L452.828 394.076L450.602 392.486L449.255 392.298C450.231 393.04 451.295 393.794 452.32 394.512L452.876 394.913C455.804 396.974 458.732 398.953 461.739 400.803L461.973 400.155C459.084 398.352 456.224 396.456 453.384 394.477ZM437.543 390.578C436.958 391.756 436.363 392.934 435.757 394.053C434.44 396.574 433.064 399.059 431.6 401.462C431.463 401.686 431.336 401.91 431.199 402.122C429.718 404.537 428.121 406.846 426.417 409.037C424.641 411.312 422.679 413.364 420.561 415.163L419.771 415.834C419.507 416.058 419.214 416.235 418.941 416.435L417.272 417.613C416.122 418.313 414.935 418.923 413.719 419.439C408.796 421.412 403.642 422.418 398.455 422.419C393.292 422.392 388.147 421.685 383.112 420.31C378.027 419.003 373.04 417.224 368.033 415.469C363.592 413.914 359.122 412.347 354.554 411.322C354.554 411.511 354.554 411.699 354.554 411.876C359.073 412.901 363.494 414.479 367.916 416.022C372.913 417.789 377.92 419.556 383.024 420.911C388.126 422.316 393.339 423.043 398.572 423.079C403.818 423.082 409.031 422.072 414.012 420.087C415.256 419.571 416.469 418.953 417.643 418.237L419.351 417.059C419.64 416.873 419.92 416.669 420.19 416.447L421 415.763C423.151 413.946 425.142 411.87 426.944 409.567C428.761 407.22 430.462 404.746 432.039 402.157C432.185 401.934 432.312 401.722 432.439 401.498C433.825 399.212 435.133 396.868 436.343 394.489C437.007 393.24 437.651 391.968 438.295 390.707L437.543 390.578ZM454.057 392.934C453.657 393.311 453.247 393.688 452.828 394.041L452.32 394.477C451.19 395.439 450.007 396.305 448.777 397.068L447.928 397.622C447.645 397.811 447.333 397.94 447.04 398.105L445.264 399.024C444.053 399.552 442.814 399.981 441.555 400.308C438.53 401.09 435.445 401.485 432.351 401.486H431.6C429.765 401.486 427.93 401.309 426.105 401.074C420.954 400.291 415.891 398.825 411.006 396.703C406.126 394.665 401.314 392.156 396.532 389.635C391.772 387.036 386.883 384.798 381.892 382.932C376.885 381.201 371.546 380.258 366.364 381.483C364.715 381.884 363.119 382.553 361.62 383.474C361.523 383.71 361.425 383.957 361.337 384.193C362.941 383.161 364.661 382.415 366.442 381.978C371.537 380.8 376.807 381.719 381.765 383.451C386.727 385.322 391.587 387.564 396.317 390.165C401.1 392.651 405.882 395.172 410.811 397.233C415.743 399.386 420.855 400.884 426.056 401.698C427.774 401.934 429.491 402.087 431.209 402.122C431.463 402.122 431.707 402.122 431.961 402.122C435.238 402.186 438.511 401.815 441.721 401.015C443.004 400.673 444.269 400.236 445.508 399.707L447.323 398.765C447.626 398.6 447.928 398.47 448.221 398.282L449.09 397.716C450.422 396.897 451.701 395.955 452.915 394.901L453.423 394.465C453.931 394.017 454.399 393.546 454.946 393.075L454.057 392.934ZM411.562 306.421C411.143 305.974 410.733 305.538 410.323 305.078L409.796 305.491L411.162 306.963C414.34 310.397 417.733 313.529 421.313 316.328C421.313 316.034 421.313 315.739 421.313 315.457C417.887 312.755 414.634 309.747 411.582 306.457L411.562 306.421ZM417.496 320.557L415.544 320.71C414.9 320.769 414.256 320.71 413.592 320.71H411.64L409.688 320.522C407.107 320.336 404.553 319.79 402.076 318.896C400.992 318.508 399.919 318.06 398.865 317.542L398.63 317.86L398.406 318.166C399.544 318.742 400.707 319.241 401.89 319.662C408.072 321.654 414.527 322.087 420.854 320.934C420.854 320.64 420.922 320.357 420.961 320.063C419.878 320.322 418.697 320.487 417.516 320.593L417.496 320.557ZM448.299 431.36C443.05 431.14 437.815 432.156 432.888 434.352C428.004 436.593 423.34 439.477 418.98 442.952C416.54 444.86 414.159 446.862 411.806 448.924L412.187 449.054C414.471 447.063 416.784 445.143 419.156 443.317C423.5 439.867 428.148 437.01 433.015 434.8C437.895 432.644 443.076 431.655 448.27 431.89C448.943 431.973 449.617 432.02 450.29 432.09L450.475 431.596C449.783 431.525 449.041 431.478 448.319 431.395L448.299 431.36Z" fill="white"/>
<path d="M431.59 447.451C432.381 445.637 433.142 443.823 433.903 441.997C435.432 438.298 436.955 434.592 438.471 430.877C441.477 423.503 444.327 416.034 447.069 408.495C448.641 404.231 450.349 400.013 451.764 395.667C451.781 395.623 451.783 395.573 451.769 395.528C451.755 395.482 451.727 395.445 451.691 395.425C451.655 395.405 451.613 395.403 451.576 395.419C451.538 395.436 451.507 395.47 451.491 395.513C449.802 399.106 448.338 402.864 446.777 406.551C445.215 410.238 443.624 413.89 442.121 417.613C439.128 424.987 436.226 432.42 433.415 439.912C432.625 442.009 431.766 444.082 431.053 446.226C430.682 447.322 430.253 448.382 429.892 449.489C429.531 450.597 429.257 451.728 428.916 452.823C428.911 452.835 428.909 452.847 428.908 452.86C428.908 452.873 428.909 452.886 428.913 452.898C428.917 452.91 428.922 452.921 428.929 452.93C428.937 452.94 428.945 452.947 428.955 452.953C428.964 452.958 428.975 452.961 428.985 452.962C428.996 452.962 429.007 452.96 429.017 452.956C429.027 452.952 429.036 452.945 429.044 452.936C429.051 452.928 429.058 452.917 429.062 452.906C429.853 451.08 430.78 449.313 431.59 447.451Z" fill="#263238"/>
<path d="M442.648 453.601L441.018 458.054L440.969 458.195H440.813C433.132 456.475 425.5 454.413 417.916 452.116C410.333 449.819 402.808 447.216 395.361 444.318C387.887 441.467 380.558 438.092 373.411 434.211C369.824 432.264 366.36 430.004 363.045 427.449C361.392 426.147 359.828 424.686 358.37 423.079C356.867 421.523 355.716 419.533 355.023 417.295C355.886 419.397 357.146 421.225 358.702 422.631C360.243 424.06 361.878 425.332 363.592 426.436C366.982 428.711 370.482 430.736 374.074 432.503C381.248 436.096 388.617 439.158 396.024 442.033C403.432 444.907 410.908 447.581 418.404 450.149C425.9 452.717 433.425 455.262 440.96 457.7L440.764 457.818L442.648 453.601Z" fill="#263238"/>
<path d="M463.193 396.833L464.003 394.3L464.091 394.477C455.951 393.829 447.821 393.04 439.691 392.015C431.561 390.99 423.479 389.871 415.398 388.41C413.378 388.033 411.357 387.633 409.337 387.161C408.361 386.914 407.317 386.679 406.273 386.325C406.009 386.231 405.755 386.137 405.472 386.007C405.31 385.943 405.153 385.86 405.004 385.76C404.89 385.686 404.782 385.599 404.682 385.5C404.576 385.394 404.487 385.267 404.418 385.124C404.378 385.032 404.343 384.937 404.311 384.841C404.305 384.794 404.305 384.746 404.311 384.699C404.272 384.251 404.291 383.798 404.369 383.357C404.418 383.038 404.467 382.697 404.535 382.402C405.57 377.514 406.878 372.896 408.205 368.266C410.86 358.948 413.749 349.748 416.794 340.607C414.442 350.031 412.031 359.455 409.63 368.879C408.478 373.591 407.209 378.303 406.321 383.015C406.263 383.309 406.234 383.58 406.185 383.863C406.136 384.146 406.185 384.476 406.136 384.358C406.087 384.24 406.136 384.358 406.136 384.358C406.125 384.295 406.105 384.236 406.077 384.181C406.077 384.063 405.902 383.946 405.941 383.969C405.98 383.993 405.892 383.969 405.941 383.969L406.185 384.087L406.829 384.334C407.805 384.641 408.781 384.864 409.757 385.1C411.709 385.536 413.749 385.913 415.75 386.278C419.771 387.008 423.798 387.696 427.832 388.339L439.945 390.307C448.016 391.603 456.088 392.993 464.159 394.418H464.306L464.247 394.571L463.193 396.833Z" fill="#263238"/>
<path d="M417.662 346.638C417.09 348.3 416.366 349.88 415.505 351.35C414.696 352.854 413.71 354.207 412.577 355.367C413.319 353.801 414.11 352.316 414.949 350.844C415.764 349.361 416.671 347.955 417.662 346.638Z" fill="#263238"/>
<path d="M441.311 324.881C434.42 327.237 422.006 315.068 416.911 304.925C416.56 304.23 417.945 275.581 417.731 269.868C417.731 268.69 447.733 276.936 447.733 276.936C447.733 276.936 445.264 289.069 445.693 299.023C445.722 299.872 447.957 322.595 441.311 324.881Z" fill="#AD6359"/>
<path d="M417.272 287.809C431.317 299.777 445 295.183 445.576 294.971C445.807 288.899 446.503 282.865 447.655 276.948C447.655 276.948 417.594 268.702 417.643 269.88C417.819 272.554 417.575 280.282 417.272 287.809Z" fill="#263238"/>
<path d="M447.587 253.341C448.358 261.799 453.97 267.995 460.109 267.17C466.248 266.346 470.61 258.842 469.869 250.396C469.127 241.949 463.495 235.741 457.347 236.566C451.198 237.391 446.815 244.894 447.587 253.341Z" fill="#455A64"/>
<path d="M444.034 254.354C444.893 263.778 451.13 270.646 457.962 269.738C464.793 268.831 469.673 260.479 468.785 251.067C467.897 241.655 461.7 234.775 454.858 235.682C448.016 236.59 443.175 244.953 444.034 254.354Z" fill="#C7C7C7"/>
<path d="M413.573 226.824C410.294 239.523 415.671 276.3 423.118 284.546C433.923 296.503 451.705 297.763 460.138 282.072C468.317 266.852 460.606 219.084 452.271 211.581C440.003 200.507 418.414 208.082 413.573 226.824Z" fill="#AD6359"/>
<path d="M438.89 249.913C438.89 249.83 438.754 250.066 438.773 250.172C439.222 252.622 439.408 255.532 437.69 256.78C437.631 256.78 437.69 256.945 437.69 256.91C439.925 256.003 439.652 252.151 438.89 249.913Z" fill="#263238"/>
<path d="M436.655 247.757C433.317 248.216 434.323 256.25 437.417 255.826C440.511 255.402 439.457 247.38 436.655 247.757Z" fill="#263238"/>
<path d="M450.739 247.981C450.739 247.887 450.915 248.075 450.925 248.181C451.169 250.678 451.803 253.482 453.765 253.977C453.823 253.977 453.843 254.118 453.765 254.118C451.432 254.142 450.642 250.396 450.739 247.981Z" fill="#263238"/>
<path d="M452.252 245.024C455.531 244.117 456.79 252.092 453.755 252.94C450.72 253.788 449.48 245.813 452.252 245.024Z" fill="#263238"/>
<path d="M433.571 244.565C434.408 244.098 435.223 243.575 436.011 242.998C436.933 242.591 437.719 241.829 438.246 240.83C438.361 240.477 438.375 240.087 438.286 239.723C438.198 239.359 438.012 239.04 437.758 238.816C437.203 238.464 436.58 238.299 435.953 238.336C435.327 238.373 434.72 238.612 434.196 239.028C433.02 239.668 432.083 240.815 431.57 242.244C431.468 242.577 431.448 242.94 431.514 243.287C431.58 243.634 431.728 243.95 431.94 244.196C432.153 244.443 432.421 244.609 432.71 244.674C433 244.74 433.299 244.702 433.571 244.565Z" fill="#263238"/>
<path d="M454.36 240.536C453.438 240.481 452.519 240.367 451.608 240.194C450.628 240.239 449.664 239.891 448.865 239.205C448.646 238.93 448.508 238.574 448.475 238.195C448.441 237.815 448.513 237.433 448.68 237.108C449.088 236.532 449.616 236.097 450.209 235.846C450.802 235.596 451.44 235.539 452.057 235.682C453.345 235.747 454.566 236.39 455.482 237.485C455.679 237.747 455.808 238.072 455.854 238.421C455.901 238.77 455.862 239.128 455.743 239.451C455.624 239.774 455.43 240.048 455.185 240.241C454.939 240.434 454.653 240.536 454.36 240.536Z" fill="#263238"/>
<path d="M440.023 273.225C440.589 273.72 441.184 274.403 441.975 274.403C442.739 274.247 443.467 273.898 444.112 273.378C444.124 273.361 444.141 273.35 444.159 273.348C444.177 273.346 444.195 273.353 444.21 273.367C444.224 273.381 444.233 273.401 444.235 273.423C444.237 273.445 444.231 273.467 444.219 273.484C443.988 274.03 443.637 274.488 443.205 274.81C442.774 275.132 442.277 275.305 441.77 275.31C441.334 275.257 440.921 275.048 440.583 274.71C440.246 274.373 440 273.921 439.876 273.414C439.788 273.296 439.935 273.155 440.023 273.225Z" fill="#263238"/>
<path d="M441.252 265.392C441.899 266.279 442.69 266.995 443.577 267.496C444.464 267.997 445.427 268.271 446.406 268.301C447.263 268.342 448.121 268.235 448.953 267.983C449.113 267.948 449.27 267.893 449.421 267.818C449.57 267.772 449.717 267.717 449.861 267.653C449.968 267.61 450.06 267.525 450.123 267.413C450.187 267.3 450.218 267.165 450.212 267.029C450.206 266.944 450.19 266.861 450.163 266.782V266.57C449.958 264.649 449.441 261.763 449.441 261.763C450.066 262.011 453.228 263.071 453.052 262.081C451.608 253.835 449.997 244.741 447.118 236.955C447.099 236.903 447.064 236.862 447.022 236.839C446.979 236.815 446.931 236.811 446.886 236.827C446.842 236.842 446.803 236.877 446.777 236.924C446.752 236.972 446.741 237.028 446.747 237.084C447.879 245.036 450.163 252.693 451.413 260.644C450.287 260.246 449.12 260.044 447.948 260.044C447.733 260.161 449.031 265.592 449.06 266.464C449.067 266.495 449.067 266.527 449.06 266.558C446.445 267.453 444.317 266.852 441.457 265.168C441.243 265.05 441.106 265.215 441.252 265.392Z" fill="#263238"/>
<path d="M447.889 267.182C447.195 268.707 446.187 269.989 444.961 270.905C444.277 271.375 443.49 271.58 442.707 271.494C440.999 271.27 440.755 269.456 440.833 267.842C440.898 266.984 441.045 266.138 441.272 265.321C443.257 266.776 445.575 267.428 447.889 267.182Z" fill="#263238"/>
<path d="M444.951 270.94C444.268 271.41 443.481 271.616 442.697 271.529C440.989 271.305 440.745 269.491 440.823 267.877C442.648 267.736 444.541 268.867 444.951 270.94Z" fill="#FF99BA"/>
<path opacity="0.2" d="M418.57 239.888C417.37 243.54 414.9 252.116 413.495 252.716C412.158 240.795 412.109 229.981 414.559 223.337C415.572 220.593 416.994 218.097 418.755 215.974C418.96 219.167 419.849 236.071 418.57 239.888Z" fill="#263238"/>
<path d="M444.971 222.842C444.135 224.59 442.942 226.05 441.504 227.082C440.067 228.113 438.434 228.681 436.763 228.732C435.061 228.786 433.376 228.314 431.868 227.362C430.36 226.409 429.078 225.008 428.145 223.29C428.139 223.279 428.133 223.27 428.124 223.262C428.116 223.254 428.107 223.249 428.097 223.245C428.087 223.242 428.077 223.241 428.066 223.243C428.056 223.244 428.046 223.248 428.037 223.255C428.028 223.261 428.02 223.269 428.014 223.279C428.008 223.289 428.003 223.3 428 223.312C427.998 223.324 427.997 223.337 427.998 223.349C427.999 223.361 428.003 223.373 428.008 223.384C428.857 225.301 430.124 226.902 431.672 228.013C433.22 229.124 434.991 229.702 436.792 229.686C438.556 229.566 440.263 228.888 441.742 227.72C443.22 226.552 444.418 224.934 445.215 223.031C445.236 222.992 445.243 222.944 445.234 222.899C445.226 222.854 445.203 222.814 445.171 222.789C445.139 222.764 445.099 222.756 445.062 222.766C445.024 222.776 444.992 222.803 444.971 222.842Z" fill="#263238"/>
<path d="M465.33 203.888C463.924 200.758 461.646 198.329 458.898 197.032C455.092 195.218 451.276 196.431 447.499 197.739C447.478 197.739 447.458 197.749 447.443 197.767C447.429 197.784 447.421 197.808 447.421 197.833C447.421 197.858 447.429 197.882 447.443 197.9C447.458 197.918 447.478 197.928 447.499 197.928C450.71 196.832 454.028 195.949 457.308 197.15C460.022 198.13 462.373 200.211 463.964 203.04C465.516 205.97 466.142 209.476 465.728 212.918C465.314 216.359 463.887 219.506 461.709 221.782C460.426 223.053 458.94 223.995 457.344 224.548C455.748 225.101 454.075 225.254 452.428 224.998C452.301 224.998 452.242 225.21 452.379 225.234C454.621 225.693 456.924 225.388 459.031 224.354C461.137 223.32 462.963 221.598 464.304 219.381C465.644 217.164 466.445 214.539 466.618 211.802C466.791 209.066 466.328 206.325 465.281 203.888H465.33Z" fill="#263238"/>
<path d="M412.685 234.163C412.685 234.163 405.628 223.219 409.044 215.315C410.996 210.827 419.4 209.59 419.4 209.59C419.4 209.59 421.352 204.395 427.998 201.026C434.645 197.657 443.614 199.636 443.614 199.636C443.614 199.636 449.578 193.651 456.41 196.62C465.935 200.767 467.146 216.917 459.181 223.867C453.579 228.756 444.327 223.973 444.327 223.973C443.546 224.268 436.226 231.948 428.769 224.444C428.769 224.444 424.524 230.9 419.458 228.073C418.979 229.801 418.073 231.31 416.862 232.399C415.652 233.488 414.194 234.103 412.685 234.163Z" fill="#263238"/>
<path d="M419.927 256.804C419.927 256.804 412.909 245.024 408.478 248.075C404.047 251.126 409.454 268.242 414.685 270.457C415.342 270.806 416.051 270.991 416.769 271.001C417.486 271.011 418.198 270.846 418.862 270.516C419.525 270.186 420.127 269.698 420.63 269.08C421.133 268.463 421.528 267.729 421.791 266.923L419.927 256.804Z" fill="#AD6359"/>
<path d="M410.118 252.952C410.03 252.952 410.02 253.081 410.118 253.117C413.817 254.86 415.798 258.936 417.204 263.177C416.091 261.551 414.598 260.68 412.792 262.282C412.695 262.364 412.792 262.541 412.89 262.517C413.533 262.27 414.223 262.267 414.867 262.51C415.512 262.752 416.079 263.228 416.491 263.872C417.185 264.968 417.778 266.153 418.258 267.406C418.433 267.795 419.019 267.571 418.892 267.123V267.017C418.892 261.292 415.154 253.435 410.118 252.952Z" fill="#263238"/>
<path d="M414.081 248.558C414.081 248.558 410.284 230.299 413.241 219.108C416.53 206.668 428.935 194.488 443.595 199.659C443.595 199.659 427.325 202.192 419.419 218.601C415.789 226.141 419.273 247.91 419.273 247.91L414.081 248.558Z" fill="#C7C7C7"/>
<path d="M429.833 254.707C431.317 264.131 426.993 273.013 420.161 274.592C413.329 276.17 406.575 269.88 405.082 260.456C403.589 251.032 407.922 242.15 414.754 240.571C421.586 238.993 428.34 245.307 429.833 254.707Z" fill="#C7C7C7"/>
<path d="M426.144 255.013C427.481 263.46 423.587 271.505 417.448 272.884C411.309 274.262 405.238 268.584 403.901 260.15C402.564 251.715 406.448 243.658 412.587 242.279C418.726 240.901 424.797 246.555 426.144 255.013Z" fill="#455A64"/>
<path d="M38.8767 462.495H158.593L134.72 294.901H45.2012L38.8767 462.495Z" fill="#DBDBDB"/>
<path d="M38.8767 462.495H49.3687L55.2637 294.901H45.2012L38.8767 462.495Z" fill="#A6A6A6"/>
<path d="M109.832 221.806C98.7153 235.152 95.5238 257.146 95.5238 257.146C95.5238 257.146 84.8659 279.28 87.8427 291.308C88.6301 294.718 90.0911 297.847 92.1004 300.426C94.1096 303.005 96.6073 304.957 99.379 306.115L98.3249 299.471C98.3249 299.471 101.897 308.012 113.834 311.451C125.77 314.891 141.562 310.462 149.78 305.444C154.65 302.501 158.806 298.085 161.843 292.627L158.769 302.287C158.769 302.287 170.354 301.792 177.235 286.914C184.115 272.036 164.351 250.655 162.673 246.049C160.994 241.443 158.866 207.882 129.615 213.666C129.655 213.583 117.523 212.617 109.832 221.806Z" fill="#263238"/>
<path d="M95.1919 305.161C92.1468 302.416 89.1407 299.271 87.462 295.383C85.6314 291.354 84.9815 286.697 85.6173 282.166C86.4274 276.736 88.7991 271.941 91.1024 267.265C93.4058 262.588 96.1776 257.841 98.4908 252.928C98.6176 252.657 98.276 252.434 98.1199 252.646C95.5209 256.33 93.0966 260.188 90.8584 264.202C88.5687 267.872 86.6426 271.854 85.1196 276.064C83.696 279.942 83.2284 284.232 83.7727 288.422C84.3484 291.827 85.6011 295.013 87.4229 297.704C89.5799 300.944 92.3029 303.017 95.0357 305.455C95.1919 305.609 95.3578 305.314 95.1919 305.161Z" fill="#263238"/>
<path d="M179.743 271.529C176.229 259.172 167.055 251.326 161.423 240.548C158.398 234.717 156.046 228.261 152.103 223.196C151.995 223.054 151.8 223.278 151.898 223.42C155.138 227.978 157.012 233.468 159.354 238.734C161.85 243.915 164.766 248.785 168.06 253.27C173.858 261.657 180.797 271.588 179.47 283.333C178.855 288.751 176.2 294.759 171.593 296.444C171.418 296.514 171.525 296.868 171.701 296.774C173.517 295.893 175.167 294.575 176.548 292.9C177.929 291.225 179.013 289.229 179.733 287.032C181.285 282.035 181.289 276.529 179.743 271.529Z" fill="#263238"/>
<path d="M180.163 274.851C180.479 270.171 179.586 265.487 177.605 261.445C175.585 257.464 172.413 254.589 169.241 252.021C165.581 249.088 161.726 246.296 159.403 241.643C159.305 241.443 159.071 241.643 159.159 241.843C162.848 249.524 169.895 253.105 174.609 259.572C180.026 266.958 180.036 277.713 176.307 286.16C173.938 291.308 170.594 295.708 166.547 299C166.479 299 166.547 299.177 166.625 299.118C173.526 293.652 179.606 285.241 180.163 274.851Z" fill="#263238"/>
<path d="M135.93 331.148C165.552 350.773 201.01 375.405 222.736 369.609C232.369 367.041 275.625 298.599 277.46 290.683C279.031 283.886 239.864 256.521 235.492 261.881C228.113 270.869 208.164 321.476 205.236 322.324C202.308 323.173 177.44 317.082 151.556 311.44C126.648 306.044 115.366 317.53 135.93 331.148Z" fill="#EB9481"/>
<path d="M273.253 299.212C276.63 294.076 290.412 268.89 292.939 260.845C295.467 252.799 301.382 229.039 296.482 226.046C291.583 223.054 289.416 229.828 289.416 229.828C289.416 229.828 290.597 219.308 285.434 216.87C280.271 214.431 277.148 225.116 277.148 225.116C277.148 225.116 277.704 214.208 272.404 212.158C267.105 210.108 265.465 221.582 265.465 221.582C265.465 221.582 266.363 211.639 261.424 212.158C255.49 212.853 255.568 231.418 252.211 240.041C251.45 241.997 234.438 278.42 234.438 278.42L273.253 299.212Z" fill="#EB9481"/>
<path d="M265.582 220.651C265.582 234.304 263.63 240.288 257.774 251.668C257.657 251.88 257.901 252.139 258.047 251.927C264.684 241.419 268.022 234.351 266.168 220.616C266.041 219.944 265.582 220.003 265.582 220.651Z" fill="#263238"/>
<path d="M277.089 224.044C276.113 238.18 274.024 244.73 268.549 257.205C268.471 257.381 268.715 257.558 268.803 257.381C275.02 245.695 278.221 238.533 277.675 224.221C277.704 223.573 277.138 223.396 277.089 224.044Z" fill="#263238"/>
<path d="M289.084 230.452C287.298 244.093 285.288 251.35 278.69 262.635C278.673 262.661 278.66 262.69 278.652 262.722C278.644 262.753 278.641 262.786 278.644 262.819C278.647 262.852 278.655 262.884 278.668 262.913C278.68 262.942 278.698 262.968 278.719 262.989C278.74 263.009 278.765 263.025 278.791 263.035C278.817 263.044 278.844 263.047 278.872 263.044C278.899 263.041 278.925 263.031 278.949 263.015C278.973 263 278.995 262.979 279.012 262.953C286.674 252.233 289.24 243.21 289.426 230.558C289.416 229.71 289.201 229.592 289.084 230.452Z" fill="#263238"/>
<path d="M226.054 282.543C226.054 282.543 225.225 265.474 226.24 257.876C227.255 250.278 239.64 223.632 244.52 226.529C250.874 230.287 246.228 247.368 243.046 255.379C243.046 255.379 257.745 264.025 256.613 277.16C255.481 290.295 226.054 282.543 226.054 282.543Z" fill="#EB9481"/>
<path d="M246.023 228.249C249.771 236.719 245.047 246.909 242.431 254.955C242.389 255.071 242.37 255.198 242.377 255.325C242.383 255.452 242.415 255.575 242.47 255.683C242.525 255.792 242.6 255.883 242.69 255.949C242.78 256.015 242.882 256.054 242.988 256.062C248.951 260.185 256.369 268.101 257.003 276.818C257.003 276.871 257.02 276.922 257.052 276.96C257.083 276.997 257.125 277.018 257.169 277.018C257.213 277.018 257.255 276.997 257.286 276.96C257.317 276.922 257.335 276.871 257.335 276.818C257.706 267.394 250.942 258.866 244.178 254.849C246.95 246.603 251.332 236.177 246.13 228.202C246.062 228.167 246.003 228.202 246.023 228.249Z" fill="#263238"/>
<path d="M198.189 319.532L162.536 355.603C162.536 355.603 140.771 341.938 124.696 326.235C108.622 310.533 126.424 302.899 154.025 308.495C181.627 314.09 198.189 319.532 198.189 319.532Z" fill="#008DB9"/>
<path d="M155.958 326.777C154.948 325.113 153.778 323.599 152.473 322.266C153.917 326.011 156.003 329.343 158.593 332.043C157.893 330.166 157.009 328.398 155.958 326.777V326.777ZM124.726 326.259L125.155 326.659C125.438 326.294 125.721 325.906 125.985 325.481C125.536 325.729 125.116 325.988 124.706 326.306L124.726 326.259ZM184.408 326.495C182.722 326.196 181.012 326.132 179.313 326.306C180.907 327.032 182.564 327.534 184.252 327.802C185.938 328.111 187.648 328.178 189.347 328.002C187.748 327.27 186.084 326.764 184.389 326.495H184.408ZM172.472 312.547C172.45 313.333 172.473 314.12 172.54 314.903C172.778 314.196 172.98 313.472 173.145 312.735L172.472 312.547Z" fill="white"/>
<path d="M154.552 347.899C161.804 339.488 169.553 331.678 177.41 324.068C179.635 321.924 181.9 319.827 184.242 317.813C184.31 317.754 184.398 317.813 184.33 317.919C180.641 322.03 176.805 325.953 172.989 329.899C169.173 333.845 165.308 337.792 161.394 341.62C159.178 343.788 156.973 345.955 154.728 348.064C154.591 348.146 154.464 348.005 154.552 347.899Z" fill="#263238"/>
<path d="M177.683 340.277L162.526 355.591C162.526 355.591 140.761 341.938 124.687 326.235C118.977 320.663 117.542 316.116 119.289 312.806L177.683 340.277Z" fill="#263238"/>
<path d="M170.344 462.353H56.7278C56.7278 462.353 81.4108 347.298 104.259 314.903C104.767 314.161 105.294 313.454 105.821 312.794C105.928 312.641 106.026 312.535 106.133 312.406C107.902 310.125 109.961 308.2 112.233 306.704C112.633 306.445 113.033 306.198 113.453 305.986C122.237 301.097 131.548 305.149 138.253 312.076C140.381 314.267 164.468 352.128 166.557 366.511C168.402 379.245 161.277 392.922 161.277 392.922L170.344 462.353Z" fill="#008DB9"/>
<path d="M144.256 387.998C139.418 388.567 134.622 389.572 129.908 391.002C127.566 391.756 125.282 392.627 122.989 393.558C121.847 394.029 120.705 394.453 119.553 394.866C118.354 395.336 117.112 395.629 115.854 395.737C115.831 395.737 115.808 395.748 115.792 395.768C115.775 395.788 115.766 395.815 115.766 395.843C115.766 395.871 115.775 395.898 115.792 395.918C115.808 395.938 115.831 395.949 115.854 395.949C117.045 396.01 118.239 395.971 119.426 395.832C120.569 395.659 121.701 395.391 122.813 395.031C125.194 394.288 127.537 393.428 129.908 392.675C134.691 391.143 139.463 389.612 144.324 388.493C144.378 388.482 144.427 388.445 144.459 388.391C144.491 388.337 144.504 388.27 144.495 388.204C144.486 388.138 144.455 388.08 144.41 388.041C144.366 388.003 144.31 387.987 144.256 387.998V387.998Z" fill="#263238"/>
<path d="M156.26 393.051C152.268 392.588 148.256 392.396 144.246 392.474C142.294 392.533 140.254 392.722 138.253 392.969C137.277 393.099 136.301 393.24 135.403 393.393C134.505 393.546 133.334 393.9 132.29 394.053C132.182 394.053 132.182 394.277 132.29 394.265C133.266 394.159 134.291 394.265 135.286 394.206L138.282 394.076C140.234 394.006 142.274 393.947 144.275 393.841C148.277 393.64 152.268 393.487 156.27 393.44C156.485 393.452 156.465 393.075 156.26 393.051Z" fill="#263238"/>
<path d="M93.4646 341.95C92.9278 341.125 92.3812 340.312 91.7859 339.594L91.3662 340.654C91.7566 341.384 92.1763 342.103 92.6057 342.798C93.6168 344.451 94.7864 345.953 96.09 347.274C95.3776 345.39 94.4973 343.604 93.4646 341.95V341.95ZM106.65 311.77C106.452 313.609 106.419 315.47 106.553 317.318C107.159 315.386 107.569 313.373 107.773 311.322C107.773 311.016 107.841 310.698 107.87 310.391C107.46 310.827 107.051 311.287 106.65 311.77V311.77ZM141.132 350.102C140.525 352.031 140.105 354.039 139.883 356.086C139.637 358.126 139.582 360.192 139.717 362.247C140.33 360.321 140.743 358.311 140.947 356.263C141.215 354.226 141.277 352.157 141.132 350.102ZM119.416 416.447C118.815 418.369 118.402 420.369 118.187 422.407C117.939 424.447 117.887 426.514 118.03 428.568C119.191 424.689 119.663 420.56 119.416 416.447ZM82.5041 366.358C81.9082 368.294 81.4956 370.306 81.2743 372.354C81.0259 374.39 80.9735 376.453 81.1182 378.503C81.7155 376.572 82.1249 374.564 82.3382 372.519C82.594 370.48 82.6497 368.412 82.5041 366.358V366.358ZM113.053 357.947C111.366 357.648 109.657 357.585 107.958 357.759C109.551 358.484 111.208 358.986 112.897 359.255C114.583 359.563 116.293 359.631 117.991 359.455C116.404 358.709 114.75 358.187 113.063 357.9L113.053 357.947ZM153.928 414.491C152.238 414.192 150.525 414.129 148.823 414.303C152.037 415.703 155.459 416.273 158.866 415.975C157.276 415.248 155.623 414.742 153.938 414.468L153.928 414.491ZM77.6241 409.061C75.9665 408.771 74.2876 408.699 72.6172 408.849H72.5196H72.6075C74.1841 409.55 75.821 410.036 77.4875 410.297C79.1741 410.596 80.8836 410.66 82.5822 410.486C80.9807 409.781 79.3169 409.303 77.6241 409.061ZM120.49 457.7C118.803 457.401 117.094 457.338 115.395 457.512C118.612 458.914 122.038 459.48 125.448 459.173C123.834 458.454 122.158 457.96 120.451 457.7H120.49ZM74.3838 451.739C72.6939 451.441 70.9811 451.377 69.2793 451.551C70.8735 452.268 72.5305 452.762 74.2179 453.024C75.9064 453.34 77.6209 453.403 79.3223 453.212C77.7156 452.492 76.0453 451.998 74.3447 451.739H74.3838ZM121.603 328.662C120.228 329.896 118.974 331.315 117.865 332.891C119.422 332.036 120.895 330.973 122.257 329.722C123.629 328.493 124.874 327.069 125.965 325.481C124.419 326.345 122.956 327.411 121.603 328.662V328.662ZM133.764 391.72C132.392 392.937 131.147 394.349 130.055 395.926C131.607 395.076 133.072 394.008 134.418 392.745C135.791 391.531 137.037 390.119 138.126 388.54C136.575 389.401 135.111 390.477 133.764 391.744V391.72ZM91.1222 430.265C89.7427 431.479 88.4936 432.896 87.4036 434.482C88.9504 433.619 90.4135 432.552 91.7663 431.301C93.1384 430.072 94.3922 428.661 95.5044 427.096C93.9375 427.932 92.465 429.004 91.1222 430.288V430.265ZM161.941 374.816C160.931 373.152 159.761 371.637 158.456 370.304C159.9 374.049 161.986 377.382 164.576 380.082C163.875 378.213 162.99 376.453 161.941 374.84V374.816ZM147.408 446.168C146.39 444.511 145.221 442.998 143.924 441.656C144.608 443.547 145.49 445.325 146.549 446.945C147.558 448.604 148.727 450.111 150.034 451.433C149.322 449.567 148.441 447.801 147.408 446.168V446.168ZM104.62 390.048C103.607 388.386 102.438 386.872 101.136 385.536C101.828 387.425 102.713 389.202 103.771 390.825C104.777 392.487 105.947 393.994 107.255 395.313C106.545 393.444 105.661 391.677 104.62 390.048V390.048Z" fill="white"/>
<path d="M101.936 315.798C80.0835 337.061 24.1197 421.323 36.7394 440.796C49.359 460.268 133.236 451.398 157.588 442.186C164.83 439.453 145.075 383.981 137.248 381.425C130.728 379.292 94.5771 392.192 93.8744 389.671C93.0838 386.82 102.805 371.046 115.161 336.873C129.411 297.457 111.589 306.41 101.936 315.798Z" fill="#EB9481"/>
<path d="M176.727 376.795C193.426 379.151 197.418 382.815 212.38 375.747C222.199 371.117 228.865 376.689 221.682 386.69C209.97 403.053 187.873 405.538 180.016 403.701L176.727 376.795Z" fill="#EB9481"/>
<path d="M129.889 382.131C129.889 382.131 150.609 375.664 168.607 376.018C181.06 376.265 208.096 380.447 226.444 419.45C230.797 428.698 231.568 445.614 219.905 433.586C211.629 425.07 208.515 416.647 202.952 412.748C202.952 412.748 201.81 434.388 193.963 439.3C187.1 443.583 179.993 447.271 172.696 450.338C171.923 448.855 171.232 447.312 170.627 445.72C170.627 445.72 162.936 449.466 151.107 444.271L129.889 382.131Z" fill="#EB9481"/>
<path d="M180.465 378.55C185.345 383.828 195.417 395.207 200.961 408C207.168 422.207 215.952 451.586 207.217 457.017C200.815 460.999 196.637 450.126 196.637 450.126C196.637 450.126 198.15 463.201 191.757 465.263C185.901 467.148 183.081 458.501 183.081 458.501C183.081 458.501 182.866 466.618 176.932 467.124C169.788 467.713 171.408 450.632 163.736 443.67C162.009 442.103 180.465 378.55 180.465 378.55Z" fill="#EB9481"/>
<path d="M187.473 413.478C191.377 419.368 197.34 435.389 196.833 449.914C196.833 450.243 196.608 450.408 196.569 450.102C194.738 437.524 191.648 425.262 187.366 413.584C187.354 413.567 187.348 413.545 187.35 413.523C187.352 413.501 187.361 413.48 187.375 413.466C187.39 413.452 187.408 413.446 187.426 413.448C187.444 413.45 187.461 413.461 187.473 413.478V413.478Z" fill="#263238"/>
<path d="M175.77 421.394C178.698 426.872 184.252 443.776 183.315 458.442C183.315 458.772 183.071 458.913 183.042 458.607C181.752 445.925 179.273 433.46 175.653 421.453C175.653 421.437 175.657 421.42 175.665 421.407C175.672 421.393 175.683 421.382 175.695 421.376C175.708 421.369 175.722 421.368 175.735 421.371C175.749 421.374 175.761 421.382 175.77 421.394Z" fill="#263238"/>
<path d="M202.981 412.653C207.861 416.187 210.584 420.346 214.215 425.446C215.99 428.001 217.879 430.435 219.876 432.738C221.711 434.8 224.414 437.898 227.167 436.425C228.699 435.601 229.119 433.386 229.245 431.549C229.366 429.482 229.116 427.409 228.513 425.47C228.513 425.376 228.631 425.305 228.66 425.411C229.259 427.122 229.653 428.926 229.831 430.771C230.063 432.505 229.855 434.283 229.236 435.872C227.713 439.123 224.2 438.51 221.994 436.802C220.689 435.712 219.476 434.469 218.373 433.092C217.289 431.808 216.255 430.465 215.25 429.098C213.19 426.271 211.268 423.314 209.237 420.475C207.248 417.768 205.116 415.218 202.854 412.842C202.767 412.748 202.884 412.583 202.981 412.653Z" fill="#263238"/>
<path d="M209.189 438.405C208.613 434.364 204.475 417 202.835 412.771C202.825 412.749 202.822 412.723 202.827 412.699C202.833 412.675 202.846 412.654 202.864 412.642C202.882 412.629 202.904 412.626 202.924 412.632C202.944 412.639 202.961 412.655 202.972 412.677C206.066 418.649 209.97 433.151 210.653 437.615C211.336 442.08 211.99 447.605 211.043 451.999C209.618 458.619 205.714 458.737 204.299 458.643C202.627 458.495 201.047 457.664 199.819 456.287C198.421 454.526 197.332 452.443 196.618 450.161C196.618 450.055 196.706 449.961 196.755 450.067C198.101 453.271 200.707 456.84 203.792 457.3C204.474 457.427 205.172 457.389 205.842 457.187C206.513 456.984 207.143 456.622 207.696 456.122C208.854 454.783 209.572 452.984 209.716 451.056C210.141 446.834 209.963 442.554 209.189 438.405V438.405Z" fill="#263238"/>
<path d="M183.315 458.442C183.91 459.467 184.896 462.707 187.268 464.073C188.093 464.64 189.019 464.957 189.968 464.996C190.917 465.035 191.859 464.795 192.714 464.297C194.344 463.075 195.517 461.136 195.983 458.89C196.378 456.016 196.59 453.109 196.618 450.196C196.618 450.055 196.764 450.043 196.774 450.196C197.078 453.356 196.986 456.553 196.501 459.679C196.271 460.904 195.842 462.061 195.237 463.083C194.632 464.105 193.863 464.97 192.977 465.628C192.039 466.247 190.977 466.54 189.909 466.476C188.841 466.411 187.809 465.991 186.926 465.263C186.038 464.521 183.461 461.163 183.022 458.525C183.032 458.442 183.286 458.395 183.315 458.442Z" fill="#263238"/>
<path d="M164.488 442.634C165.194 443.577 165.806 444.617 166.313 445.732C166.889 446.91 167.435 448.029 167.953 449.207C168.981 451.587 169.802 454.09 170.402 456.675C171.027 459.267 171.515 462.094 172.989 464.226C173.679 465.28 174.626 466.046 175.696 466.414C176.767 466.781 177.906 466.733 178.952 466.276C180.06 465.745 180.981 464.766 181.558 463.508C182.227 462.15 182.674 460.651 182.876 459.09C182.871 459.076 182.87 459.061 182.872 459.046C182.873 459.03 182.878 459.016 182.885 459.004C182.892 458.991 182.902 458.981 182.913 458.974C182.924 458.967 182.936 458.963 182.949 458.963C182.962 458.963 182.974 458.967 182.985 458.974C182.996 458.981 183.006 458.991 183.013 459.004C183.02 459.016 183.025 459.03 183.026 459.046C183.028 459.061 183.027 459.076 183.022 459.09C182.939 460.505 182.736 461.907 182.417 463.272C182.048 464.499 181.419 465.588 180.592 466.429C179.725 467.228 178.693 467.724 177.608 467.861C176.523 467.998 175.428 467.772 174.443 467.207C172.257 466.029 171.027 463.366 170.266 460.728C169.417 457.794 168.851 454.767 167.884 451.869C167.387 450.338 166.908 448.806 166.303 447.334C165.698 445.861 164.859 444.33 164.351 442.751C164.293 442.657 164.41 442.527 164.488 442.634Z" fill="#263238"/>
<path d="M156.866 446.285C159.951 446.824 163.072 447.009 166.186 446.839C166.284 446.839 166.343 447.181 166.245 447.204C164.701 447.553 163.13 447.699 161.56 447.64C159.968 447.559 158.396 447.19 156.895 446.544C156.768 446.462 156.768 446.262 156.866 446.285Z" fill="#263238"/>
<path d="M61.0319 402.287C66.2493 399.248 71.6409 396.665 77.1652 394.559C82.6317 392.497 88.2164 390.922 93.8743 389.847C97.1048 389.199 100.345 388.74 103.634 388.257C103.732 388.257 103.751 388.422 103.634 388.434C97.9493 389.544 92.3216 391.047 86.7788 392.934C81.2611 394.748 75.776 396.684 70.3234 398.741C67.2392 399.919 64.1941 401.239 61.1392 402.523C61.0319 402.617 60.9343 402.369 61.0319 402.287Z" fill="#263238"/>
<path d="M56.2788 366.959L102.531 373.026C102.531 373.026 114.331 347.11 120.47 323.231C126.609 299.353 109.178 303.995 88.8089 327.142C68.4398 350.29 56.2788 366.959 56.2788 366.959Z" fill="#008DB9"/>
<path d="M56.2788 366.959L102.531 373.026C102.531 373.026 114.331 347.11 120.47 323.231C126.609 299.353 109.178 303.995 88.8089 327.142C68.4398 350.29 56.2788 366.959 56.2788 366.959Z" fill="#008DB9"/>
<path d="M106.728 310.992C106.733 311.051 106.733 311.11 106.728 311.169C106.481 313.208 106.428 315.276 106.572 317.33C107.178 315.398 107.588 313.385 107.792 311.334C107.792 310.98 107.87 310.639 107.899 310.285L106.728 310.992ZM82.5039 366.358C82.0803 367.643 81.7536 368.972 81.5279 370.328L82.5039 370.446C82.6112 369.086 82.6112 367.717 82.5039 366.358V366.358ZM66.4585 353.789L66.0095 354.354C66.517 354.354 66.9855 354.354 67.5418 354.248C67.171 354.071 66.8196 353.918 66.4585 353.789ZM107.968 357.712C108.241 357.841 108.524 357.971 108.807 358.077C108.858 357.923 108.916 357.774 108.983 357.629C108.651 357.641 108.309 357.664 107.968 357.712V357.712ZM93.4644 341.95C92.4461 340.294 91.2774 338.78 89.9801 337.438C90.6664 339.332 91.5485 341.113 92.6055 342.739C93.6166 344.392 94.7862 345.894 96.0898 347.216C95.3743 345.351 94.4941 343.586 93.4644 341.95V341.95Z" fill="white"/>
<path d="M100.658 372.507C100.911 372.507 102.61 372.507 102.61 372.507C102.815 371.789 106.797 360.727 107.773 358.371C109.783 353.53 112.028 348.818 114.214 344.094C114.283 343.941 114.478 344.094 114.409 344.2C112.867 348.323 111.384 352.446 109.813 356.592C110.203 356.039 110.593 355.485 110.974 354.92C111.745 353.742 112.448 352.564 113.18 351.315C113.248 351.209 113.385 351.315 113.336 351.445C112.637 353.149 111.755 354.733 110.71 356.157C110.267 356.782 109.788 357.368 109.276 357.912C109.149 358.253 109.022 358.607 108.885 358.937C107.909 361.293 103.098 373.167 102.922 373.155L100.697 372.825C100.531 372.872 100.531 372.495 100.658 372.507Z" fill="#263238"/>
<path d="M64.9946 357.476C75.0279 358.289 85.0319 359.95 94.9773 361.834C97.8012 362.376 100.606 362.993 103.39 363.684C103.469 363.684 103.469 363.849 103.39 363.837C98.3933 363.307 93.406 362.529 88.4186 361.787C83.4312 361.045 78.4049 360.244 73.4175 359.29C70.6066 358.772 67.786 358.253 64.9849 357.676C64.8677 357.688 64.8677 357.464 64.9946 357.476Z" fill="#263238"/>
<path d="M118.157 307.576C118.333 310.026 125.887 327.06 134.935 328.108C137.863 328.438 140.117 309.107 140.117 309.107L140.547 307.729L146.627 288.386L128.962 269.95L126.395 267.477C126.395 267.477 125.019 272.895 123.369 279.669C123.291 279.987 123.203 280.305 123.125 280.635C123.047 280.965 122.93 281.377 122.842 281.73C122.588 282.744 122.325 283.768 122.091 284.805C121.905 285.594 121.72 286.36 121.544 287.161C121.368 287.962 121.193 288.81 120.997 289.635C119.713 295.53 118.764 301.524 118.157 307.576V307.576Z" fill="#EB9481"/>
<path d="M123.369 279.669C124.375 285.57 126.432 291.136 129.399 295.981C132.365 300.827 136.169 304.835 140.547 307.729L146.627 288.386L128.962 269.95L126.395 267.477C126.395 267.477 125.019 272.895 123.369 279.669Z" fill="#263238"/>
<path d="M151.976 258.677C153.528 266.923 159.676 272.354 165.708 270.716C171.74 269.079 175.361 261.009 173.809 252.716C172.257 244.423 166.108 239.028 160.077 240.677C154.045 242.326 150.424 250.372 151.976 258.677Z" fill="#455A64"/>
<path d="M148.53 260.161C150.268 269.385 157.1 275.381 163.815 273.555C170.53 271.729 174.551 262.765 172.823 253.529C171.096 244.294 164.254 238.309 157.549 240.135C150.844 241.961 146.803 250.914 148.53 260.161Z" fill="#C7C7C7"/>
<path d="M168.265 248.358C176.464 283.285 160.057 293.122 153.811 295.289C148.14 297.221 128.64 302.923 117.494 269.197C106.348 235.47 117.211 219.827 129.977 214.585C142.743 209.342 160.067 213.418 168.265 248.358Z" fill="#EB9481"/>
<path d="M158.193 243.964C157.505 244.046 156.814 244.082 156.124 244.07C155.397 244.237 154.646 244.109 153.986 243.705C153.798 243.53 153.664 243.284 153.604 243.007C153.544 242.73 153.562 242.437 153.654 242.173C153.903 241.688 154.256 241.292 154.674 241.027C155.093 240.762 155.563 240.637 156.036 240.665C156.997 240.536 157.964 240.843 158.749 241.525C158.918 241.696 159.044 241.923 159.109 242.177C159.175 242.432 159.179 242.703 159.12 242.96C159.062 243.217 158.943 243.449 158.779 243.627C158.614 243.804 158.411 243.922 158.193 243.964V243.964Z" fill="#263238"/>
<path d="M139.112 252.092C139.775 251.844 140.427 251.553 141.064 251.22C141.787 251.028 142.438 250.556 142.918 249.877C143.032 249.626 143.075 249.337 143.04 249.054C143.005 248.771 142.893 248.51 142.723 248.311C142.336 247.982 141.883 247.783 141.412 247.736C140.94 247.688 140.466 247.793 140.039 248.04C139.113 248.376 138.324 249.115 137.824 250.113C137.721 250.348 137.677 250.615 137.697 250.88C137.717 251.145 137.8 251.397 137.936 251.607C138.072 251.816 138.256 251.973 138.465 252.059C138.673 252.145 138.898 252.157 139.112 252.092V252.092Z" fill="#263238"/>
<path d="M144.968 258.253C144.968 258.159 144.841 258.418 144.87 258.512C145.495 260.868 145.846 263.695 144.285 265.097C144.236 265.097 144.285 265.25 144.334 265.227C146.403 264.108 145.856 260.338 144.968 258.253Z" fill="#263238"/>
<path d="M142.606 256.368C139.366 257.169 140.927 264.92 143.933 264.178C146.94 263.436 145.319 255.697 142.606 256.368Z" fill="#263238"/>
<path d="M141.425 257.146C140.957 257.758 140.557 258.689 139.903 258.972C139.249 259.254 138.38 258.654 137.716 258.017C137.648 257.958 137.599 258.017 137.619 258.147C137.902 259.631 138.683 261.021 140.049 260.856C141.415 260.691 141.894 259.136 141.894 257.546C141.903 257.252 141.62 256.91 141.425 257.146Z" fill="#263238"/>
<path d="M156.377 254C156.377 253.906 156.563 254.071 156.573 254.165C156.983 256.592 157.783 259.29 159.745 259.572C159.803 259.572 159.823 259.702 159.745 259.714C157.48 259.961 156.446 256.368 156.377 254Z" fill="#263238"/>
<path d="M157.656 250.985C160.799 249.807 162.536 257.464 159.608 258.583C156.68 259.702 155.031 251.986 157.656 250.985Z" fill="#263238"/>
<path d="M159.12 251.044C159.715 251.279 160.379 251.856 160.994 251.703C161.609 251.55 162.029 250.525 162.292 249.571C162.292 249.477 162.39 249.571 162.409 249.571C162.78 251.032 162.731 252.693 161.619 253.364C160.506 254.036 159.54 252.976 158.915 251.609C158.798 251.421 158.876 250.914 159.12 251.044Z" fill="#263238"/>
<path d="M149.477 277.619C150.043 278.079 150.648 278.797 151.429 278.644C152.176 278.449 152.88 278.068 153.498 277.525C153.51 277.508 153.527 277.497 153.545 277.495C153.563 277.493 153.581 277.499 153.596 277.513C153.61 277.527 153.619 277.548 153.621 277.57C153.623 277.592 153.617 277.614 153.605 277.631C153.394 278.176 153.065 278.641 152.653 278.979C152.241 279.317 151.76 279.515 151.263 279.551C150.828 279.525 150.409 279.341 150.06 279.024C149.712 278.707 149.451 278.271 149.311 277.772C149.243 277.643 149.389 277.56 149.477 277.619Z" fill="#263238"/>
<path d="M156.026 265.651C156.026 265.651 157.187 269.102 157.549 270.787C157.549 270.952 152.747 273.779 149.643 270.316C149.611 270.289 149.588 270.248 149.581 270.202C149.574 270.155 149.582 270.107 149.604 270.068C149.626 270.029 149.66 270.002 149.698 269.993C149.737 269.985 149.777 269.995 149.809 270.021C151.902 270.941 154.186 271.02 156.319 270.245C156.319 269.75 154.152 264.414 154.367 264.355C155.477 264.135 156.606 264.095 157.724 264.237C155.46 256.969 152.259 250.195 150.102 242.904C150.083 242.85 150.081 242.789 150.097 242.734C150.113 242.678 150.145 242.632 150.188 242.604C150.231 242.576 150.281 242.568 150.328 242.582C150.375 242.596 150.416 242.631 150.443 242.68C154.22 249.5 156.973 257.805 159.462 265.238C159.793 266.146 156.68 265.769 156.026 265.651Z" fill="#263238"/>
<path d="M156.309 271.058C155.791 272.621 154.951 274 153.869 275.063C153.262 275.613 152.529 275.925 151.771 275.958C150.102 275.958 149.662 274.297 149.604 272.731C149.58 271.901 149.636 271.071 149.77 270.257C151.822 271.361 154.114 271.642 156.309 271.058V271.058Z" fill="#263238"/>
<path d="M153.869 275.063C153.262 275.613 152.53 275.925 151.771 275.958C150.102 275.958 149.663 274.297 149.604 272.731C151.312 272.365 153.264 273.166 153.869 275.063Z" fill="#FF99BA"/>
<path d="M118.889 268.03C124.492 268.466 125.136 252.999 125.136 252.999C125.136 252.999 148.56 246.414 149.399 222.995C149.399 222.995 154.211 237.532 166.967 243.328C166.967 243.328 164.849 217.883 147.847 214.16C147.847 214.16 126.59 206.551 115.903 227.33C105.216 248.11 115.132 267.736 118.889 268.03Z" fill="#263238"/>
<path d="M149.399 221.264C149.862 224.837 149.685 228.488 148.882 231.972C148.123 235.512 146.76 238.823 144.88 241.69C144.419 242.411 143.92 243.096 143.387 243.74L142.606 244.741C142.333 245.048 142.04 245.33 141.747 245.625C141.162 246.19 140.596 246.803 139.99 247.333C139.385 247.863 138.722 248.299 138.038 248.77C137.716 248.994 137.404 249.241 137.062 249.453L136.086 250.019L134.047 251.138C132.641 251.727 131.216 252.222 129.801 252.693C131.119 251.88 132.485 251.232 133.783 250.419L135.686 249.123L136.662 248.476C136.965 248.24 137.248 247.969 137.541 247.71C138.126 247.192 138.712 246.685 139.307 246.19C139.903 245.696 140.381 245.012 140.918 244.482L141.728 243.622L142.45 242.656C142.946 242.038 143.413 241.385 143.846 240.701C145.619 237.97 146.996 234.894 147.916 231.607C148.386 229.956 148.745 228.262 148.989 226.541C149.249 224.799 149.386 223.034 149.399 221.264V221.264Z" fill="#263238"/>
<path d="M123.067 267.665C123.067 267.665 114.849 258.017 111.111 261.775C107.372 265.533 114.78 280.541 120.041 281.601C120.708 281.794 121.4 281.823 122.076 281.685C122.752 281.548 123.398 281.246 123.975 280.8C124.552 280.353 125.048 279.77 125.434 279.086C125.82 278.401 126.087 277.63 126.219 276.818L123.067 267.665Z" fill="#EB9481"/>
<path d="M113.326 266.004C113.308 266.004 113.291 266.013 113.278 266.028C113.265 266.044 113.258 266.065 113.258 266.087C113.258 266.109 113.265 266.13 113.278 266.145C113.291 266.16 113.308 266.169 113.326 266.169C117.045 267.053 119.465 270.492 121.378 274.191C120.109 272.896 118.577 272.377 117.103 274.191C117.025 274.297 117.103 274.439 117.23 274.392C117.8 274.021 118.451 273.872 119.094 273.965C119.737 274.057 120.34 274.387 120.822 274.91C121.623 275.787 122.343 276.767 122.969 277.831C123.184 278.173 123.711 277.831 123.525 277.443L123.477 277.348C122.715 272.118 118.118 265.451 113.326 266.004Z" fill="#263238"/>
<path d="M117.445 262.753C117.445 262.753 112.116 245.613 113.96 234.422C116.01 221.959 128.805 207.74 143.436 213.065C143.436 213.065 126.034 216.21 119.885 233.091C117.054 240.866 122.403 261.445 122.403 261.445L117.445 262.753Z" fill="#C7C7C7"/>
<path d="M125.664 287.181C132.122 284.753 135.499 275.578 133.205 266.69C130.911 257.801 123.816 252.563 117.357 254.991C110.898 257.419 107.522 266.594 109.816 275.482C112.109 284.371 119.205 289.609 125.664 287.181Z" fill="#C7C7C7"/>
<path d="M129.684 267.406C131.743 275.393 128.708 283.639 122.852 285.818C116.996 287.997 110.671 283.297 108.602 275.31C106.533 267.324 109.578 259.078 115.434 256.886C121.29 254.695 127.624 259.466 129.684 267.406Z" fill="#455A64"/>
<path d="M140.478 307.847L135.11 324.197L118.226 303.641L113.492 310.285C113.492 310.285 130.084 343.01 130.142 341.526L135.667 327.39L143.748 337.132L143.016 312.606L140.478 307.847Z" fill="#EBEBEB"/>
<path d="M143.992 324.998C143.748 320.958 143.611 316.858 143.221 312.83C143.221 312.688 143.016 312.629 142.987 312.83C142.333 316.741 143.299 332.231 143.299 335.942C142.967 335.518 135.813 327.366 135.745 327.496C134.544 329.734 130.494 340.006 130.221 340.937C127.595 335.742 116.488 315.256 113.394 310.309C113.376 310.286 113.352 310.272 113.326 310.268C113.3 310.264 113.273 310.271 113.251 310.287C113.228 310.303 113.211 310.328 113.202 310.358C113.192 310.387 113.191 310.42 113.199 310.45C115.512 315.94 129.859 342.975 130.064 342.904C132.199 338.058 134.127 333.085 135.842 328.002C137.053 329.781 144.275 338.981 144.295 338.381C144.385 333.917 144.284 329.45 143.992 324.998Z" fill="#263238"/>
<path d="M238.157 198.905C237.571 205.682 235.437 212.128 231.992 217.526C228.547 222.923 223.927 227.059 218.649 229.472C213.37 231.885 207.639 232.48 202.096 231.191C196.553 229.902 191.416 226.779 187.258 222.171L172.013 224.868L179.645 208.965C177.918 203.793 177.188 198.213 177.511 192.65C177.835 187.086 179.202 181.684 181.511 176.853C183.819 172.022 187.008 167.888 190.836 164.764C194.664 161.64 199.031 159.608 203.606 158.823C208.18 158.037 212.843 158.517 217.241 160.228C221.639 161.939 225.657 164.835 228.991 168.697C232.325 172.559 234.887 177.285 236.483 182.519C238.08 187.753 238.669 193.356 238.205 198.905H238.157Z" fill="white"/>
<path d="M238.157 198.905C237.567 205.685 235.439 212.138 232.008 217.553C230.322 220.258 228.309 222.641 226.035 224.621C223.789 226.675 221.315 228.337 218.685 229.557C216.054 230.799 213.291 231.592 210.477 231.913C209.072 232.068 207.66 232.099 206.251 232.007C204.836 231.967 203.426 231.789 202.035 231.477C196.413 230.256 191.185 227.168 186.936 222.56L187.297 222.689L172.072 225.516L170.969 225.717L171.525 224.539L179.128 208.6V209.236C177.34 203.965 176.581 198.268 176.907 192.586C177.234 186.903 178.638 181.387 181.012 176.464C183.382 171.56 186.642 167.367 190.547 164.201C194.449 161.083 198.886 159.07 203.524 158.315C208.162 157.561 212.882 158.083 217.329 159.843C221.722 161.654 225.723 164.629 229.041 168.548C232.363 172.447 234.909 177.205 236.488 182.463C238.067 187.721 238.637 193.343 238.157 198.905ZM238.157 198.905C238.643 193.367 238.07 187.769 236.482 182.54C234.893 177.312 232.331 172.594 228.993 168.749C225.655 164.905 221.63 162.037 217.228 160.366C212.827 158.695 208.167 158.266 203.606 159.112C199.088 159.932 194.785 161.987 191.026 165.12C187.302 168.272 184.192 172.364 181.91 177.112C179.664 181.877 178.343 187.195 178.045 192.665C177.748 198.135 178.482 203.616 180.192 208.694L180.299 209.024L180.153 209.319L172.482 225.198L171.935 224.22L187.19 221.641H187.405L187.551 221.817C191.639 226.423 196.708 229.563 202.191 230.888C203.552 231.218 204.932 231.419 206.319 231.489C207.707 231.607 209.1 231.607 210.487 231.489C213.27 231.227 216.009 230.501 218.627 229.333C221.26 228.188 223.737 226.576 225.976 224.55C228.265 222.583 230.287 220.199 231.969 217.482C235.41 212.096 237.552 205.668 238.157 198.905Z" fill="#263238"/>
<path d="M221.155 200.649C223.192 200.649 224.844 198.655 224.844 196.196C224.844 193.737 223.192 191.743 221.155 191.743C219.117 191.743 217.465 193.737 217.465 196.196C217.465 198.655 219.117 200.649 221.155 200.649Z" fill="#263238"/>
<path d="M207.93 200.649C209.967 200.649 211.619 198.655 211.619 196.196C211.619 193.737 209.967 191.743 207.93 191.743C205.892 191.743 204.24 193.737 204.24 196.196C204.24 198.655 205.892 200.649 207.93 200.649Z" fill="#263238"/>
<path d="M194.715 200.649C196.752 200.649 198.404 198.655 198.404 196.196C198.404 193.737 196.752 191.743 194.715 191.743C192.677 191.743 191.026 193.737 191.026 196.196C191.026 198.655 192.677 200.649 194.715 200.649Z" fill="#263238"/>
<path d="M541.224 198.905C540.638 205.682 538.504 212.128 535.059 217.526C531.614 222.923 526.995 227.059 521.716 229.472C516.437 231.885 510.706 232.48 505.163 231.191C499.621 229.902 494.484 226.779 490.326 222.171L475.081 224.868L482.703 208.965C480.968 203.79 480.233 198.206 480.552 192.636C480.871 187.066 482.236 181.657 484.544 176.819C486.853 171.981 490.043 167.841 493.875 164.712C497.706 161.584 502.077 159.549 506.656 158.762C511.235 157.976 515.903 158.458 520.305 160.172C524.708 161.886 528.729 164.787 532.064 168.656C535.399 172.525 537.96 177.259 539.554 182.5C541.148 187.741 541.733 193.351 541.263 198.905H541.224Z" fill="white"/>
<path d="M541.224 198.905C540.63 205.684 538.503 212.135 535.075 217.553C534.218 218.894 533.296 220.172 532.313 221.382C531.297 222.556 530.221 223.654 529.092 224.668C526.85 226.727 524.375 228.389 521.743 229.604C519.115 230.847 516.355 231.64 513.545 231.96C512.136 232.115 510.721 232.147 509.309 232.054C507.894 232.013 506.484 231.836 505.092 231.524C499.476 230.279 494.258 227.171 490.023 222.548L490.384 222.677L475.159 225.505L474.056 225.705L474.612 224.527L482.196 208.588V209.225C480.409 203.953 479.648 198.257 479.973 192.575C480.298 186.894 481.699 181.378 484.069 176.453C486.443 171.547 489.707 167.355 493.615 164.19C497.517 161.071 501.953 159.059 506.591 158.304C511.23 157.549 515.949 158.071 520.396 159.831C524.79 161.641 528.792 164.616 532.108 168.536C535.433 172.435 537.982 177.194 539.561 182.455C541.14 187.716 541.709 193.341 541.224 198.905ZM541.224 198.905C541.711 193.368 541.138 187.769 539.549 182.54C537.96 177.312 535.398 172.594 532.06 168.749C528.722 164.905 524.697 162.037 520.296 160.366C515.894 158.695 511.234 158.266 506.674 159.112C502.155 159.932 497.852 161.987 494.093 165.12C490.37 168.272 487.259 172.364 484.977 177.112C482.716 181.875 481.381 187.196 481.073 192.674C480.786 198.14 481.517 203.614 483.211 208.694L483.328 209.024L483.181 209.319L475.51 225.198L474.963 224.22L490.218 221.641H490.433L490.579 221.817C494.654 226.413 499.705 229.553 505.171 230.888C506.532 231.218 507.912 231.419 509.299 231.489C510.687 231.607 512.079 231.607 513.467 231.489C516.249 231.227 518.989 230.501 521.606 229.333C524.239 228.186 526.715 226.574 528.956 224.55C531.239 222.579 533.257 220.195 534.939 217.482C538.419 212.112 540.595 205.681 541.224 198.905Z" fill="#263238"/>
<path d="M524.173 200.649C526.211 200.649 527.863 198.655 527.863 196.196C527.863 193.737 526.211 191.743 524.173 191.743C522.136 191.743 520.484 193.737 520.484 196.196C520.484 198.655 522.136 200.649 524.173 200.649Z" fill="#263238"/>
<path d="M510.958 200.649C512.996 200.649 514.648 198.655 514.648 196.196C514.648 193.737 512.996 191.743 510.958 191.743C508.921 191.743 507.269 193.737 507.269 196.196C507.269 198.655 508.921 200.649 510.958 200.649Z" fill="#263238"/>
<path d="M501.433 196.196C501.435 197.077 501.22 197.939 500.816 198.673C500.411 199.407 499.836 199.979 499.162 200.318C498.488 200.657 497.746 200.747 497.03 200.576C496.313 200.406 495.655 199.983 495.138 199.36C494.621 198.738 494.269 197.945 494.126 197.081C493.983 196.217 494.055 195.321 494.334 194.506C494.613 193.692 495.086 192.996 495.693 192.506C496.3 192.016 497.013 191.755 497.743 191.755C498.72 191.755 499.657 192.222 500.349 193.055C501.04 193.887 501.43 195.017 501.433 196.196Z" fill="#263238"/>
<path d="M187.717 459.62H181.188V464.768H187.717V459.62Z" fill="#455A64"/>
<path d="M196.189 459.279H189.659V464.427H196.189V459.279Z" fill="#455A64"/>
<path d="M204.66 458.937H198.131V464.085H204.66V458.937Z" fill="#455A64"/>
<path d="M213.122 458.595H206.593V463.743H213.122V458.595Z" fill="#455A64"/>
<path d="M221.594 458.254H215.064V463.402H221.594V458.254Z" fill="#455A64"/>
<path d="M230.066 457.924H223.536V463.072H230.066V457.924Z" fill="#455A64"/>
<path d="M238.527 457.582H231.998V462.73H238.527V457.582Z" fill="#455A64"/>
<path d="M246.999 457.241H240.47V462.389H246.999V457.241Z" fill="#455A64"/>
<path d="M255.461 456.899H248.932V462.047H255.461V456.899Z" fill="#455A64"/>
<path d="M257.062 467.725H179.587V461.458L257.062 458.855V467.725Z" fill="#B92C00"/>
<path d="M332.682 443.034H204.787L225.127 328.108H353.022L332.682 443.034Z" fill="#455A64"/>
<path d="M337.416 443.034H209.511L229.851 328.108H357.756L337.416 443.034Z" fill="#B92C00"/>
<path d="M294.686 378.915C294.294 381.532 293.17 383.906 291.502 385.643C289.835 387.38 287.723 388.373 285.522 388.457C284.528 388.495 283.541 388.26 282.633 387.77C281.726 387.28 280.922 386.549 280.282 385.631C279.643 384.712 279.184 383.631 278.94 382.468C278.696 381.305 278.674 380.09 278.875 378.915C279.263 376.298 280.384 373.921 282.051 372.182C283.717 370.443 285.828 369.447 288.03 369.362C289.025 369.322 290.015 369.556 290.925 370.046C291.834 370.535 292.64 371.267 293.281 372.187C293.922 373.107 294.381 374.191 294.625 375.356C294.868 376.522 294.889 377.739 294.686 378.915Z" fill="#263238"/>
<path d="M301.245 473.049H238.342V467.148L301.245 464.697V473.049Z" fill="#455A64"/>
<path d="M318.345 473.038H284.565L264.226 408.636H298.005L318.345 473.038Z" fill="#455A64"/>
<path d="M323.898 473.038H290.129L269.789 408.636H303.558L323.898 473.038Z" fill="#263238"/>
<path d="M177.176 474.616H112.35C106.816 474.616 114.819 455.591 135.023 448.3C155.226 441.008 183.569 467.478 177.176 474.616Z" fill="#B92C00"/>
<path d="M151.8 474.616C151.844 472.449 152.139 470.3 152.678 468.231C153.199 466.141 153.93 464.135 154.855 462.259C155.782 460.372 156.944 458.667 158.3 457.205C159.645 455.755 161.191 454.602 162.868 453.801C162.175 454.484 161.384 454.979 160.75 455.721L159.774 456.746L158.857 457.924C157.658 459.439 156.606 461.115 155.724 462.919C154.826 464.722 154.055 466.614 153.42 468.573C152.769 470.542 152.228 472.56 151.8 474.616Z" fill="#263238"/>
<path d="M159.432 456.51C163.29 457.984 166.94 460.157 170.256 462.954C171.935 464.354 173.454 466.013 174.775 467.89C176.161 469.757 177.004 472.118 177.176 474.616C176.639 472.313 175.609 470.221 174.189 468.55C172.807 466.85 171.294 465.311 169.671 463.955C168.06 462.554 166.372 461.293 164.654 460.056C162.936 458.819 161.209 457.653 159.432 456.51Z" fill="#263238"/>
<path d="M487.212 459.62H480.683V464.768H487.212V459.62Z" fill="#455A64"/>
<path d="M495.684 459.279H489.155V464.427H495.684V459.279Z" fill="#455A64"/>
<path d="M504.156 458.937H497.626V464.085H504.156V458.937Z" fill="#455A64"/>
<path d="M512.618 458.595H506.088V463.743H512.618V458.595Z" fill="#455A64"/>
<path d="M521.089 458.254H514.56V463.402H521.089V458.254Z" fill="#455A64"/>
<path d="M529.561 457.924H523.031V463.072H529.561V457.924Z" fill="#455A64"/>
<path d="M538.023 457.582H531.493V462.73H538.023V457.582Z" fill="#455A64"/>
<path d="M546.495 457.241H539.965V462.389H546.495V457.241Z" fill="#455A64"/>
<path d="M554.966 456.899H548.437V462.047H554.966V456.899Z" fill="#455A64"/>
<path d="M556.567 467.725H479.092V461.458L556.567 458.855V467.725Z" fill="#B92C00"/>
<path d="M632.177 443.034H504.282L524.622 328.108H652.517L632.177 443.034Z" fill="#455A64"/>
<path d="M636.911 443.034H509.016L529.356 328.108H657.251L636.911 443.034Z" fill="#B92C00"/>
<path d="M594.182 378.915C593.79 381.53 592.668 383.903 591.002 385.639C589.336 387.376 587.227 388.37 585.027 388.457C584.033 388.496 583.044 388.263 582.135 387.774C581.227 387.285 580.422 386.554 579.781 385.636C579.14 384.717 578.68 383.635 578.436 382.471C578.192 381.307 578.169 380.091 578.371 378.915C578.76 376.299 579.882 373.923 581.548 372.184C583.214 370.446 585.324 369.449 587.526 369.362C588.521 369.322 589.511 369.556 590.42 370.046C591.33 370.535 592.135 371.267 592.776 372.187C593.417 373.107 593.877 374.191 594.12 375.356C594.364 376.522 594.385 377.739 594.182 378.915Z" fill="#263238"/>
<path d="M600.741 473.049H537.837V467.148L600.741 464.697V473.049Z" fill="#455A64"/>
<path d="M617.84 473.038H584.061L563.721 408.636H597.5L617.84 473.038Z" fill="#455A64"/>
<path d="M623.403 473.038H589.624L569.284 408.636H603.064L623.403 473.038Z" fill="#263238"/>
<path d="M476.701 474.616H411.845C406.312 474.616 414.315 455.591 434.518 448.3C454.721 441.008 483.064 467.478 476.701 474.616Z" fill="#B92C00"/>
<path d="M451.247 474.616C451.295 472.449 451.59 470.301 452.125 468.231C452.65 466.143 453.38 464.137 454.301 462.259C455.235 460.377 456.396 458.674 457.747 457.205C459.091 455.755 460.638 454.602 462.314 453.801C461.621 454.484 460.831 454.979 460.197 455.721L459.221 456.746L458.303 457.924C457.098 459.436 456.043 461.112 455.16 462.919C454.263 464.722 453.492 466.614 452.857 468.573C452.209 470.542 451.671 472.561 451.247 474.616Z" fill="#263238"/>
<path d="M458.928 456.51C462.785 457.984 466.435 460.157 469.752 462.954C471.431 464.357 472.953 466.016 474.28 467.89C475.662 469.744 476.511 472.086 476.701 474.569C476.16 472.265 475.126 470.173 473.704 468.502C472.321 466.803 470.808 465.264 469.186 463.908C467.585 462.506 465.887 461.246 464.169 460.009C462.451 458.772 460.714 457.653 458.928 456.51Z" fill="#263238"/>
</svg>
