<svg width="538" height="428" viewBox="0 0 538 428" fill="none" xmlns="http://www.w3.org/2000/svg">
<g clip-path="url(#clip0_85_39)">
<path d="M418.829 53.7149C410.445 58.0767 407.649 71.0023 411.576 76.6274C397.044 80.7764 404.59 104.553 428.344 105.883C452.099 107.213 470.18 98.9547 458.512 81.3216C470.054 66.5209 464.745 49.9915 454.628 51.8133C443.77 31.1083 407.412 31.72 418.829 53.7149Z" fill="#0A1B35"/>
<path d="M444.12 107.478C440.455 107.467 436.862 106.511 433.723 104.712C433.673 104.695 433.628 104.667 433.59 104.631C433.552 104.595 433.524 104.552 433.505 104.504C433.487 104.456 433.481 104.405 433.486 104.355C433.491 104.304 433.507 104.255 433.534 104.211C433.562 104.168 433.598 104.13 433.643 104.102C433.687 104.073 433.737 104.054 433.79 104.046C433.842 104.038 433.897 104.041 433.948 104.055C433.999 104.069 434.046 104.094 434.087 104.127C438.135 106.433 442.919 107.28 447.567 106.514C452.217 105.748 456.422 103.419 459.42 99.9516C463.235 95.4569 465.009 88.2494 458.344 81.5206C458.312 81.4883 458.288 81.4502 458.271 81.4087C458.254 81.3672 458.246 81.3229 458.248 81.2785C458.249 81.234 458.259 81.1902 458.278 81.1496C458.297 81.109 458.324 81.0724 458.358 81.0418C458.393 81.0113 458.433 80.9874 458.476 80.9715C458.52 80.9556 458.566 80.9481 458.612 80.9493C458.66 80.9506 458.706 80.9606 458.748 80.9787C458.791 80.9969 458.829 81.0228 458.861 81.0551C465.764 88.1031 463.962 95.6829 459.966 100.377C458.029 102.591 455.608 104.374 452.87 105.6C450.132 106.827 447.145 107.468 444.12 107.478Z" fill="#0A1B35"/>
<path d="M408.948 81.0421C408.877 81.0402 408.808 81.0176 408.75 80.9771C408.693 80.9367 408.65 80.8805 408.627 80.816C404.91 70.683 409.885 57.0791 418.673 53.3557C418.76 53.3267 418.853 53.3282 418.938 53.3599C419.023 53.3917 419.093 53.4516 419.135 53.5285C419.154 53.5687 419.163 53.6119 419.164 53.6557C419.165 53.6996 419.157 53.7431 419.14 53.7839C419.123 53.8247 419.098 53.8619 419.065 53.8934C419.034 53.9249 418.995 53.95 418.953 53.9674C410.457 57.5578 405.665 70.7495 409.284 80.5634C409.298 80.6053 409.305 80.6496 409.303 80.6939C409.299 80.7381 409.287 80.7813 409.266 80.821C409.245 80.8606 409.216 80.8959 409.181 80.9247C409.145 80.9536 409.104 80.9754 409.06 80.9889L408.948 81.0421Z" fill="#0A1B35"/>
<path d="M406.671 66.4018H406.545C406.46 66.3691 406.392 66.307 406.353 66.2281C406.314 66.1492 406.308 66.0593 406.335 65.9762C408.851 59.6331 413.601 54.8059 418.716 53.3697C418.805 53.3451 418.9 53.355 418.981 53.3974C419.063 53.4398 419.123 53.5112 419.149 53.5958C419.175 53.6805 419.165 53.7714 419.12 53.8488C419.076 53.9261 419 53.9834 418.912 54.008C414.007 55.3378 409.438 60.0586 406.993 66.2156C406.963 66.2726 406.917 66.3204 406.86 66.3534C406.804 66.3864 406.738 66.4032 406.671 66.4018Z" fill="#0A1B35"/>
<path d="M426.234 420.128L418.157 420.141L416.802 391.271L430.398 391.59L426.234 420.128Z" fill="#FED4C2"/>
<path d="M412.19 171.004C412.19 171.004 411.478 251.124 409.703 286.005C409.634 287.041 409.634 288.08 409.703 289.116C412.358 324.077 416.76 391.272 416.76 391.272L430.44 391.604C430.44 391.604 442.359 337.947 434.98 289.342C446.844 234.369 453.23 185.312 442.484 170.99L412.19 171.004Z" fill="#D96275"/>
<path opacity="0.2" d="M435.108 202.826C430.915 216.204 434.995 259.21 437.161 279.05C440.109 264.715 442.625 250.925 444.484 238.212L435.108 202.826Z" fill="#334D74"/>
<path d="M417.25 416.405H427.744C427.964 416.397 428.18 416.47 428.346 416.608C428.513 416.747 428.617 416.94 428.638 417.15L429.7 425.328C429.705 425.581 429.658 425.832 429.56 426.068C429.462 426.303 429.316 426.518 429.13 426.698C428.944 426.879 428.722 427.023 428.476 427.121C428.231 427.219 427.967 427.269 427.702 427.269C423.076 427.269 420.868 426.95 415.042 426.963C411.451 426.963 409.285 427.309 404.325 427.309C399.364 427.309 399.364 422.788 401.446 422.376C410.795 420.527 411.996 419.503 415.252 417.056C415.823 416.634 416.527 416.405 417.25 416.405Z" fill="#0A1B35"/>
<path d="M420.7 112.04C420.183 114.793 419.597 117.359 418.968 120.019C418.339 122.678 417.696 125.338 416.955 127.998C415.488 133.317 413.966 138.53 411.954 143.796C410.944 146.518 409.768 149.182 408.432 151.775C407.692 153.213 406.837 154.596 405.875 155.91C405.595 156.269 405.344 156.615 404.981 157.014C404.633 157.437 404.245 157.829 403.82 158.184C402.75 159.148 401.458 159.862 400.048 160.272C398.57 160.697 397.002 160.757 395.493 160.445C394.305 160.183 393.171 159.734 392.139 159.115C390.573 158.161 389.185 156.965 388.031 155.578C386.05 153.231 384.469 150.601 383.35 147.785C383.104 147.187 383.083 146.526 383.289 145.914C383.496 145.302 383.919 144.777 384.485 144.427C385.051 144.077 385.727 143.923 386.399 143.993C387.07 144.062 387.696 144.349 388.171 144.806L388.338 144.979C390.073 146.723 391.941 148.34 393.927 149.82C394.704 150.384 395.567 150.832 396.485 151.15C396.82 151.229 397.058 151.229 397.086 151.15C397.113 151.07 396.891 151.017 396.694 151.03C396.499 151.043 396.374 151.11 396.429 151.03C396.494 150.914 396.569 150.803 396.652 150.697C396.792 150.536 396.913 150.363 397.016 150.179C397.601 149.263 398.115 148.307 398.553 147.32C399.57 145.042 400.465 142.716 401.236 140.352C402.829 135.484 404.282 130.418 405.54 125.325C406.797 120.232 408.04 115.032 409.158 109.952C409.503 108.548 410.406 107.325 411.678 106.541C412.95 105.758 414.491 105.474 415.979 105.749C417.466 106.025 418.784 106.838 419.654 108.019C420.524 109.2 420.879 110.655 420.645 112.08L420.7 112.04Z" fill="#FED4C2"/>
<path d="M407.999 160.126C407.999 163.397 461.572 164.035 461.572 159.713L434.199 153.064L407.999 160.126Z" fill="#0A1B35"/>
<path d="M417.836 103.463C431.962 101.215 446.393 101.35 460.469 103.862C461.294 103.987 462.084 104.271 462.79 104.697C463.497 105.123 464.103 105.682 464.574 106.34C465.043 106.998 465.367 107.741 465.524 108.522C465.68 109.304 465.667 110.107 465.486 110.884C457.912 143.158 458.345 154.009 459.072 171.004H412.205C409.857 142.653 408.614 126.469 408.306 117.28C408.055 110.272 410.584 104.487 417.836 103.463Z" fill="#FED4C2"/>
<path opacity="0.2" d="M460.328 112.837C460.033 117.341 460.66 121.858 462.174 126.135C462.774 123.063 463.472 119.765 464.269 116.161L460.328 112.837Z" fill="#334D74"/>
<path d="M445.084 79.8989C443.686 86.3485 442.415 98.197 447.166 102.506C447.166 102.506 445.307 109.061 432.703 109.061C418.828 109.061 426.067 102.506 426.067 102.506C433.64 100.777 433.444 95.431 432.131 90.4176L445.084 79.8989Z" fill="#FED4C2"/>
<path opacity="0.2" d="M439.801 84.1938L432.13 90.4572C432.455 91.6251 432.675 92.8174 432.786 94.0211C435.679 93.6221 439.647 90.6035 439.955 87.7178C440.127 86.5439 440.075 85.3501 439.801 84.1938Z" fill="#334D74"/>
<path d="M452.405 68.7012C449.806 79.2199 448.954 83.7279 442.331 88.2625C432.382 95.0977 419.358 89.7785 418.575 78.7279C417.877 68.7942 422.223 53.2489 433.946 50.8021C436.522 50.2495 439.202 50.3322 441.734 51.0421C444.266 51.752 446.565 53.0657 448.415 54.8586C450.263 56.6515 451.601 58.8641 452.299 61.2866C452.997 63.7092 453.034 66.2614 452.405 68.7012Z" fill="#FED4C2"/>
<path d="M448.186 52.8774C436.476 54.1142 440.039 74.8856 448.842 76.8936C459.155 72.0931 465.513 53.8615 448.186 52.8774Z" fill="#0A1B35"/>
<path d="M505.505 401.113L497.414 403.453L485.606 379.916L498.057 376.684L505.505 401.113Z" fill="#FED4C2"/>
<path d="M495.081 401.098L505.477 397.268C505.659 397.202 505.86 397.198 506.044 397.259C506.228 397.32 506.383 397.441 506.483 397.601L511.136 405.074C511.247 405.261 511.316 405.468 511.336 405.681C511.356 405.895 511.327 406.11 511.251 406.312C511.176 406.514 511.055 406.698 510.897 406.852C510.74 407.005 510.55 407.125 510.339 407.202C506.692 408.532 504.932 409.21 500.362 410.899C497.568 411.936 493.18 415.394 489.295 416.816C485.412 418.239 483.706 414.862 485.104 413.691C488.89 410.547 491.872 406.622 493.823 402.215C493.942 401.957 494.114 401.725 494.331 401.533C494.547 401.341 494.803 401.193 495.081 401.098Z" fill="#0A1B35"/>
<path d="M425.06 171.003C425.06 171.003 442.289 254.874 448.814 288.026C455.563 322.601 485.633 379.862 485.633 379.862L498.112 376.617C498.112 376.617 481.023 315.366 473.058 285.007C471.493 230.033 473.337 185.272 459.084 170.95L425.06 171.003Z" fill="#D96275"/>
<path d="M434.073 68.6356C433.919 69.5 433.318 70.125 432.675 69.9654C432.033 69.8058 431.725 69.0877 431.878 68.2234C432.033 67.359 432.648 66.734 433.276 66.8271C433.905 66.9201 434.241 67.7712 434.073 68.6356Z" fill="#0A1B35"/>
<path d="M423.802 66.973C423.649 67.8373 423.034 68.4623 422.405 68.3028C421.776 68.1432 421.455 67.4384 421.608 66.5607C421.763 65.6831 422.377 65.0713 423.006 65.2309C423.635 65.3905 423.957 66.1086 423.802 66.973Z" fill="#0A1B35"/>
<path d="M423.258 65.3237L421.175 64.3662C421.175 64.3662 422.014 66.1747 423.258 65.3237Z" fill="#0A1B35"/>
<path d="M426.68 69.0479C425.527 70.887 424.116 72.569 422.488 74.0479C422.895 74.4357 423.386 74.7352 423.926 74.9257C424.466 75.1162 425.043 75.1933 425.618 75.1517L426.68 69.0479Z" fill="#E89470"/>
<path d="M429.95 79.3404C429.481 79.3407 429.014 79.3006 428.553 79.2207C428.517 79.2159 428.483 79.2044 428.454 79.1869C428.423 79.1695 428.397 79.1465 428.376 79.1193C428.355 79.092 428.34 79.061 428.332 79.0282C428.324 78.9954 428.322 78.9614 428.329 78.9281C428.342 78.8623 428.381 78.8038 428.439 78.7643C428.496 78.7249 428.566 78.7074 428.637 78.7154C429.764 78.9199 430.927 78.87 432.031 78.5698C433.135 78.2696 434.15 77.7274 434.994 76.9866C435.019 76.9608 435.05 76.9402 435.083 76.9262C435.117 76.9121 435.153 76.9048 435.189 76.9048C435.226 76.9048 435.263 76.9121 435.297 76.9262C435.33 76.9402 435.361 76.9608 435.386 76.9866C435.432 77.0356 435.458 77.0997 435.458 77.1662C435.458 77.2326 435.432 77.2966 435.386 77.3457C433.922 78.6686 431.968 79.3859 429.95 79.3404Z" fill="#0A1B35"/>
<path d="M453.999 77.7702C452.885 79.5707 451.074 80.8837 448.954 81.4272C446.16 82.1054 444.762 79.6984 445.628 77.1984C446.369 74.951 448.745 71.8792 451.553 72.2914C452.163 72.3975 452.736 72.6461 453.22 73.0148C453.704 73.3835 454.085 73.8608 454.326 74.4039C454.569 74.947 454.666 75.5389 454.609 76.1265C454.551 76.714 454.342 77.2788 453.999 77.7702Z" fill="#FED4C2"/>
<path d="M438.53 67.3064C438.417 67.3053 438.307 67.2699 438.217 67.2053C438.126 67.1408 438.059 67.0504 438.027 66.9473C437.286 64.6734 434.226 63.6893 434.198 63.6893C434.129 63.6698 434.065 63.6371 434.01 63.5934C433.955 63.5496 433.91 63.4956 433.877 63.4347C433.845 63.3738 433.825 63.3072 433.821 63.2389C433.815 63.1707 433.825 63.1023 433.849 63.0377C433.87 62.9722 433.903 62.9113 433.95 62.8587C433.996 62.8062 434.053 62.763 434.117 62.732C434.181 62.7009 434.25 62.6825 434.322 62.6779C434.394 62.6733 434.466 62.6826 434.534 62.7053C434.674 62.7053 438.153 63.8622 439.061 66.6947C439.083 66.7601 439.09 66.829 439.084 66.8974C439.077 66.9657 439.055 67.0321 439.022 67.0927C438.988 67.1533 438.942 67.2069 438.886 67.2504C438.831 67.294 438.767 67.3265 438.697 67.3463L438.53 67.3064Z" fill="#0A1B35"/>
<path d="M421.51 61.9464C421.417 61.9453 421.325 61.9215 421.244 61.8773C421.164 61.833 421.096 61.7699 421.049 61.6937C420.979 61.5738 420.961 61.4322 421.001 61.3001C421.04 61.168 421.133 61.0561 421.258 60.989C421.995 60.5654 422.826 60.3154 423.684 60.2599C424.542 60.2044 425.401 60.3449 426.19 60.6698C426.318 60.7324 426.414 60.8399 426.458 60.9693C426.503 61.0986 426.492 61.2394 426.429 61.3613C426.363 61.4822 426.249 61.5736 426.114 61.6159C425.978 61.6582 425.83 61.6479 425.702 61.5874C425.071 61.3417 424.388 61.2402 423.71 61.291C423.03 61.3418 422.372 61.5435 421.79 61.8799C421.706 61.9283 421.608 61.9514 421.51 61.9464Z" fill="#0A1B35"/>
<path d="M464.297 105.711C468.28 110.671 471.898 115.684 475.337 120.977C477.041 123.636 478.718 126.296 480.255 129.128C481.925 132.063 483.305 135.14 484.378 138.317C484.531 138.743 484.642 139.235 484.768 139.647L484.866 140.033L484.992 140.591C485.049 140.939 485.086 141.29 485.104 141.642C485.168 142.796 485.078 143.953 484.838 145.086C484.441 146.882 483.846 148.634 483.064 150.312C481.685 153.277 480.059 156.132 478.201 158.849C474.663 164.072 470.687 169.013 466.309 173.624C465.83 174.134 465.168 174.458 464.453 174.531C463.737 174.604 463.018 174.422 462.436 174.02C461.853 173.617 461.448 173.024 461.299 172.354C461.15 171.684 461.268 170.985 461.628 170.392V170.326C464.716 165.206 467.777 159.94 470.418 154.727C471.712 152.214 472.838 149.624 473.786 146.974C474.193 145.849 474.474 144.686 474.624 143.504C474.676 143.155 474.676 142.802 474.624 142.453V142.373V142.214C474.525 141.948 474.456 141.708 474.33 141.429C473.242 138.936 471.963 136.522 470.502 134.208C468.965 131.748 467.33 129.288 465.653 126.828C462.244 121.961 458.666 117.067 455.033 112.333C454.162 111.145 453.812 109.682 454.056 108.252C454.3 106.823 455.12 105.54 456.341 104.675C457.562 103.811 459.087 103.433 460.596 103.621C462.105 103.809 463.477 104.549 464.423 105.684L464.297 105.711Z" fill="#FED4C2"/>
<path d="M433.542 66.9868L431.459 66.0293C431.459 66.0293 432.284 67.8511 433.542 66.9868Z" fill="#0A1B35"/>
<path d="M409.619 114.101C410.481 110.746 411.593 107.453 412.944 104.247C415.088 103.638 417.279 103.193 419.497 102.917C424.016 106.729 427.734 111.323 430.452 116.454C436.447 110.683 447.92 104.845 454.906 102.718C457.269 102.576 459.64 102.86 461.893 103.555C457.128 117.864 452.265 132.252 460.886 135.949C460.733 142.745 461.137 151.176 461.501 159.7C453.354 158.848 421.049 157.372 407.928 160.112C407.256 151.468 407.019 144.154 407.061 137.838C400.955 130.431 407.076 120.351 409.619 114.101Z" fill="#0A1B35"/>
<g opacity="0.2">
<path opacity="0.2" d="M422.46 140.711C422.386 140.72 422.317 140.746 422.258 140.788C422.199 140.83 422.153 140.886 422.125 140.951C421.134 143.596 421.163 146.49 422.209 149.116C421.244 148.344 420.294 147.586 419.414 146.815C420.201 145.214 420.505 143.436 420.293 141.68C420.081 139.923 419.36 138.258 418.212 136.868C418.168 136.814 418.111 136.771 418.045 136.743C417.978 136.715 417.907 136.703 417.834 136.709C417.761 136.714 417.689 136.739 417.631 136.782C417.571 136.824 417.526 136.882 417.499 136.948C416.477 139.667 416.541 142.649 417.681 145.326C416.423 144.235 415.221 143.145 414.118 142.094C414.943 140.485 415.275 138.687 415.074 136.906C414.874 135.125 414.15 133.434 412.986 132.028C412.942 131.973 412.884 131.93 412.819 131.902C412.753 131.874 412.68 131.863 412.609 131.868C412.534 131.874 412.464 131.899 412.404 131.941C412.345 131.984 412.3 132.041 412.274 132.107C411.258 134.832 411.322 137.816 412.454 140.498C410.541 138.597 408.948 136.868 407.76 135.432C407.333 133.824 406.485 132.345 405.296 131.134C404.105 129.922 402.612 129.017 400.955 128.504C400.887 128.492 400.818 128.497 400.753 128.516C400.688 128.535 400.628 128.569 400.579 128.614C400.529 128.66 400.492 128.715 400.47 128.777C400.448 128.839 400.442 128.905 400.452 128.969C401.709 134.86 406.264 135.884 407.187 136.03C407.844 136.815 408.584 137.679 409.479 138.61C407.289 137.676 404.852 137.398 402.492 137.812C402.421 137.828 402.355 137.862 402.303 137.912C402.251 137.961 402.215 138.023 402.199 138.092C402.178 138.157 402.175 138.227 402.189 138.295C402.204 138.362 402.236 138.425 402.283 138.477C403.484 139.781 405.044 140.739 406.787 141.244C408.53 141.75 410.387 141.781 412.148 141.336C412.931 142.108 413.769 142.892 414.649 143.703C411.69 142.898 408.531 143.076 405.692 144.209C405.624 144.243 405.569 144.293 405.529 144.355C405.49 144.417 405.469 144.489 405.469 144.561C405.469 144.633 405.49 144.705 405.529 144.767C405.569 144.829 405.624 144.879 405.692 144.913C407.287 145.859 409.115 146.389 410.993 146.452C412.872 146.515 414.735 146.109 416.396 145.272C417.57 146.323 418.813 147.374 420.098 148.424C417.236 147.194 413.996 147.015 411.001 147.919C410.932 147.946 410.871 147.989 410.825 148.045C410.779 148.101 410.748 148.167 410.736 148.238C410.729 148.307 410.74 148.377 410.766 148.442C410.792 148.506 410.835 148.564 410.89 148.61C412.361 149.744 414.133 150.469 416.009 150.703C417.886 150.938 419.795 150.674 421.524 149.94L421.635 149.874C421.679 149.829 421.709 149.774 421.719 149.714L423.299 150.937C423.347 151 423.415 151.047 423.494 151.07C424.333 151.709 425.185 152.334 426.051 152.945C426.127 153.007 426.224 153.041 426.324 153.041C426.424 153.041 426.52 153.007 426.596 152.945C426.628 152.903 426.652 152.854 426.664 152.803C426.677 152.752 426.678 152.699 426.669 152.647C426.66 152.595 426.64 152.545 426.611 152.501C426.581 152.456 426.543 152.417 426.498 152.387C425.702 151.815 424.905 151.243 424.137 150.645C424.862 149.061 425.124 147.319 424.893 145.605C424.661 143.891 423.946 142.269 422.824 140.911C422.787 140.85 422.733 140.8 422.669 140.765C422.606 140.73 422.534 140.711 422.46 140.711Z" fill="white"/>
<path opacity="0.2" d="M408.683 120.113C408.757 120.104 408.826 120.078 408.885 120.036C408.944 119.994 408.99 119.938 409.019 119.873C410.009 117.228 409.98 114.334 408.936 111.708C409.899 112.48 410.85 113.238 411.73 114.009C410.943 115.61 410.639 117.388 410.851 119.144C411.063 120.9 411.783 122.566 412.932 123.956C412.976 124.01 413.034 124.053 413.099 124.081C413.165 124.109 413.237 124.121 413.309 124.115C413.382 124.11 413.454 124.084 413.513 124.042C413.573 124 413.618 123.942 413.644 123.876C414.668 121.157 414.602 118.175 413.462 115.498C414.72 116.589 415.922 117.679 417.026 118.73C416.201 120.339 415.869 122.137 416.069 123.918C416.269 125.699 416.993 127.389 418.157 128.796C418.201 128.851 418.259 128.894 418.325 128.922C418.391 128.949 418.463 128.961 418.534 128.956C418.609 128.95 418.679 128.925 418.739 128.882C418.798 128.84 418.844 128.783 418.871 128.716C419.886 125.992 419.822 123.008 418.689 120.325C420.603 122.227 422.196 123.956 423.384 125.392C423.81 127 424.658 128.479 425.848 129.69C427.038 130.902 428.532 131.807 430.189 132.32C430.256 132.331 430.325 132.327 430.39 132.308C430.457 132.289 430.515 132.255 430.565 132.21C430.614 132.164 430.651 132.108 430.673 132.047C430.695 131.985 430.701 131.919 430.692 131.855C429.434 125.964 424.879 124.94 423.956 124.794C423.3 124.009 422.559 123.145 421.665 122.214C423.854 123.151 426.293 123.425 428.651 122.998C428.723 122.987 428.789 122.955 428.841 122.908C428.893 122.861 428.93 122.799 428.945 122.732C428.966 122.667 428.97 122.597 428.955 122.529C428.94 122.462 428.908 122.399 428.862 122.347C427.659 121.043 426.1 120.085 424.357 119.579C422.614 119.074 420.757 119.042 418.996 119.488C418.214 118.716 417.375 117.932 416.495 117.121C419.454 117.926 422.614 117.748 425.452 116.615C425.519 116.581 425.575 116.531 425.615 116.468C425.654 116.406 425.675 116.335 425.675 116.263C425.675 116.19 425.654 116.119 425.615 116.057C425.575 115.995 425.519 115.944 425.452 115.91C423.857 114.965 422.028 114.434 420.151 114.371C418.272 114.308 416.41 114.715 414.748 115.551C413.575 114.501 412.331 113.45 411.046 112.4C413.908 113.629 417.147 113.809 420.142 112.905C420.209 112.876 420.269 112.832 420.316 112.777C420.362 112.721 420.393 112.656 420.407 112.586C420.414 112.517 420.405 112.447 420.378 112.382C420.351 112.317 420.308 112.26 420.254 112.214C418.782 111.08 417.011 110.355 415.134 110.121C413.257 109.886 411.349 110.15 409.62 110.884L409.508 110.95C409.464 110.994 409.435 111.05 409.424 111.11L407.845 109.886C407.797 109.824 407.728 109.777 407.649 109.753C406.811 109.115 405.959 108.49 405.093 107.878C405.017 107.817 404.921 107.783 404.82 107.783C404.72 107.783 404.623 107.817 404.548 107.878C404.484 107.964 404.458 108.07 404.474 108.174C404.489 108.277 404.545 108.371 404.632 108.437C405.442 109.009 406.238 109.581 407.007 110.179C406.281 111.763 406.02 113.505 406.251 115.219C406.482 116.933 407.198 118.555 408.321 119.913C408.358 119.974 408.41 120.024 408.474 120.059C408.537 120.094 408.61 120.113 408.683 120.113Z" fill="white"/>
<path opacity="0.2" d="M451.763 150.419C451.693 150.428 451.626 150.454 451.567 150.493C451.509 150.532 451.461 150.584 451.428 150.645C450.45 153.292 450.479 156.182 451.512 158.81C450.548 158.052 449.598 157.28 448.717 156.509C449.504 154.91 449.809 153.134 449.597 151.38C449.384 149.626 448.665 147.962 447.516 146.576C447.472 146.521 447.415 146.478 447.349 146.45C447.284 146.423 447.211 146.412 447.14 146.418C447.068 146.425 446.999 146.449 446.94 146.488C446.881 146.527 446.834 146.58 446.803 146.642C445.788 149.367 445.852 152.351 446.984 155.033C445.727 153.929 444.526 152.852 443.421 151.802C444.25 150.195 444.584 148.399 444.384 146.619C444.183 144.84 443.457 143.151 442.289 141.748C442.249 141.691 442.192 141.646 442.124 141.617C442.058 141.589 441.985 141.579 441.912 141.589C441.841 141.597 441.774 141.622 441.715 141.662C441.656 141.701 441.609 141.754 441.577 141.815C440.561 144.539 440.626 147.523 441.759 150.206C439.844 148.318 438.251 146.576 437.064 145.139C436.632 143.534 435.782 142.057 434.594 140.846C433.404 139.635 431.913 138.729 430.259 138.211C430.192 138.198 430.121 138.201 430.056 138.22C429.99 138.238 429.93 138.272 429.882 138.318C429.83 138.365 429.793 138.424 429.77 138.489C429.749 138.554 429.744 138.623 429.756 138.69C431.014 144.568 435.582 145.592 436.49 145.738C437.147 146.522 437.888 147.4 438.782 148.331C436.592 147.396 434.155 147.118 431.795 147.533C431.726 147.551 431.662 147.587 431.61 147.636C431.559 147.685 431.521 147.745 431.502 147.812C431.481 147.876 431.478 147.944 431.493 148.009C431.507 148.074 431.539 148.135 431.586 148.185C432.78 149.497 434.34 150.462 436.086 150.968C437.831 151.474 439.691 151.5 441.451 151.044C442.234 151.815 443.072 152.613 443.953 153.424C440.994 152.611 437.832 152.79 434.996 153.929C434.932 153.966 434.878 154.016 434.839 154.076C434.801 154.136 434.777 154.205 434.772 154.275C434.77 154.345 434.789 154.415 434.826 154.476C434.864 154.537 434.917 154.587 434.981 154.621C436.576 155.567 438.404 156.099 440.281 156.165C442.159 156.23 444.022 155.826 445.686 154.993C446.859 156.03 448.102 157.081 449.389 158.145C446.525 156.915 443.286 156.735 440.292 157.639C440.222 157.666 440.161 157.71 440.114 157.766C440.068 157.822 440.038 157.888 440.026 157.959C440.018 158.027 440.028 158.097 440.059 158.16C440.088 158.223 440.134 158.278 440.193 158.318C441.664 159.452 443.437 160.176 445.314 160.411C447.19 160.645 449.099 160.381 450.827 159.647L450.925 159.568C450.966 159.524 450.998 159.475 451.023 159.421L452.602 160.645C452.646 160.707 452.71 160.753 452.784 160.778C453.622 161.416 454.474 162.041 455.34 162.666C455.417 162.728 455.514 162.762 455.613 162.762C455.713 162.762 455.81 162.728 455.886 162.666C455.953 162.581 455.981 162.475 455.965 162.37C455.95 162.266 455.891 162.171 455.801 162.108C454.991 161.536 454.208 160.951 453.427 160.366C454.156 158.783 454.42 157.042 454.191 155.327C453.963 153.613 453.249 151.99 452.127 150.631C452.091 150.569 452.039 150.517 451.975 150.48C451.91 150.442 451.838 150.421 451.763 150.419Z" fill="white"/>
<path opacity="0.2" d="M478.634 159.608C478.56 159.614 478.49 159.639 478.43 159.682C478.371 159.724 478.325 159.782 478.299 159.848C477.303 162.491 477.328 165.385 478.369 168.013C477.404 167.241 476.468 166.47 475.574 165.712C476.364 164.112 476.672 162.335 476.462 160.578C476.253 158.822 475.534 157.155 474.387 155.765C474.341 155.709 474.282 155.664 474.213 155.636C474.144 155.609 474.069 155.598 473.996 155.606C473.922 155.615 473.854 155.642 473.795 155.684C473.736 155.726 473.69 155.781 473.659 155.845C472.643 158.565 472.709 161.545 473.841 164.223C472.583 163.132 471.396 162.042 470.293 160.991C471.118 159.382 471.449 157.584 471.249 155.803C471.048 154.022 470.324 152.332 469.16 150.925C469.117 150.87 469.059 150.827 468.993 150.799C468.927 150.772 468.855 150.76 468.783 150.765C468.709 150.771 468.638 150.796 468.579 150.838C468.519 150.881 468.474 150.938 468.448 151.004C467.425 153.728 467.49 156.714 468.629 159.396C466.715 157.494 465.108 155.765 463.935 154.329C463.508 152.721 462.66 151.242 461.469 150.031C460.28 148.819 458.787 147.914 457.13 147.401C457.061 147.386 456.991 147.388 456.924 147.406C456.856 147.424 456.795 147.458 456.746 147.504C456.696 147.55 456.659 147.607 456.638 147.671C456.617 147.734 456.613 147.801 456.626 147.866C457.884 153.757 462.439 154.781 463.362 154.927C464.004 155.712 464.759 156.576 465.654 157.507C463.463 156.576 461.027 156.298 458.667 156.709C458.598 156.73 458.535 156.766 458.484 156.815C458.433 156.863 458.395 156.923 458.373 156.989C458.354 157.056 458.353 157.126 458.37 157.193C458.387 157.261 458.422 157.323 458.47 157.374C459.671 158.676 461.229 159.633 462.969 160.138C464.709 160.643 466.564 160.676 468.323 160.233C469.119 161.005 469.943 161.789 470.823 162.6C467.869 161.795 464.714 161.973 461.88 163.106C461.813 163.138 461.756 163.187 461.717 163.248C461.677 163.309 461.656 163.38 461.656 163.451C461.655 163.522 461.673 163.592 461.707 163.654C461.742 163.717 461.791 163.771 461.853 163.81C463.452 164.752 465.282 165.28 467.161 165.343C469.04 165.406 470.905 165.002 472.57 164.17C473.744 165.216 474.973 166.266 476.259 167.321C473.396 166.092 470.156 165.912 467.162 166.816C467.093 166.841 467.032 166.884 466.988 166.941C466.943 166.997 466.917 167.065 466.91 167.135C466.904 167.204 466.913 167.274 466.941 167.339C466.967 167.404 467.01 167.461 467.065 167.507C468.536 168.64 470.307 169.363 472.184 169.598C474.061 169.833 475.969 169.569 477.698 168.837C477.73 168.843 477.764 168.843 477.796 168.837C477.849 168.798 477.884 168.741 477.894 168.678L479.472 169.901C479.52 169.96 479.583 170.006 479.654 170.034C480.493 170.672 481.345 171.297 482.212 171.909C482.287 171.971 482.384 172.005 482.484 172.005C482.584 172.005 482.68 171.971 482.756 171.909C482.792 171.868 482.817 171.82 482.832 171.769C482.846 171.718 482.85 171.665 482.842 171.612C482.834 171.56 482.815 171.51 482.786 171.465C482.757 171.42 482.718 171.381 482.673 171.35L480.297 169.608C481.027 168.026 481.29 166.285 481.062 164.57C480.833 162.856 480.12 161.233 478.997 159.874C478.969 159.802 478.92 159.739 478.856 159.692C478.791 159.645 478.715 159.616 478.634 159.608Z" fill="white"/>
<path opacity="0.2" d="M417.193 161.11C417.121 161.115 417.052 161.139 416.993 161.179C416.934 161.219 416.887 161.273 416.857 161.336C415.861 163.979 415.885 166.873 416.928 169.501C415.963 168.743 415.027 167.971 414.133 167.2C414.923 165.6 415.231 163.823 415.021 162.066C414.811 160.31 414.093 158.643 412.945 157.253C412.899 157.199 412.839 157.157 412.772 157.131C412.705 157.105 412.631 157.095 412.559 157.103C412.486 157.111 412.417 157.136 412.358 157.176C412.298 157.217 412.25 157.27 412.218 157.333C411.202 160.058 411.267 163.042 412.4 165.724C411.142 164.62 409.955 163.543 408.85 162.493C409.676 160.883 410.007 159.085 409.808 157.304C409.607 155.524 408.883 153.833 407.719 152.426C407.677 152.371 407.619 152.328 407.552 152.302C407.485 152.277 407.413 152.269 407.341 152.28C407.269 152.283 407.199 152.305 407.139 152.346C407.079 152.386 407.034 152.441 407.006 152.506C405.984 155.229 406.048 158.216 407.188 160.897C405.533 159.286 403.965 157.595 402.493 155.83C402.061 154.224 401.211 152.748 400.023 151.537C398.833 150.326 397.342 149.42 395.688 148.902C395.619 148.889 395.546 148.892 395.479 148.91C395.411 148.929 395.348 148.962 395.296 149.008C395.252 149.057 395.219 149.114 395.2 149.176C395.181 149.238 395.176 149.303 395.185 149.367C396.443 155.258 400.998 156.282 401.919 156.429C402.563 157.213 403.317 158.078 404.211 159.088C402.025 158.144 399.585 157.865 397.225 158.29C397.156 158.308 397.093 158.341 397.042 158.387C396.991 158.434 396.952 158.492 396.931 158.556C396.912 158.623 396.911 158.694 396.928 158.761C396.945 158.829 396.98 158.891 397.029 158.942C398.221 160.255 399.778 161.22 401.521 161.726C403.264 162.232 405.122 162.258 406.88 161.801C407.677 162.572 408.502 163.37 409.382 164.181C406.428 163.363 403.27 163.542 400.439 164.687C400.373 164.717 400.316 164.764 400.277 164.822C400.237 164.881 400.216 164.949 400.215 165.019C400.213 165.09 400.23 165.16 400.263 165.223C400.298 165.286 400.349 165.339 400.411 165.378C402.008 166.324 403.837 166.856 405.718 166.922C407.598 166.987 409.463 166.583 411.129 165.751C412.302 166.788 413.532 167.838 414.818 168.889C411.952 167.662 408.713 167.487 405.721 168.397C405.653 168.421 405.594 168.462 405.55 168.516C405.506 168.57 405.477 168.635 405.469 168.703C405.46 168.772 405.469 168.843 405.495 168.908C405.523 168.973 405.567 169.031 405.622 169.075C407.095 170.208 408.866 170.931 410.743 171.166C412.62 171.401 414.528 171.137 416.256 170.405C416.289 170.411 416.323 170.411 416.354 170.405C416.404 170.369 416.439 170.317 416.452 170.259L418.031 171.482C418.078 171.541 418.14 171.587 418.213 171.615C419.065 172.253 419.904 172.878 420.77 173.503C420.846 173.565 420.943 173.599 421.043 173.599C421.142 173.599 421.239 173.565 421.315 173.503C421.349 173.462 421.376 173.415 421.39 173.364C421.405 173.313 421.408 173.259 421.401 173.207C421.393 173.154 421.374 173.104 421.344 173.059C421.315 173.014 421.277 172.975 421.231 172.945L418.856 171.203C419.584 169.618 419.849 167.875 419.62 166.158C419.391 164.442 418.678 162.817 417.556 161.455C417.55 161.366 417.509 161.281 417.443 161.218C417.375 161.154 417.287 161.116 417.193 161.11Z" fill="white"/>
<path opacity="0.2" d="M450.868 105.086C450.795 105.095 450.727 105.122 450.668 105.164C450.609 105.206 450.563 105.261 450.533 105.325C449.555 107.972 449.584 110.862 450.617 113.49C449.653 112.719 448.702 111.961 447.823 111.19C448.609 109.588 448.914 107.81 448.701 106.054C448.489 104.298 447.769 102.632 446.621 101.243C446.577 101.188 446.519 101.145 446.454 101.117C446.387 101.089 446.315 101.078 446.244 101.083C446.169 101.089 446.099 101.114 446.04 101.156C445.98 101.199 445.935 101.256 445.908 101.322C444.892 104.042 444.956 107.022 446.09 109.7C444.832 108.61 443.63 107.519 442.527 106.469C443.352 104.859 443.683 103.061 443.483 101.28C443.282 99.4998 442.558 97.809 441.394 96.4022C441.351 96.3468 441.294 96.3031 441.228 96.2751C441.162 96.2471 441.089 96.2359 441.017 96.2426C440.943 96.2481 440.873 96.2735 440.813 96.3159C440.754 96.3583 440.708 96.4159 440.682 96.4819C439.666 99.2066 439.731 102.19 440.864 104.873C438.949 102.971 437.356 101.243 436.169 99.8064C435.742 98.1985 434.894 96.7197 433.703 95.5081C432.514 94.2965 431.021 93.3917 429.364 92.8782C429.297 92.867 429.227 92.8712 429.162 92.8904C429.096 92.9096 429.036 92.9433 428.988 92.9887C428.938 93.0341 428.901 93.09 428.879 93.1517C428.857 93.2134 428.851 93.2791 428.86 93.3436C430.118 99.2346 434.687 100.259 435.596 100.405C436.253 101.189 436.993 102.054 437.888 102.985C435.698 102.05 433.261 101.772 430.901 102.187C430.832 102.207 430.769 102.243 430.718 102.292C430.667 102.341 430.629 102.4 430.607 102.466C430.586 102.532 430.583 102.602 430.597 102.669C430.612 102.736 430.645 102.799 430.691 102.852C431.893 104.155 433.452 105.114 435.196 105.619C436.939 106.124 438.796 106.156 440.557 105.711C441.338 106.482 442.177 107.267 443.058 108.078C440.099 107.273 436.939 107.451 434.101 108.583C434.037 108.619 433.983 108.67 433.944 108.73C433.905 108.79 433.882 108.858 433.877 108.929C433.876 109.001 433.895 109.072 433.932 109.135C433.968 109.198 434.022 109.251 434.087 109.288C435.682 110.233 437.509 110.764 439.388 110.827C441.266 110.89 443.129 110.483 444.79 109.647C445.964 110.697 447.207 111.748 448.493 112.799C445.63 111.569 442.39 111.389 439.397 112.293C439.327 112.32 439.266 112.364 439.219 112.419C439.173 112.475 439.142 112.542 439.131 112.612C439.122 112.683 439.134 112.754 439.163 112.82C439.193 112.885 439.239 112.942 439.299 112.985C440.768 114.118 442.537 114.841 444.411 115.076C446.286 115.311 448.192 115.047 449.918 114.315L450.031 114.248C450.075 114.204 450.103 114.148 450.114 114.089L451.693 115.312C451.744 115.372 451.813 115.418 451.888 115.445C452.727 116.083 453.579 116.708 454.446 117.32C454.522 117.382 454.618 117.416 454.718 117.416C454.818 117.416 454.915 117.382 454.99 117.32C455.057 117.235 455.086 117.129 455.07 117.024C455.054 116.919 454.995 116.825 454.907 116.761C454.096 116.19 453.314 115.618 452.531 115.019C453.261 113.437 453.525 111.696 453.296 109.981C453.067 108.267 452.354 106.644 451.232 105.285C451.193 105.227 451.138 105.179 451.075 105.144C451.012 105.109 450.942 105.089 450.868 105.086Z" fill="white"/>
<path opacity="0.2" d="M437.593 130.352C437.665 130.346 437.734 130.322 437.793 130.282C437.852 130.242 437.899 130.188 437.929 130.126C438.925 127.483 438.901 124.588 437.859 121.961C438.823 122.719 439.759 123.49 440.653 124.261C439.863 125.861 439.555 127.639 439.765 129.395C439.976 131.152 440.694 132.818 441.842 134.208C441.887 134.262 441.947 134.304 442.014 134.331C442.081 134.357 442.155 134.366 442.227 134.358C442.3 134.35 442.369 134.325 442.429 134.285C442.488 134.245 442.536 134.191 442.568 134.128C443.584 131.404 443.519 128.42 442.386 125.737C443.644 126.837 444.831 127.914 445.949 128.969C445.124 130.578 444.792 132.376 444.993 134.157C445.193 135.938 445.917 137.629 447.081 139.035C447.127 139.089 447.187 139.131 447.254 139.158C447.322 139.184 447.395 139.194 447.468 139.186C447.54 139.178 447.61 139.152 447.668 139.112C447.728 139.072 447.777 139.018 447.808 138.956C448.826 136.23 448.756 133.244 447.613 130.565C449.268 132.176 450.834 133.867 452.308 135.631C452.739 137.239 453.591 138.717 454.782 139.928C455.975 141.139 457.469 142.044 459.126 142.559C459.193 142.572 459.263 142.569 459.329 142.551C459.395 142.532 459.455 142.499 459.503 142.453C459.552 142.404 459.587 142.344 459.606 142.28C459.626 142.215 459.629 142.147 459.616 142.081C458.372 136.203 453.803 135.179 452.88 135.033C452.237 134.248 451.483 133.384 450.588 132.373C452.775 133.318 455.215 133.596 457.575 133.171C457.643 133.154 457.706 133.12 457.758 133.074C457.809 133.027 457.847 132.969 457.868 132.905C457.888 132.838 457.889 132.768 457.871 132.7C457.855 132.633 457.82 132.571 457.771 132.519C456.58 131.207 455.023 130.241 453.28 129.736C451.536 129.23 449.677 129.203 447.92 129.66C447.137 128.889 446.299 128.091 445.419 127.28C448.371 128.098 451.531 127.92 454.362 126.775C454.429 126.742 454.486 126.693 454.525 126.632C454.565 126.571 454.586 126.501 454.585 126.429C454.59 126.36 454.573 126.291 454.539 126.229C454.505 126.168 454.452 126.118 454.389 126.083C452.792 125.137 450.963 124.605 449.083 124.54C447.203 124.474 445.338 124.878 443.672 125.711C442.499 124.674 441.268 123.623 439.983 122.572C442.849 123.793 446.087 123.968 449.08 123.065C449.147 123.04 449.206 122.999 449.251 122.945C449.295 122.891 449.322 122.827 449.331 122.759C449.343 122.689 449.336 122.618 449.309 122.552C449.281 122.486 449.236 122.429 449.177 122.386C447.708 121.25 445.936 120.523 444.058 120.289C442.181 120.054 440.272 120.32 438.543 121.056C438.512 121.05 438.478 121.05 438.446 121.056C438.406 121.1 438.372 121.149 438.348 121.203L436.769 119.979C436.726 119.918 436.661 119.871 436.587 119.846C435.749 119.208 434.896 118.517 434.03 117.958C433.955 117.896 433.858 117.862 433.758 117.862C433.658 117.862 433.562 117.896 433.485 117.958C433.419 118.043 433.39 118.149 433.406 118.254C433.422 118.359 433.48 118.453 433.569 118.517L435.945 120.259C435.216 121.844 434.952 123.587 435.18 125.303C435.409 127.019 436.122 128.645 437.244 130.006C437.257 130.091 437.298 130.17 437.36 130.232C437.423 130.294 437.504 130.336 437.593 130.352Z" fill="white"/>
</g>
<path d="M443.728 141.788L350.107 150.777C347.61 151.019 345.316 152.194 343.728 154.044C342.141 155.894 341.389 158.267 341.639 160.644L344.853 191.11C347.292 189.465 350.14 188.458 353.115 188.189C356.09 187.919 359.088 188.397 361.808 189.574C364.529 190.751 366.877 192.587 368.619 194.898C370.361 197.208 371.436 199.914 371.737 202.743C372.038 205.573 371.553 208.428 370.332 211.024C369.111 213.62 367.197 215.866 364.778 217.537C362.36 219.209 359.524 220.248 356.552 220.55C353.582 220.853 350.578 220.408 347.843 219.262L351.071 249.727C351.329 252.103 352.563 254.286 354.506 255.798C356.449 257.31 358.942 258.03 361.439 257.799L455.061 248.823C457.558 248.575 459.851 247.396 461.44 245.546C463.029 243.695 463.784 241.321 463.543 238.943L454.11 149.846C453.846 147.472 452.606 145.293 450.662 143.783C448.717 142.274 446.226 141.557 443.728 141.788Z" fill="#FF6780"/>
<path d="M443.728 141.788L350.107 150.777C347.61 151.019 345.316 152.194 343.728 154.044C342.141 155.894 341.389 158.267 341.639 160.644L344.853 191.11C347.292 189.465 350.14 188.458 353.115 188.189C356.09 187.919 359.088 188.397 361.808 189.574C364.529 190.751 366.877 192.587 368.619 194.898C370.361 197.208 371.436 199.914 371.737 202.743C372.038 205.573 371.553 208.428 370.332 211.024C369.111 213.62 367.197 215.866 364.778 217.537C362.36 219.209 359.524 220.248 356.552 220.55C353.582 220.853 350.578 220.408 347.843 219.262L351.071 249.727C351.329 252.103 352.563 254.286 354.506 255.798C356.449 257.31 358.942 258.03 361.439 257.799L455.061 248.823C457.558 248.575 459.851 247.396 461.44 245.546C463.029 243.695 463.784 241.321 463.543 238.943L454.11 149.846C453.846 147.472 452.606 145.293 450.662 143.783C448.717 142.274 446.226 141.557 443.728 141.788Z" fill="#FF6780"/>
<path d="M469.27 169.114L464.939 167.319L454.766 169.792C453.6 170.083 452.568 170.733 451.832 171.641L449.68 174.3C449.221 174.883 448.989 175.599 449.022 176.326C449.055 177.053 449.352 177.747 449.861 178.29L452.293 180.843C452.876 181.451 453.685 181.819 454.549 181.869C455.413 181.918 456.262 181.646 456.918 181.109L462.437 176.601C462.437 176.601 469.089 173.635 469.27 169.114Z" fill="#FED4C2"/>
<path d="M381.086 152.506L385.585 151.961C386.192 151.896 386.759 151.643 387.2 151.242C387.642 150.841 387.933 150.314 388.03 149.74L388.645 146.336C388.727 145.931 388.709 145.513 388.592 145.115C388.475 144.717 388.263 144.351 387.971 144.045C387.679 143.74 387.317 143.503 386.912 143.353C386.508 143.204 386.073 143.146 385.641 143.184L380.387 143.543C379.647 143.581 378.955 143.897 378.46 144.42C377.964 144.944 377.708 145.633 377.745 146.336L377.885 149.926C377.894 150.304 377.985 150.676 378.155 151.017C378.325 151.358 378.57 151.66 378.873 151.904C379.175 152.148 379.53 152.328 379.911 152.432C380.292 152.536 380.693 152.561 381.086 152.506Z" fill="#FED4C2"/>
<path d="M451.107 54.7792C440.012 60.0984 420.519 57.6516 420.519 57.6516C420.519 57.6516 431.39 40.7365 451.107 54.7792Z" fill="#0A1B35"/>
<path d="M255.874 392.175L250.298 419.795L236.185 416.55L241.761 388.93L255.874 392.175Z" fill="#FED4C2"/>
<path d="M236.633 410.938L252.324 414.183C252.568 414.228 252.784 414.359 252.932 414.548C253.079 414.737 253.147 414.973 253.121 415.207L252.031 426.178C251.995 426.453 251.899 426.718 251.749 426.956C251.599 427.194 251.4 427.4 251.161 427.56C250.923 427.72 250.652 427.832 250.367 427.887C250.081 427.942 249.787 427.939 249.502 427.88C244.569 426.776 243.103 426.085 236.856 424.795C229.576 423.266 226.991 423.678 218.44 421.896C213.269 420.819 213.506 415.659 215.826 415.646C221.952 415.66 227.973 414.132 233.279 411.218C234.319 410.722 235.518 410.622 236.633 410.938Z" fill="#0A1B35"/>
<path opacity="0.2" d="M255.887 392.188L253.008 406.417L238.881 403.172L241.759 388.93L255.887 392.188Z" fill="#334D74"/>
<path d="M280.438 285.804C296.996 239.447 310.103 184.739 310.103 184.739L262.874 181.894C262.874 181.894 255.887 252.878 252.282 285.618C248.509 319.634 236.785 396.43 236.785 396.43L258.095 400.539C258.095 400.539 278.077 328.225 280.438 285.804Z" fill="#0A1B35"/>
<path opacity="0.2" d="M288.319 210.537L299.777 224.021C296.856 234.433 293.447 246.135 289.703 258.09C287.553 242.324 287.089 226.392 288.319 210.537Z" fill="#0A1B35"/>
<path d="M237.093 399.316L256.656 403.385C257.046 403.468 257.454 403.41 257.803 403.223C258.151 403.037 258.414 402.735 258.542 402.374L260.694 396.377C260.769 396.174 260.797 395.958 260.779 395.744C260.759 395.529 260.692 395.321 260.583 395.133C260.474 394.945 260.324 394.781 260.143 394.651C259.962 394.522 259.755 394.43 259.534 394.382L238.309 389.662C238.086 389.611 237.854 389.607 237.629 389.648C237.404 389.689 237.19 389.776 237.002 389.901C236.814 390.027 236.658 390.189 236.54 390.377C236.423 390.565 236.35 390.774 236.325 390.991L235.836 397.64C235.792 398.018 235.896 398.398 236.128 398.707C236.359 399.016 236.704 399.233 237.093 399.316Z" fill="#0A1B35"/>
<path opacity="0.1" d="M237.093 399.316L256.656 403.385C257.046 403.468 257.454 403.41 257.803 403.223C258.151 403.037 258.414 402.735 258.542 402.374L260.694 396.377C260.769 396.174 260.797 395.958 260.779 395.744C260.759 395.529 260.692 395.321 260.583 395.133C260.474 394.945 260.324 394.781 260.143 394.651C259.962 394.522 259.755 394.43 259.534 394.382L238.309 389.662C238.086 389.611 237.854 389.607 237.629 389.648C237.404 389.689 237.19 389.776 237.002 389.901C236.814 390.027 236.658 390.189 236.54 390.377C236.423 390.565 236.35 390.774 236.325 390.991L235.836 397.64C235.792 398.018 235.896 398.398 236.128 398.707C236.359 399.016 236.704 399.233 237.093 399.316Z" fill="white"/>
<path d="M333.564 391.217L334.445 419.715L320.122 419.528L319.241 391.031L333.564 391.217Z" fill="#FED4C2"/>
<path d="M319.759 413.678L334.989 413.89C335.236 413.889 335.476 413.976 335.658 414.133C335.842 414.291 335.957 414.507 335.982 414.741L337.211 425.699C337.235 425.976 337.197 426.255 337.1 426.518C337.003 426.78 336.851 427.021 336.65 427.224C336.451 427.427 336.208 427.587 335.939 427.696C335.67 427.804 335.38 427.858 335.087 427.853C330.029 427.707 328.436 427.308 322.05 427.215C314.588 427.095 312.981 427.986 304.235 427.867C298.939 427.787 298.086 422.68 300.35 422.228C306.36 421.085 311.946 418.452 316.545 414.595C317.455 413.911 318.603 413.583 319.759 413.678Z" fill="#0A1B35"/>
<path opacity="0.2" d="M333.578 391.23L334.025 405.911L319.689 405.725L319.241 391.031L333.578 391.23Z" fill="#334D74"/>
<path d="M330.001 284.861C325.948 236.097 329.372 209.794 323.419 185.578L280.438 183.038C280.438 183.038 293.782 254.714 301.145 287.135C308.509 319.555 316.432 398.306 316.432 398.306L337.56 398.559C337.56 398.559 340.145 322.906 330.001 284.861Z" fill="#0A1B35"/>
<path d="M316.489 401.922L336.484 402.214C336.898 402.219 337.298 402.072 337.601 401.805C337.906 401.538 338.091 401.171 338.119 400.778L338.552 394.502C338.57 394.294 338.542 394.086 338.471 393.889C338.401 393.692 338.29 393.511 338.144 393.356C337.996 393.202 337.819 393.078 337.62 392.991C337.422 392.905 337.206 392.857 336.988 392.853L315.231 392.214C314.99 392.206 314.749 392.25 314.527 392.343C314.306 392.435 314.109 392.574 313.951 392.749C313.794 392.925 313.68 393.131 313.619 393.354C313.557 393.577 313.55 393.81 313.596 394.036L314.994 400.685C315.068 401.018 315.254 401.318 315.524 401.541C315.793 401.764 316.133 401.898 316.489 401.922Z" fill="#0A1B35"/>
<path opacity="0.1" d="M316.489 401.922L336.484 402.214C336.898 402.219 337.298 402.072 337.601 401.805C337.906 401.538 338.091 401.171 338.119 400.778L338.552 394.502C338.57 394.294 338.542 394.086 338.471 393.889C338.401 393.692 338.29 393.511 338.144 393.356C337.996 393.202 337.819 393.078 337.62 392.991C337.422 392.905 337.206 392.857 336.988 392.853L315.231 392.214C314.99 392.206 314.749 392.25 314.527 392.343C314.306 392.435 314.109 392.574 313.951 392.749C313.794 392.925 313.68 393.131 313.619 393.354C313.557 393.577 313.55 393.81 313.596 394.036L314.994 400.685C315.068 401.018 315.254 401.318 315.524 401.541C315.793 401.764 316.133 401.898 316.489 401.922Z" fill="white"/>
<path d="M279.055 108.023C277.405 111.414 275.687 114.419 273.815 117.518C271.942 120.616 269.972 123.622 267.792 126.574C265.588 129.622 263.18 132.531 260.582 135.284C257.699 138.453 254.32 141.18 250.563 143.369L250.075 143.635C249.239 144.103 248.308 144.397 247.346 144.498C246.382 144.598 245.407 144.504 244.484 144.22C241.76 143.382 239.119 142.438 236.534 141.428C233.949 140.417 231.434 139.3 228.96 138.13C226.487 136.96 224.07 135.723 221.694 134.393C219.319 133.063 216.999 131.733 214.707 130.124C213.887 129.571 213.295 128.762 213.034 127.837C212.774 126.913 212.861 125.931 213.28 125.06C213.7 124.19 214.425 123.487 215.33 123.071C216.236 122.655 217.267 122.554 218.243 122.784H218.397C220.897 123.356 223.482 124.047 225.998 124.672L233.557 126.574C236.059 127.225 238.574 127.771 241.047 128.356C243.521 128.941 245.993 129.393 248.425 129.872L242.403 130.736C244.495 129.085 246.372 127.201 247.992 125.124C249.906 122.784 251.75 120.204 253.581 117.544C255.411 114.885 257.075 112.106 258.723 109.286C260.372 106.467 262.049 103.555 263.53 100.869L263.614 100.722C264.728 98.9572 266.499 97.6559 268.577 97.0776C270.653 96.4994 272.883 96.6867 274.82 97.6022C276.758 98.5177 278.263 100.094 279.035 102.018C279.806 103.942 279.789 106.071 278.985 107.983L279.055 108.023Z" fill="#FED4C2"/>
<path d="M282.492 84.7789C265.808 86.5874 253.148 111.175 253.148 111.175L270.363 128.609C270.363 128.609 278.035 119.912 286.279 108.915C295.278 96.9332 295.696 83.356 282.492 84.7789Z" fill="#FFEAAD"/>
<path d="M280.438 88.4615C286.852 86.2939 315.58 89.7913 315.58 89.7913C309.991 96.653 305.324 153.475 304.808 186.135C298.7 186.933 275.282 185.404 269.874 184.207C270.572 171.388 276.189 111.254 280.438 88.4615Z" fill="white"/>
<path d="M261.894 105.695C262.648 99.7861 265.656 94.3463 270.347 90.4091C275.039 86.4719 281.086 84.3116 287.34 84.3386C299.344 84.43 311.306 85.6865 323.042 88.0887C324.87 88.4569 326.602 89.1701 328.135 90.1863C329.668 91.2024 330.971 92.5009 331.968 94.0047C332.964 95.5086 333.633 97.1874 333.937 98.9419C334.24 100.696 334.17 102.491 333.731 104.219C324.887 139.525 327.22 173.023 324.858 188.608C316.439 191.554 307.497 192.909 298.533 192.598C298.533 192.598 298.742 179.153 300.712 156.454C302.278 138.408 305.087 95.9744 310.871 88.9265C310.871 88.9265 290.135 86.2669 283.721 88.4078C278.956 114.006 275.463 191.547 275.463 191.56C265.318 190.869 260.539 185.497 260.693 183.901C258.639 152.531 259.673 124.086 261.894 105.695Z" fill="#FFEAAD"/>
<path d="M311.612 66.4263C309.67 71.7455 307.42 81.1738 311.011 86.4664C311.193 86.7123 311.316 86.9935 311.371 87.2899C311.424 87.5863 311.408 87.8905 311.324 88.1805C311.24 88.4704 311.09 88.739 310.883 88.9669C310.677 89.1948 310.42 89.3763 310.131 89.4983C304.359 92.6669 297.688 94.0342 291.058 93.4079C282.044 92.7164 282.674 88.8467 284.993 86.3334C285.541 85.753 286.3 85.3918 287.117 85.3227C295.627 84.352 295.711 79.4716 294.481 74.6843L311.612 66.4263Z" fill="#FED4C2"/>
<path opacity="0.2" d="M304.626 69.8174L294.495 74.7243C294.816 75.8576 294.998 77.0222 295.04 78.1951C298.729 78.1951 303.955 75.8414 304.556 73.1419C304.865 72.0559 304.888 70.9143 304.626 69.8174Z" fill="#334D74"/>
<path d="M298.102 47.9387C298.483 43.1418 295.741 39.0339 291.978 38.7634C288.216 38.4928 284.856 42.1622 284.475 46.959C284.094 51.7558 286.836 55.8637 290.6 56.1343C294.363 56.4048 297.722 52.7355 298.102 47.9387Z" fill="#0A1B35"/>
<path d="M317.09 51.8925C315.217 62.3846 314.673 68.6213 308.552 73.5017C299.344 80.8289 286.419 74.632 285.021 63.8208C283.75 54.0999 287.02 38.5546 298.171 35.4162C309.321 32.2779 318.962 41.387 317.09 51.8925Z" fill="#FED4C2"/>
<path d="M314.687 60.7621C314.547 60.7621 314.38 60.5892 314.226 60.669C309.224 63.3286 307.603 57.6105 307.91 53.8072C308.012 52.5385 308.396 51.3047 309.034 50.1864C309.672 49.0681 310.551 48.0906 311.613 47.3178C306.191 47.9029 300.938 44.5784 300.853 41.48C294.859 43.9933 287.635 44.1396 284.379 38.8204C281.124 33.5012 285.777 26.5463 291.981 28.3947C289.465 24.1128 300.099 15.5489 311.236 28.182C311.585 19.0196 327.151 28.182 324.595 37.1847C331.804 39.5518 337.981 52.5838 325.754 55.3631C324.944 67.4377 314.687 60.7621 314.687 60.7621Z" fill="#0A1B35"/>
<path d="M320.583 64.0599C318.89 66.0361 316.473 67.3286 313.82 67.6769C310.466 68.036 309.726 64.7912 311.444 61.8391C312.995 59.1795 316.6 55.8018 319.591 56.8391C322.581 57.8763 322.763 61.5332 320.583 64.0599Z" fill="#FED4C2"/>
<path d="M301.105 52.6776C301.021 53.5552 300.475 54.2068 299.875 54.1536C299.274 54.1004 298.855 53.3558 298.939 52.4781C299.022 51.6004 299.567 50.9621 300.168 51.0153C300.769 51.0685 301.174 51.8132 301.105 52.6776Z" fill="#0A1B35"/>
<path d="M290.275 51.5325C290.192 52.3969 289.647 53.0485 289.046 52.9953C288.445 52.9421 288.04 52.1974 288.11 51.3331C288.18 50.4687 288.739 49.8038 289.339 49.857C289.94 49.9102 290.415 50.6549 290.275 51.5325Z" fill="#0A1B35"/>
<path d="M294.509 52.0254C293.173 54.5748 291.476 56.9374 289.464 59.0467C290.044 59.5276 290.727 59.8826 291.465 60.087C292.203 60.2913 292.98 60.3402 293.74 60.2303L294.509 52.0254Z" fill="#E89470"/>
<path d="M296.564 64.4594C297.578 64.5272 298.597 64.3983 299.558 64.0806C300.518 63.7628 301.402 63.2629 302.153 62.611C302.178 62.5866 302.197 62.5577 302.211 62.5261C302.224 62.4945 302.23 62.4607 302.229 62.4268C302.229 62.3928 302.221 62.3593 302.207 62.3282C302.192 62.297 302.172 62.2689 302.146 62.2453C302.121 62.2217 302.09 62.2032 302.057 62.1908C302.024 62.1783 301.988 62.1723 301.952 62.1729C301.917 62.1735 301.882 62.1808 301.85 62.1944C301.816 62.2079 301.786 62.2275 301.762 62.2519C300.911 62.9685 299.894 63.483 298.794 63.7535C297.694 64.0239 296.541 64.0425 295.432 63.8078C295.398 63.8001 295.363 63.7992 295.328 63.8053C295.294 63.8113 295.261 63.8241 295.232 63.8429C295.203 63.8617 295.178 63.886 295.16 63.9143C295.141 63.9426 295.13 63.9743 295.125 64.0073C295.112 64.0741 295.127 64.143 295.166 64.1999C295.204 64.2567 295.265 64.2973 295.335 64.3131C295.781 64.3796 296.172 64.4328 296.564 64.4594Z" fill="#0A1B35"/>
<path d="M304.681 50.5627C304.769 50.582 304.86 50.582 304.947 50.5627C305.011 50.5355 305.07 50.4961 305.119 50.4471C305.168 50.398 305.206 50.3401 305.23 50.2769C305.255 50.2137 305.266 50.1464 305.263 50.079C305.26 50.0116 305.243 49.9455 305.212 49.8845C304.884 49.1322 304.375 48.4642 303.723 47.9351C303.073 47.4059 302.299 47.0304 301.468 46.8393C301.327 46.82 301.184 46.8537 301.07 46.9332C300.954 47.0127 300.877 47.1317 300.852 47.2648C300.832 47.3986 300.868 47.5346 300.951 47.6438C301.035 47.7531 301.16 47.8271 301.3 47.85C301.956 48.011 302.563 48.3162 303.073 48.7412C303.582 49.1661 303.981 49.6989 304.235 50.2968C304.281 50.3719 304.346 50.4353 304.424 50.4816C304.502 50.5279 304.59 50.5557 304.681 50.5627Z" fill="#0A1B35"/>
<path d="M285.734 47.2915C285.821 47.3135 285.911 47.3153 286 47.2968C286.087 47.2783 286.169 47.24 286.237 47.1852C286.735 46.7557 287.332 46.444 287.98 46.2754C288.629 46.1067 289.309 46.0858 289.968 46.2144C290.103 46.2513 290.249 46.2357 290.372 46.1709C290.495 46.106 290.586 45.9973 290.625 45.8686C290.664 45.7382 290.648 45.5982 290.58 45.4789C290.512 45.3596 290.398 45.2703 290.262 45.2303C289.43 45.0501 288.566 45.0636 287.741 45.2697C286.916 45.4757 286.156 45.8683 285.525 46.4139C285.474 46.4609 285.435 46.5168 285.408 46.5784C285.381 46.64 285.367 46.7061 285.367 46.7729C285.367 46.8397 285.381 46.9058 285.408 46.9674C285.435 47.029 285.474 47.085 285.525 47.1319C285.578 47.2022 285.651 47.2574 285.734 47.2915Z" fill="#0A1B35"/>
<path d="M337.058 103.502C337.967 105.191 338.707 106.654 339.434 108.236C340.16 109.819 340.831 111.348 341.557 112.917C342.955 116.055 344.171 119.247 345.316 122.478C347.647 129.014 349.432 135.715 350.654 142.518L351.031 145.178L351.227 146.508V146.827V147.412C351.227 147.838 351.297 148.263 351.297 148.742C351.242 151.166 350.737 153.561 349.802 155.816C348.411 159.26 346.64 162.554 344.52 165.644C342.596 168.535 340.511 171.327 338.274 174.008C336.082 176.676 333.75 179.237 331.287 181.681C330.58 182.394 329.626 182.842 328.601 182.943C327.576 183.043 326.546 182.79 325.7 182.23C324.854 181.67 324.248 180.839 323.99 179.889C323.734 178.939 323.844 177.933 324.3 177.053V176.947C327.193 171.215 330.253 165.418 332.685 159.766C333.313 158.356 333.872 156.947 334.362 155.577C334.848 154.298 335.254 152.993 335.577 151.667C335.803 150.844 335.884 149.99 335.815 149.141C335.815 149.141 335.815 149.221 335.815 149.141L335.744 148.875L335.48 147.771L334.963 145.577C333.351 139.622 331.376 133.761 329.052 128.024C327.934 125.098 326.663 122.212 325.432 119.313C324.817 117.877 324.161 116.441 323.504 115.018L321.548 110.869L321.436 110.63C320.455 108.672 320.329 106.424 321.089 104.379C321.849 102.334 323.431 100.66 325.489 99.7254C327.545 98.7908 329.907 98.672 332.056 99.3952C334.205 100.118 335.964 101.624 336.947 103.582L337.058 103.502Z" fill="#FED4C2"/>
<path d="M324.482 88.4627C343.094 92.9308 348.236 115.577 348.236 115.577L325.124 131.349C325.124 131.349 319.396 125.644 317.663 112.24C316.866 105.843 320.709 88.2898 324.482 88.4627Z" fill="#FFEAAD"/>
<path d="M327.348 174.233L316.588 178.063L324.832 188.569C324.832 188.569 334.124 183.981 332.364 178.888L327.348 174.233Z" fill="#FED4C2"/>
<path d="M308.581 179.553C305.683 179.089 302.708 179.345 299.944 180.297L305.282 150.111C305.695 147.754 305.109 145.337 303.653 143.39C302.196 141.443 299.989 140.125 297.513 139.725L204.731 124.858C202.259 124.469 199.724 125.026 197.682 126.409C195.64 127.792 194.256 129.888 193.831 132.238L188.41 162.491C191.17 161.527 194.149 161.27 197.046 161.747C199.622 162.158 202.065 163.126 204.186 164.577C206.307 166.028 208.051 167.923 209.282 170.116C210.512 172.309 211.199 174.741 211.286 177.226C211.374 179.711 210.861 182.182 209.789 184.448C208.716 186.715 207.11 188.717 205.096 190.301C203.081 191.884 200.713 193.007 198.171 193.582C195.63 194.157 192.983 194.17 190.436 193.619C187.889 193.068 185.508 191.968 183.477 190.404L178.125 220.59C177.713 222.947 178.299 225.364 179.755 227.311C181.211 229.258 183.419 230.576 185.895 230.976L278.678 245.843C281.152 246.233 283.688 245.675 285.732 244.293C287.776 242.91 289.163 240.814 289.591 238.463L294.928 208.263C296.961 209.802 299.337 210.88 301.874 211.413C304.41 211.947 307.041 211.923 309.566 211.343C312.093 210.762 314.445 209.641 316.447 208.065C318.448 206.489 320.045 204.498 321.116 202.246C322.187 199.993 322.704 197.538 322.628 195.067C322.551 192.595 321.883 190.173 320.673 187.985C319.465 185.796 317.747 183.899 315.652 182.438C313.555 180.977 311.137 179.99 308.581 179.553Z" fill="#FFCF46"/>
<path opacity="0.6" d="M308.581 179.553C305.683 179.089 302.708 179.345 299.944 180.297L305.282 150.111C305.695 147.754 305.109 145.337 303.653 143.39C302.196 141.443 299.989 140.125 297.513 139.725L204.731 124.858C202.259 124.469 199.724 125.026 197.682 126.409C195.64 127.792 194.256 129.888 193.831 132.238L188.41 162.491C191.17 161.527 194.149 161.27 197.046 161.747C199.622 162.158 202.065 163.126 204.186 164.577C206.307 166.028 208.051 167.923 209.282 170.116C210.512 172.309 211.199 174.741 211.286 177.226C211.374 179.711 210.861 182.182 209.789 184.448C208.716 186.715 207.11 188.717 205.096 190.301C203.081 191.884 200.713 193.007 198.171 193.582C195.63 194.157 192.983 194.17 190.436 193.619C187.889 193.068 185.508 191.968 183.477 190.404L178.125 220.59C177.713 222.947 178.299 225.364 179.755 227.311C181.211 229.258 183.419 230.576 185.895 230.976L278.678 245.843C281.152 246.233 283.688 245.675 285.732 244.293C287.776 242.91 289.163 240.814 289.591 238.463L294.928 208.263C296.961 209.802 299.337 210.88 301.874 211.413C304.41 211.947 307.041 211.923 309.566 211.343C312.093 210.762 314.445 209.641 316.447 208.065C318.448 206.489 320.045 204.498 321.116 202.246C322.187 199.993 322.704 197.538 322.628 195.067C322.551 192.595 321.883 190.173 320.673 187.985C319.465 185.796 317.747 183.899 315.652 182.438C313.555 180.977 311.137 179.99 308.581 179.553Z" fill="#FFCF46"/>
<path d="M311.556 188.383L315.091 191.601C315.771 192.224 316.663 192.596 317.605 192.649C318.548 192.703 319.48 192.435 320.233 191.894L324.83 188.609L316.586 178.104L311.486 182.971C311.11 183.327 310.814 183.751 310.614 184.218C310.413 184.686 310.314 185.186 310.321 185.691C310.327 186.195 310.44 186.693 310.652 187.156C310.864 187.618 311.171 188.035 311.556 188.383Z" fill="#FED4C2"/>
<path d="M207.972 127.691L209.257 123.157C209.472 122.623 209.858 122.167 210.359 121.852C210.86 121.538 211.452 121.38 212.052 121.401C213.873 121.331 215.69 121.597 217.404 122.186L224.67 124.739L224.321 127.558C224.027 129.978 221.191 132 217.976 132.093C215.819 132.12 213.666 131.901 211.563 131.441L210.78 131.282C210.335 131.252 209.902 131.131 209.51 130.927C209.118 130.723 208.778 130.441 208.511 130.1C208.244 129.759 208.058 129.367 207.964 128.951C207.872 128.536 207.874 128.106 207.972 127.691Z" fill="#FED4C2"/>
<path d="M93.5163 65.0975C98.1702 59.9512 105.171 46.5867 92.0074 41.4803C82.2961 37.7036 61.6854 39.6318 49.8501 57.1719C41.7596 59.8315 39.3701 76.9593 58.0524 80.5631C76.7343 84.1668 93.5163 65.0975 93.5163 65.0975Z" fill="#0A1B35"/>
<path d="M135.729 395.087L114.379 396.776L117.998 420.659L135.842 419.276L135.729 395.087Z" fill="#FED4C2"/>
<path opacity="0.2" d="M135.729 395.101L114.364 396.79L116.403 410.168L135.799 408.638L135.729 395.101Z" fill="#334D74"/>
<path d="M94.9127 324.781C86.5295 294.195 64.8141 257.785 78.5783 228.357L138.398 228.184C138.398 228.184 139.879 288.756 140.298 317.281C140.717 347.108 138.105 403.226 138.105 403.226L113.638 404.994C113.638 404.994 96.8692 359.076 94.9127 324.781Z" fill="#55A1FF"/>
<path d="M112.422 405.913L138.858 404.064C139.084 404.046 139.296 403.951 139.454 403.798C139.613 403.644 139.71 403.442 139.725 403.227L140.284 393.918C140.294 393.789 140.273 393.659 140.223 393.539C140.174 393.418 140.096 393.31 139.998 393.221C139.899 393.132 139.781 393.065 139.652 393.024C139.523 392.984 139.385 392.971 139.25 392.987L109.906 396.697C109.773 396.711 109.645 396.753 109.53 396.82C109.416 396.886 109.318 396.976 109.244 397.083C109.172 397.19 109.123 397.311 109.105 397.437C109.087 397.564 109.097 397.693 109.138 397.814L111.457 405.288C111.522 405.479 111.652 405.645 111.827 405.758C112.002 405.871 112.211 405.926 112.422 405.913Z" fill="#0A1B35"/>
<path opacity="0.2" d="M78.3693 257.307C78.1381 264.531 78.446 271.761 79.2919 278.943C82.212 288.557 85.9433 298.185 89.2964 307.52C93.6844 281.084 93.6981 250.272 78.3693 257.307Z" fill="#334D74"/>
<path d="M56.6963 396.576L35.2614 396.776L35.2334 420.845L53.1471 420.712L56.6963 396.576Z" fill="#FED4C2"/>
<path d="M33.5426 417.149C33.5637 417.015 33.6139 416.886 33.6903 416.772C33.7666 416.658 33.8672 416.56 33.9857 416.485C34.1041 416.409 34.2378 416.359 34.3781 416.336C34.5183 416.313 34.6622 416.318 34.8003 416.351C40.18 418.386 50.3804 416.83 54.2371 416.125C54.6628 416.041 55.102 416.042 55.5275 416.126C55.9529 416.211 56.3555 416.378 56.7103 416.617C59.865 418.543 63.2833 420.046 66.8684 421.085C67.6387 423.042 67.8309 425.162 67.4274 427.215H31.293C32.3124 423.92 33.0646 420.554 33.5426 417.149Z" fill="#0A1B35"/>
<path d="M115.636 417.149C115.657 417.015 115.708 416.886 115.784 416.772C115.86 416.658 115.961 416.56 116.079 416.485C116.198 416.409 116.331 416.359 116.472 416.336C116.612 416.313 116.756 416.318 116.894 416.351C122.273 418.386 132.474 416.83 136.331 416.125C136.756 416.041 137.195 416.042 137.621 416.126C138.046 416.211 138.449 416.378 138.804 416.617C142.912 419.383 153.867 421.085 153.867 421.085C154.636 423.042 154.825 425.163 154.412 427.215H113.387C114.406 423.92 115.158 420.554 115.636 417.149Z" fill="#0A1B35"/>
<path opacity="0.2" d="M56.6963 396.59L35.2474 396.777L35.2334 410.261L54.7121 410.101L56.6963 396.59Z" fill="#334D74"/>
<path d="M32.2424 314.887C29.336 283.996 20.2254 242.386 30.5657 228.184H100.572C100.572 228.184 86.3048 289.78 80.4499 318.291C74.3721 347.933 56.8914 404.848 56.8914 404.848L33.7096 404.915C33.7096 404.915 24.9205 350.153 32.2424 314.887Z" fill="#55A1FF"/>
<path opacity="0.2" d="M36.4482 398.598C36.2976 398.596 36.1516 398.549 36.0311 398.463C35.9106 398.377 35.8218 398.257 35.7775 398.12C34.1147 392.801 34.3802 331.696 38.5722 314.967C38.5722 312.76 38.0831 308.425 37.5242 302.933C35.6099 284.315 32.0607 249.741 37.3565 230.126C37.4028 229.95 37.5208 229.798 37.6847 229.705C37.8485 229.611 38.0446 229.583 38.2298 229.627C38.4152 229.671 38.5745 229.784 38.6727 229.94C38.771 230.096 38.8002 230.282 38.7538 230.459C33.5139 249.86 37.0492 284.302 38.9495 302.813C39.5224 308.398 39.9835 312.8 40.0114 315.034C40.0183 315.091 40.0183 315.149 40.0114 315.207C35.9871 331.031 35.5959 392.601 37.2167 397.747C37.2692 397.915 37.2503 398.095 37.1639 398.25C37.0776 398.404 36.9309 398.52 36.7557 398.572C36.6581 398.609 36.5513 398.618 36.4482 398.598Z" fill="white"/>
<path d="M32.1037 405.74H58.3594C58.5694 405.746 58.7743 405.679 58.9362 405.552C59.0981 405.424 59.2061 405.246 59.2398 405.048L60.9725 396.179C60.9974 396.044 60.9907 395.906 60.9527 395.775C60.9146 395.644 60.8462 395.522 60.7526 395.419C60.6589 395.316 60.5422 395.234 60.4111 395.179C60.28 395.124 60.1376 395.097 59.9944 395.101L31.405 396.312C31.2844 396.315 31.1656 396.341 31.0564 396.39C30.947 396.439 30.8493 396.508 30.7694 396.594C30.6894 396.68 30.6289 396.781 30.5917 396.89C30.5544 396.999 30.5411 397.115 30.5526 397.229L31.1395 404.889C31.1603 405.119 31.2706 405.334 31.4488 405.492C31.6271 405.649 31.8605 405.737 32.1037 405.74Z" fill="#0A1B35"/>
<path d="M124.355 120.589C125.752 125.909 127.037 131.228 128.282 136.547C129.525 141.866 130.698 147.185 131.789 152.505L133.465 160.483L135.031 168.462C136.107 173.781 137.057 179.18 138.035 184.553L135.757 179.699C136.062 180.694 136.718 181.559 137.616 182.146C139.404 183.296 141.419 184.088 143.54 184.473C146.367 185.094 149.249 185.455 152.148 185.55C153.699 185.63 155.292 185.683 156.899 185.657C157.695 185.657 158.505 185.657 159.316 185.657C160.127 185.657 161.007 185.657 161.566 185.657L163.55 185.79C165.22 185.892 166.809 186.507 168.079 187.544C169.348 188.581 170.23 189.982 170.589 191.537C170.949 193.092 170.767 194.716 170.072 196.165C169.378 197.613 168.206 198.807 166.736 199.566C165.618 200.151 164.821 200.59 163.871 201.056C162.922 201.521 162.041 201.92 161.076 202.385C159.204 203.157 157.289 203.888 155.306 204.5C153.292 205.128 151.244 205.651 149.171 206.069C146.988 206.483 144.781 206.776 142.562 206.947C140.165 207.109 137.756 207.074 135.366 206.84C132.708 206.628 130.089 206.101 127.569 205.271C124.741 204.375 122.057 203.113 119.589 201.521C116.989 199.806 114.672 197.731 112.715 195.364C111.871 194.366 111.244 193.218 110.87 191.986L110.437 190.51C108.9 185.271 107.322 180.045 105.868 174.779L103.646 166.906L101.536 159.007C100.139 153.688 98.742 148.449 97.4705 143.156C96.1991 137.864 94.9266 132.518 93.8233 127.199C93.032 123.392 93.8327 119.443 96.0551 116.19C98.2786 112.937 101.747 110.638 105.723 109.782C109.7 108.926 113.87 109.581 117.347 111.607C120.824 113.632 123.333 116.87 124.341 120.629L124.355 120.589Z" fill="#FED4C2"/>
<path d="M160.588 186.974L160.881 195.565C164.528 203.903 174.98 197.573 174.98 197.573L181.295 196.469C182.396 196.203 183.36 195.575 184.02 194.696C184.68 193.817 184.992 192.745 184.901 191.669L184.734 185.658C184.776 184.417 184.307 183.21 183.427 182.293C182.548 181.377 181.326 180.823 180.024 180.751L174.435 180.857C172.804 180.884 171.205 181.295 169.782 182.054L160.588 186.974Z" fill="#FED4C2"/>
<path d="M113.651 105.777C126.508 112.213 134.905 134.926 134.905 134.926C132.194 145.564 121.267 164.966 111.15 164.846C111.15 164.846 96.2966 146.615 94.69 133.423C92.7334 117.479 87.6613 92.7713 113.651 105.777Z" fill="#0A1B35"/>
<path d="M101.776 102C81.9358 100.205 61.9483 100.508 42.1792 102.904C30.749 104.433 22.6166 111.202 24.0139 133.489C26.8085 178.703 22.4768 213.942 28.5132 230.193C28.5132 230.193 116.433 254.129 141.501 231.19C147.594 176.788 127.08 131.628 117.746 112.838C116.285 109.879 114.048 107.328 111.25 105.43C108.454 103.532 105.191 102.351 101.776 102Z" fill="#0A1B35"/>
<path d="M95.1651 106.946C92.8881 104.818 90.4986 106.055 89.3942 102.85C88.9077 100.334 89.3522 97.7355 90.652 95.4964L63.5301 81.5601C64.061 91.0548 64.4665 98.5549 60.0368 102.332C58.7512 109.406 72.6122 116.467 91.0713 116.574C102.823 116.64 98.4498 110.004 95.1651 106.946Z" fill="#FED4C2"/>
<path opacity="0.2" d="M90.2464 96.2938L68.8398 91.2007C74.2472 99.2992 83.9869 103.727 89.2261 101.773C89.0768 99.8937 89.4278 98.0093 90.2464 96.2938Z" fill="#334D74"/>
<path d="M81.3873 49.8312C67.2186 46.8392 54.9782 58.0361 57.717 70.2437C60.4557 82.4512 62.6216 90.696 71.4942 94.845C89.1284 103.116 97.7364 95.1375 99.176 82.3847C100.475 70.8952 95.7662 52.8499 81.3873 49.8312Z" fill="#FED4C2"/>
<path d="M59.5048 80.5622C67.4276 82.2511 70.6829 78.4745 70.6829 74.2457C70.6829 69.751 66.2255 62.1578 61.3353 60.7615C63.0819 50.788 91.9644 64.7509 89.2124 50.9343C89.2124 50.9343 88.4295 48.5673 80.9679 47.2375C73.5063 45.9077 53.5661 50.1896 54.9634 64.3786C56.3607 78.5675 59.5048 80.5622 59.5048 80.5622Z" fill="#0A1B35"/>
<path d="M49.416 57.8764C51.3554 54.173 51.9029 49.949 50.9671 45.9082C50.9671 45.9082 59.6585 51.3737 49.416 57.8764Z" fill="#0A1B35"/>
<path d="M85.8593 84.3538C86.4519 84.3113 87.0404 84.2269 87.6193 84.1012C87.6645 84.0917 87.7076 84.0739 87.7454 84.0487C87.7833 84.0235 87.8148 83.9914 87.84 83.9543C87.8642 83.9172 87.881 83.8759 87.8883 83.8326C87.8967 83.7893 87.8957 83.745 87.8852 83.7022C87.8768 83.6584 87.8589 83.6167 87.8337 83.5798C87.8074 83.5428 87.7738 83.5115 87.7339 83.4877C87.695 83.4639 87.6509 83.4482 87.6046 83.4416C87.5584 83.4351 87.5111 83.4378 87.4659 83.4495C86.0148 83.7864 84.5006 83.796 83.0453 83.4773C81.59 83.1587 80.2323 82.5208 79.0817 81.6144C79.0492 81.5823 79.0103 81.5567 78.9672 81.5392C78.9241 81.5217 78.8768 81.5127 78.8306 81.5127C78.7833 81.5127 78.7371 81.5217 78.694 81.5392C78.6509 81.5567 78.611 81.5823 78.5784 81.6144C78.5143 81.6788 78.4775 81.7646 78.4775 81.8538C78.4775 81.943 78.5143 82.0288 78.5784 82.0932C79.5746 82.9102 80.7304 83.5308 81.9808 83.9189C83.2302 84.307 84.549 84.4548 85.8593 84.3538Z" fill="#0A1B35"/>
<path d="M54.4892 81.1483C55.3959 82.3181 56.5367 83.3057 57.8461 84.0543C59.1555 84.8029 60.6075 85.2976 62.1186 85.51C66.1846 86.042 67.7082 82.4648 66.1426 79.0871C64.7461 76.0419 60.9448 72.1057 57.0882 73.1163C53.2315 74.127 52.2814 78.236 54.4892 81.1483Z" fill="#FED4C2"/>
<path d="M80.9135 71.6399C81.0805 72.717 81.8077 73.5149 82.5474 73.4085C83.2882 73.3021 83.7632 72.3314 83.5961 71.2542C83.428 70.1771 82.7156 69.3925 81.9748 69.4989C81.234 69.6053 80.8157 70.5096 80.9135 71.6399Z" fill="#0A1B35"/>
<path d="M94.23 69.9381C94.397 71.0285 95.1242 71.8131 95.865 71.7067C96.6058 71.6003 97.0807 70.6429 96.9126 69.5657C96.7455 68.4886 96.0321 67.6907 95.2923 67.7971C94.5515 67.9035 94.0765 68.861 94.23 69.9381Z" fill="#0A1B35"/>
<path d="M89.1987 71.3604L89.8418 80.4828C89.8418 80.4828 92.9857 81.0013 94.6901 79.2726C93.6078 76.2284 91.7164 73.5025 89.1987 71.3604Z" fill="#E89470"/>
<path d="M76.5252 69.1803C76.4106 69.21 76.2898 69.2096 76.1763 69.1792C76.0618 69.1488 75.9588 69.0896 75.8768 69.0077C75.7949 68.9259 75.7381 68.8246 75.7119 68.7145C75.6867 68.6044 75.6919 68.4897 75.7287 68.3825C75.9945 67.3939 76.5031 66.4795 77.2124 65.7143C77.9217 64.9491 78.8117 64.355 79.8089 63.9808C79.978 63.9306 80.1609 63.9457 80.3174 64.0229C80.474 64.1001 80.5927 64.2331 80.6474 64.3931C80.701 64.5553 80.6852 64.731 80.6043 64.8825C80.5234 65.0341 80.3836 65.1495 80.2145 65.2042C79.4264 65.5099 78.7265 65.9885 78.1707 66.6009C77.6138 67.2134 77.2176 67.9423 77.0148 68.7282C76.9833 68.8383 76.9213 68.9383 76.8352 69.0178C76.749 69.0973 76.6418 69.1535 76.5252 69.1803Z" fill="#0A1B35"/>
<path d="M98.6023 65.0974C98.4919 65.1071 98.3805 65.0888 98.2797 65.0445C98.1798 65.0001 98.0926 64.9312 98.0296 64.8447C97.5504 64.1842 96.9126 63.6426 96.1686 63.2654C95.4247 62.8883 94.5967 62.6865 93.754 62.6772C93.568 62.6772 93.3904 62.6071 93.259 62.4824C93.1287 62.3577 93.0552 62.1886 93.0552 62.0123C93.0552 61.8359 93.1287 61.6668 93.259 61.5421C93.3904 61.4174 93.568 61.3474 93.754 61.3474C94.8184 61.3393 95.8681 61.577 96.8149 62.0403C97.7616 62.5035 98.577 63.1784 99.1886 64.007C99.2401 64.0751 99.2768 64.1521 99.2968 64.2338C99.3178 64.3154 99.3199 64.4 99.3063 64.4828C99.2916 64.5655 99.2611 64.6447 99.2138 64.716C99.1676 64.7872 99.1066 64.849 99.0352 64.8979C98.9816 64.9578 98.9154 65.0064 98.8408 65.0407C98.7662 65.0751 98.6853 65.0943 98.6023 65.0974Z" fill="#0A1B35"/>
<path d="M180.025 152.066C177.1 152.262 174.277 153.178 171.836 154.725L169.307 124.14C169.1 121.761 167.914 119.556 166.006 118.006C164.097 116.457 161.622 115.688 159.121 115.869L65.3176 122.903C62.8195 123.103 60.5049 124.234 58.8775 126.049C57.25 127.865 56.4411 130.218 56.6267 132.597L64.0325 221.867C64.2322 224.249 65.4174 226.458 67.3267 228.009C69.237 229.56 71.7158 230.326 74.2188 230.138L168.007 223.09C170.51 222.897 172.83 221.769 174.461 219.952C176.093 218.136 176.902 215.779 176.713 213.396L174.17 182.877C176.833 184.065 179.776 184.569 182.708 184.34C186.918 183.666 190.709 181.515 193.336 178.311C195.962 175.108 197.233 171.084 196.895 167.034C196.559 162.983 194.64 159.2 191.517 156.429C188.395 153.659 184.294 152.102 180.025 152.066Z" fill="#55A1FF"/>
<path d="M44.0087 139.858L42.6113 142.305L41.0045 145.045C39.9704 146.906 38.9084 148.768 37.9443 150.656C36.0067 154.336 34.2717 158.109 32.7462 161.96C32.0056 163.821 31.3488 165.67 30.8598 167.492C30.3018 169.236 29.8631 171.013 29.5463 172.811C28.96 175.703 28.8609 178.666 29.2528 181.587L26.039 176.268C27.3771 178.015 28.9724 179.569 30.776 180.883C33.1467 182.683 35.6342 184.34 38.2237 185.843C40.9206 187.492 43.813 189.074 46.7195 190.657L51.163 193.01C52.5603 193.808 54.2372 194.606 55.5646 195.377L56.2353 195.763C57.7187 196.619 58.8653 197.915 59.4987 199.451C60.1322 200.988 60.2172 202.68 59.7406 204.268C59.2641 205.855 58.2525 207.249 56.8616 208.235C55.4708 209.222 53.7778 209.745 52.0433 209.726C49.9194 209.726 48.1028 209.593 46.1466 209.447C44.1903 209.3 42.3319 209.074 40.4315 208.782C36.5692 208.23 32.747 207.448 28.9874 206.441C25.0084 205.38 21.129 204.006 17.3895 202.332C12.969 200.395 8.90626 197.79 5.3585 194.62C4.08202 193.461 3.12254 192.023 2.56384 190.431L2.17264 189.287C-0.0154032 182.971 -0.833016 176.298 -0.230814 169.672C0.243929 163.901 1.40651 158.199 3.23466 152.678C4.93693 147.489 7.04826 142.43 9.55049 137.544C10.7662 135.151 12.0098 132.784 13.4072 130.483C14.0919 129.326 14.8045 128.169 15.5311 127.026L16.6769 125.297L17.2777 124.419L18.0043 123.395C20.2492 120.163 23.7306 117.891 27.7081 117.063C31.6856 116.235 35.8457 116.916 39.3036 118.962C42.7616 121.007 45.2448 124.256 46.2252 128.017C47.2057 131.777 46.606 135.754 44.5536 139.1L44.0087 139.858Z" fill="#FED4C2"/>
<path d="M33.0956 105.776C9.92791 117.558 1.29248 143.875 1.29248 143.875C5.87567 152.186 33.5149 161.162 43.911 158.716C43.911 158.716 53.874 141.428 55.9281 125.976C57.8284 111.654 46.6637 98.8747 33.0956 105.776Z" fill="#0A1B35"/>
<path d="M49.3042 196.84L49.7793 205.431C53.608 213.702 63.9202 207.173 63.9202 207.173L70.2217 205.95C71.3155 205.663 72.2665 205.016 72.9054 204.125C73.5453 203.234 73.8322 202.156 73.7155 201.082L73.436 195.085C73.4707 193.837 72.9894 192.625 72.0963 191.71C71.2021 190.795 69.9684 190.25 68.6571 190.191L63.0678 190.404C61.4341 190.475 59.8446 190.932 58.4427 191.734L49.3042 196.84Z" fill="#FED4C2"/>
</g>
<defs>
<clipPath id="clip0_85_39">
<rect width="538" height="428" fill="white"/>
</clipPath>
</defs>
</svg>
