<svg width="265" height="257" viewBox="0 0 265 257" fill="none" xmlns="http://www.w3.org/2000/svg">
<path d="M4.87671 251.495H124.593L100.72 83.9005H11.2012L4.87671 251.495Z" fill="#DBDBDB"/>
<path d="M4.87671 251.495H15.3687L21.2637 83.9005H11.2012L4.87671 251.495Z" fill="#A6A6A6"/>
<path d="M75.832 10.8056C64.7153 24.1523 61.5238 46.1456 61.5238 46.1456C61.5238 46.1456 50.8659 68.2802 53.8427 80.3076C54.6301 83.7178 56.0911 86.8466 58.1004 89.4257C60.1096 92.0047 62.6073 93.957 65.379 95.1151L64.3249 88.4712C64.3249 88.4712 67.8971 97.0117 79.8336 100.451C91.7701 103.891 107.562 99.4619 115.78 94.4436C120.65 91.5006 124.806 87.085 127.843 81.627L124.769 91.2866C124.769 91.2866 136.354 90.7918 143.235 75.9137C150.115 61.0355 130.351 39.6548 128.673 35.0488C126.994 30.4429 124.866 -3.11836 95.6155 2.66562C95.6545 2.58316 83.5228 1.61719 75.832 10.8056Z" fill="#263238"/>
<path d="M61.1919 94.1609C58.1468 91.4161 55.1407 88.2709 53.462 84.3835C51.6314 80.3542 50.9815 75.6971 51.6173 71.1663C52.4274 65.7358 54.7991 60.9413 57.1024 56.2646C59.4058 51.588 62.1776 46.8406 64.4908 41.9284C64.6176 41.6574 64.276 41.4336 64.1199 41.6457C61.5209 45.3295 59.0966 49.1877 56.8584 53.2018C54.5687 56.8723 52.6426 60.8535 51.1196 65.0643C49.696 68.9415 49.2284 73.2318 49.7727 77.4215C50.3484 80.8269 51.6011 84.0125 53.4229 86.7041C55.5799 89.9436 58.3029 92.0169 61.0357 94.4554C61.1919 94.6085 61.3578 94.314 61.1919 94.1609Z" fill="#263238"/>
<path d="M145.743 60.529C142.229 48.1718 133.055 40.3263 127.423 29.5476C124.398 23.7165 122.046 17.2611 118.103 12.1957C117.995 12.0543 117.8 12.2782 117.898 12.4195C121.138 16.9784 123.012 22.4679 125.354 27.7335C127.85 32.9153 130.766 37.7847 134.06 42.27C139.858 50.6574 146.797 60.5879 145.47 72.3326C144.855 77.7514 142.2 83.7592 137.593 85.4437C137.418 85.5144 137.525 85.8678 137.701 85.7736C139.517 84.8931 141.167 83.5753 142.548 81.9004C143.929 80.2255 145.013 78.2286 145.733 76.0315C147.285 71.0346 147.289 65.5288 145.743 60.529Z" fill="#263238"/>
<path d="M146.163 63.851C146.479 59.1707 145.586 54.4871 143.605 50.4453C141.585 46.4637 138.413 43.5894 135.241 41.0213C131.581 38.0881 127.726 35.2962 125.403 30.6431C125.305 30.4429 125.071 30.6431 125.159 30.8434C128.848 38.524 135.895 42.1051 140.609 48.5723C146.026 55.9584 146.036 66.7135 142.307 75.1598C139.938 80.3084 136.594 84.7081 132.547 88C132.479 88 132.547 88.1767 132.625 88.1178C139.526 82.6518 145.606 74.2409 146.163 63.851Z" fill="#263238"/>
<path d="M101.93 120.148C131.552 139.773 167.01 164.405 188.736 158.609C198.369 156.041 241.625 87.5994 243.46 79.6833C245.031 72.8862 205.864 45.5213 201.492 50.8812C194.113 59.8693 174.164 110.476 171.236 111.324C168.308 112.173 143.44 106.082 117.556 100.44C92.6485 95.0444 81.3659 106.53 101.93 120.148Z" fill="#EB9481"/>
<path d="M239.253 88.212C242.63 83.0759 256.412 57.8903 258.939 49.8445C261.467 41.7988 267.382 18.0385 262.482 15.0464C257.583 12.0543 255.416 18.8278 255.416 18.8278C255.416 18.8278 256.597 8.30828 251.434 5.86982C246.271 3.43136 243.148 14.1158 243.148 14.1158C243.148 14.1158 243.704 3.20754 238.404 1.15782C233.105 -0.891903 231.465 10.5818 231.465 10.5818C231.465 10.5818 232.363 0.639497 227.424 1.15782C221.49 1.85284 221.568 20.4181 218.211 29.0411C217.45 30.9965 200.438 67.4203 200.438 67.4203L239.253 88.212Z" fill="#EB9481"/>
<path d="M231.582 9.65118C231.582 23.3042 229.63 29.2884 223.774 40.6679C223.657 40.88 223.901 41.1391 224.047 40.9271C230.684 30.4193 234.022 23.3513 232.168 9.61584C232.041 8.94438 231.582 9.00328 231.582 9.65118Z" fill="#263238"/>
<path d="M243.089 13.0438C242.113 27.1798 240.024 33.7295 234.549 46.2046C234.471 46.3813 234.715 46.558 234.803 46.3813C241.02 34.6955 244.221 27.5332 243.675 13.2205C243.704 12.5726 243.138 12.3959 243.089 13.0438Z" fill="#263238"/>
<path d="M255.084 19.4521C253.298 33.0934 251.288 40.3499 244.69 51.6351C244.673 51.6606 244.66 51.69 244.652 51.7216C244.644 51.7532 244.641 51.7863 244.644 51.8191C244.647 51.8519 244.655 51.8838 244.668 51.9128C244.68 51.9419 244.698 51.9676 244.719 51.9885C244.74 52.0094 244.765 52.025 244.791 52.0346C244.817 52.0441 244.844 52.0473 244.872 52.044C244.899 52.0407 244.925 52.031 244.949 52.0154C244.973 51.9999 244.995 51.9787 245.012 51.9532C252.674 41.2334 255.24 32.2099 255.426 19.5582C255.416 18.71 255.201 18.5922 255.084 19.4521Z" fill="#263238"/>
<path d="M192.054 71.5433C192.054 71.5433 191.225 54.4741 192.24 46.876C193.255 39.2779 205.64 12.6315 210.52 15.5294C216.874 19.2872 212.228 36.3682 209.046 44.3786C209.046 44.3786 223.745 53.0251 222.613 66.1598C221.481 79.2945 192.054 71.5433 192.054 71.5433Z" fill="#EB9481"/>
<path d="M212.023 17.2493C215.771 25.7191 211.047 35.9088 208.431 43.9545C208.389 44.0708 208.37 44.1978 208.377 44.3247C208.383 44.4516 208.415 44.5747 208.47 44.6834C208.525 44.7922 208.6 44.8834 208.69 44.9493C208.78 45.0152 208.882 45.0538 208.988 45.0619C214.951 49.1849 222.369 57.101 223.003 65.8182C223.003 65.8713 223.02 65.9223 223.052 65.9598C223.083 65.9974 223.125 66.0185 223.169 66.0185C223.213 66.0185 223.255 65.9974 223.286 65.9598C223.317 65.9223 223.335 65.8713 223.335 65.8182C223.706 56.3942 216.942 47.8655 210.178 43.8485C212.95 35.6025 217.332 25.1772 212.13 17.2022C212.062 17.1668 212.003 17.2022 212.023 17.2493Z" fill="#263238"/>
<path d="M164.189 108.532L128.536 144.603C128.536 144.603 106.771 130.938 90.6964 115.235C74.6217 99.5326 92.4239 91.8991 120.025 97.4946C147.627 103.09 164.189 108.532 164.189 108.532Z" fill="#008DB9"/>
<path d="M121.958 115.777C120.948 114.113 119.778 112.599 118.473 111.266C119.917 115.011 122.003 118.343 124.593 121.043C123.893 119.166 123.009 117.398 121.958 115.777ZM90.7258 115.259L91.1553 115.659C91.4383 115.294 91.7213 114.906 91.9849 114.481C91.5359 114.729 91.1162 114.988 90.7063 115.306L90.7258 115.259ZM150.408 115.495C148.722 115.196 147.012 115.132 145.313 115.306C146.907 116.032 148.564 116.534 150.252 116.802C151.938 117.111 153.648 117.178 155.347 117.002C153.748 116.27 152.084 115.764 150.389 115.495H150.408ZM138.472 101.547C138.45 102.333 138.473 103.12 138.54 103.903C138.778 103.196 138.98 102.472 139.145 101.735L138.472 101.547Z" fill="white"/>
<path d="M120.552 136.899C127.804 128.488 135.553 120.678 143.41 113.068C145.635 110.924 147.9 108.827 150.242 106.813C150.31 106.754 150.398 106.813 150.33 106.919C146.641 111.03 142.805 114.953 138.989 118.899C135.173 122.845 131.308 126.792 127.394 130.62C125.178 132.788 122.973 134.955 120.728 137.064C120.591 137.146 120.464 137.005 120.552 136.899Z" fill="#263238"/>
<path d="M143.683 129.277L128.526 144.591C128.526 144.591 106.761 130.938 90.6866 115.235C84.977 109.663 83.5423 105.116 85.2894 101.806L143.683 129.277Z" fill="#263238"/>
<path d="M136.344 251.353H22.7278C22.7278 251.353 47.4108 136.298 70.259 103.903C70.7665 103.161 71.2935 102.454 71.8206 101.794C71.9279 101.641 72.0256 101.535 72.1329 101.406C73.9016 99.1251 75.9609 97.2003 78.2329 95.7041C78.6331 95.4449 79.0332 95.1976 79.4529 94.9855C88.2369 90.0968 97.5479 94.1492 104.253 101.076C106.381 103.267 130.468 141.128 132.557 155.511C134.402 168.245 127.277 181.922 127.277 181.922L136.344 251.353Z" fill="#008DB9"/>
<path d="M110.256 176.998C105.418 177.567 100.622 178.572 95.9084 180.002C93.566 180.756 91.2821 181.627 88.9885 182.558C87.8466 183.029 86.7047 183.453 85.553 183.866C84.3539 184.336 83.1117 184.629 81.8539 184.737C81.8307 184.737 81.8083 184.748 81.7918 184.768C81.7754 184.788 81.7661 184.815 81.7661 184.843C81.7661 184.871 81.7754 184.898 81.7918 184.918C81.8083 184.938 81.8307 184.949 81.8539 184.949C83.0455 185.01 84.2391 184.971 85.4261 184.832C86.569 184.659 87.7006 184.391 88.8128 184.031C91.1943 183.288 93.5367 182.428 95.9084 181.675C100.691 180.143 105.463 178.612 110.324 177.493C110.378 177.482 110.427 177.445 110.459 177.391C110.491 177.337 110.504 177.27 110.495 177.204C110.486 177.138 110.455 177.08 110.41 177.041C110.366 177.003 110.31 176.987 110.256 176.998Z" fill="#263238"/>
<path d="M122.26 182.051C118.268 181.588 114.256 181.396 110.246 181.474C108.294 181.533 106.254 181.722 104.253 181.969C103.277 182.099 102.301 182.24 101.403 182.393C100.505 182.546 99.3341 182.9 98.2897 183.053C98.1824 183.053 98.1824 183.277 98.2897 183.265C99.2657 183.159 100.291 183.265 101.286 183.206L104.282 183.076C106.234 183.006 108.274 182.947 110.275 182.841C114.277 182.64 118.268 182.487 122.27 182.44C122.485 182.452 122.465 182.075 122.26 182.051Z" fill="#263238"/>
<path d="M59.4646 130.95C58.9278 130.125 58.3812 129.312 57.7859 128.594L57.3662 129.654C57.7566 130.384 58.1763 131.103 58.6057 131.798C59.6168 133.451 60.7864 134.953 62.09 136.274C61.3776 134.39 60.4973 132.604 59.4646 130.95ZM72.6503 100.77C72.4515 102.609 72.4188 104.47 72.5527 106.318C73.1591 104.386 73.5688 102.373 73.7727 100.322C73.7727 100.016 73.8411 99.6975 73.8703 99.3912C73.4604 99.8271 73.0505 100.287 72.6503 100.77ZM107.132 139.102C106.525 141.031 106.105 143.039 105.883 145.086C105.637 147.126 105.582 149.192 105.717 151.247C106.33 149.321 106.743 147.311 106.947 145.263C107.215 143.226 107.277 141.157 107.132 139.102ZM85.4164 205.447C84.815 207.369 84.4022 209.369 84.1867 211.407C83.9391 213.447 83.8867 215.514 84.0305 217.568C85.1905 213.689 85.6627 209.56 85.4164 205.447ZM48.5041 155.358C47.9082 157.294 47.4956 159.306 47.2743 161.354C47.0259 163.39 46.9735 165.453 47.1182 167.503C47.7155 165.572 48.1249 163.564 48.3382 161.519C48.594 159.48 48.6497 157.412 48.5041 155.358ZM79.0529 146.947C77.3663 146.648 75.6568 146.585 73.9582 146.759C75.5514 147.484 77.2085 147.986 78.8967 148.255C80.5825 148.563 82.2926 148.631 83.9915 148.455C82.4037 147.709 80.7498 147.187 79.0627 146.9L79.0529 146.947ZM119.928 203.491C118.238 203.192 116.525 203.129 114.823 203.303C118.037 204.703 121.459 205.273 124.866 204.975C123.276 204.248 121.623 203.742 119.938 203.468L119.928 203.491ZM43.6241 198.061C41.9665 197.771 40.2876 197.699 38.6172 197.849H38.5196H38.6075C40.1841 198.55 41.821 199.036 43.4875 199.297C45.1741 199.596 46.8836 199.66 48.5822 199.486C46.9807 198.781 45.3169 198.303 43.6241 198.061ZM86.49 246.7C84.8034 246.401 83.0939 246.338 81.3953 246.512C84.6118 247.914 88.0376 248.48 91.4481 248.173C89.8343 247.454 88.1577 246.96 86.451 246.7H86.49ZM40.3838 240.739C38.6939 240.441 36.9811 240.377 35.2793 240.551C36.8735 241.268 38.5305 241.762 40.2179 242.024C41.9064 242.34 43.6209 242.403 45.3223 242.212C43.7156 241.492 42.0453 240.998 40.3447 240.739H40.3838ZM87.6027 117.662C86.2278 118.896 84.9737 120.315 83.8646 121.891C85.4219 121.036 86.895 119.973 88.2566 118.722C89.6288 117.493 90.874 116.069 91.9654 114.481C90.4186 115.345 88.9555 116.411 87.6027 117.662ZM99.7636 180.72C98.392 181.937 97.1468 183.349 96.0548 184.926C97.6075 184.076 99.0718 183.008 100.418 181.745C101.791 180.531 103.037 179.119 104.126 177.54C102.575 178.401 101.111 179.477 99.7636 180.744V180.72ZM57.1222 219.265C55.7427 220.479 54.4936 221.896 53.4036 223.482C54.9504 222.619 56.4135 221.552 57.7663 220.301C59.1384 219.072 60.3922 217.661 61.5044 216.096C59.9375 216.932 58.465 218.004 57.1222 219.288V219.265ZM127.941 163.816C126.931 162.152 125.761 160.637 124.456 159.304C125.9 163.049 127.986 166.382 130.576 169.082C129.875 167.213 128.99 165.453 127.941 163.84V163.816ZM113.408 235.168C112.39 233.511 111.221 231.998 109.924 230.656C110.608 232.547 111.49 234.325 112.549 235.945C113.558 237.604 114.727 239.111 116.034 240.433C115.322 238.567 114.441 236.801 113.408 235.168ZM70.6203 179.048C69.6073 177.386 68.438 175.872 67.1359 174.536C67.828 176.425 68.7132 178.202 69.7711 179.825C70.7766 181.487 71.9467 182.994 73.2555 184.313C72.5447 182.444 71.6607 180.677 70.6203 179.048Z" fill="white"/>
<path d="M67.9362 104.798C46.0835 126.061 -9.88032 210.323 2.73936 229.796C15.359 249.268 99.2365 240.398 123.588 231.186C130.83 228.453 111.075 172.981 103.248 170.425C96.7282 168.292 60.5771 181.192 59.8744 178.671C59.0838 175.82 68.8048 160.046 81.161 125.873C95.4106 86.4568 77.5888 95.4096 67.9362 104.798Z" fill="#EB9481"/>
<path d="M142.727 165.795C159.426 168.151 163.418 171.815 178.38 164.747C188.199 160.117 194.865 165.689 187.682 175.69C175.97 192.053 153.873 194.538 146.016 192.701L142.727 165.795Z" fill="#EB9481"/>
<path d="M95.8887 171.131C95.8887 171.131 116.609 164.664 134.607 165.018C147.06 165.265 174.096 169.447 192.444 208.45C196.797 217.698 197.568 234.614 185.905 222.586C177.629 214.07 174.515 205.647 168.952 201.748C168.952 201.748 167.81 223.388 159.963 228.3C153.1 232.583 145.993 236.271 138.696 239.338C137.923 237.855 137.232 236.312 136.627 234.72C136.627 234.72 128.936 238.466 117.107 233.271L95.8887 171.131Z" fill="#EB9481"/>
<path d="M146.465 167.55C151.345 172.828 161.417 184.207 166.961 197C173.168 211.207 181.952 240.586 173.217 246.017C166.815 249.999 162.637 239.126 162.637 239.126C162.637 239.126 164.15 252.201 157.757 254.263C151.901 256.148 149.081 247.501 149.081 247.501C149.081 247.501 148.866 255.618 142.932 256.124C135.788 256.713 137.408 239.632 129.736 232.67C128.009 231.103 146.465 167.55 146.465 167.55Z" fill="#EB9481"/>
<path d="M153.473 202.478C157.377 208.368 163.34 224.389 162.833 238.914C162.833 239.243 162.608 239.408 162.569 239.102C160.738 226.524 157.648 214.262 153.366 202.584C153.354 202.567 153.348 202.545 153.35 202.523C153.352 202.501 153.361 202.48 153.375 202.466C153.39 202.452 153.408 202.446 153.426 202.448C153.444 202.45 153.461 202.461 153.473 202.478Z" fill="#263238"/>
<path d="M141.77 210.394C144.698 215.872 150.252 232.776 149.315 247.442C149.315 247.772 149.071 247.913 149.042 247.607C147.752 234.925 145.273 222.46 141.653 210.453C141.653 210.437 141.657 210.42 141.665 210.407C141.672 210.393 141.683 210.382 141.695 210.376C141.708 210.369 141.722 210.368 141.735 210.371C141.749 210.374 141.761 210.382 141.77 210.394Z" fill="#263238"/>
<path d="M168.981 201.653C173.861 205.187 176.584 209.346 180.215 214.446C181.99 217.001 183.879 219.435 185.876 221.738C187.711 223.8 190.414 226.898 193.167 225.425C194.699 224.601 195.119 222.386 195.245 220.549C195.366 218.482 195.116 216.409 194.513 214.47C194.513 214.376 194.631 214.305 194.66 214.411C195.259 216.122 195.653 217.926 195.831 219.771C196.063 221.505 195.855 223.283 195.236 224.872C193.713 228.123 190.2 227.51 187.994 225.802C186.689 224.712 185.476 223.469 184.373 222.092C183.289 220.808 182.255 219.465 181.25 218.098C179.19 215.271 177.268 212.314 175.237 209.475C173.248 206.768 171.116 204.218 168.854 201.842C168.767 201.748 168.884 201.583 168.981 201.653Z" fill="#263238"/>
<path d="M175.189 227.405C174.613 223.364 170.475 206 168.835 201.771C168.825 201.749 168.822 201.723 168.827 201.699C168.833 201.675 168.846 201.654 168.864 201.642C168.882 201.629 168.904 201.626 168.924 201.632C168.944 201.639 168.961 201.655 168.972 201.677C172.066 207.649 175.97 222.151 176.653 226.615C177.336 231.08 177.99 236.605 177.043 240.999C175.618 247.619 171.714 247.737 170.299 247.643C168.627 247.495 167.047 246.664 165.819 245.287C164.421 243.526 163.332 241.443 162.618 239.161C162.618 239.055 162.706 238.961 162.755 239.067C164.101 242.271 166.707 245.84 169.792 246.3C170.474 246.427 171.172 246.389 171.842 246.187C172.513 245.984 173.143 245.622 173.696 245.122C174.854 243.783 175.572 241.984 175.716 240.056C176.141 235.834 175.963 231.554 175.189 227.405Z" fill="#263238"/>
<path d="M149.315 247.442C149.91 248.467 150.896 251.707 153.268 253.073C154.093 253.64 155.019 253.957 155.968 253.996C156.917 254.035 157.859 253.795 158.714 253.297C160.344 252.075 161.517 250.136 161.983 247.89C162.378 245.016 162.59 242.109 162.618 239.196C162.618 239.055 162.764 239.043 162.774 239.196C163.078 242.356 162.986 245.553 162.501 248.679C162.271 249.904 161.842 251.061 161.237 252.083C160.632 253.105 159.863 253.97 158.977 254.628C158.039 255.247 156.977 255.54 155.909 255.476C154.841 255.411 153.809 254.991 152.926 254.263C152.038 253.521 149.461 250.163 149.022 247.525C149.032 247.442 149.286 247.395 149.315 247.442Z" fill="#263238"/>
<path d="M130.488 231.634C131.194 232.577 131.806 233.617 132.313 234.732C132.889 235.91 133.435 237.029 133.953 238.207C134.981 240.587 135.802 243.09 136.402 245.675C137.027 248.267 137.515 251.094 138.989 253.226C139.679 254.28 140.626 255.046 141.696 255.414C142.767 255.781 143.906 255.733 144.952 255.276C146.06 254.745 146.981 253.766 147.558 252.508C148.227 251.15 148.674 249.651 148.876 248.09C148.871 248.076 148.87 248.061 148.872 248.046C148.873 248.03 148.878 248.016 148.885 248.004C148.892 247.991 148.902 247.981 148.913 247.974C148.924 247.967 148.936 247.963 148.949 247.963C148.962 247.963 148.974 247.967 148.985 247.974C148.996 247.981 149.006 247.991 149.013 248.004C149.02 248.016 149.025 248.03 149.026 248.046C149.028 248.061 149.027 248.076 149.022 248.09C148.939 249.505 148.736 250.907 148.417 252.272C148.048 253.499 147.419 254.588 146.592 255.429C145.725 256.228 144.693 256.724 143.608 256.861C142.523 256.998 141.428 256.772 140.443 256.207C138.257 255.029 137.027 252.366 136.266 249.728C135.417 246.794 134.851 243.767 133.884 240.869C133.387 239.338 132.908 237.806 132.303 236.334C131.698 234.861 130.859 233.33 130.351 231.751C130.293 231.657 130.41 231.527 130.488 231.634Z" fill="#263238"/>
<path d="M122.866 235.285C125.951 235.824 129.072 236.009 132.186 235.839C132.284 235.839 132.343 236.181 132.245 236.204C130.701 236.553 129.13 236.699 127.56 236.64C125.968 236.559 124.396 236.19 122.895 235.544C122.768 235.462 122.768 235.262 122.866 235.285Z" fill="#263238"/>
<path d="M27.0319 191.287C32.2493 188.248 37.6409 185.665 43.1652 183.559C48.6317 181.497 54.2164 179.922 59.8743 178.847C63.1048 178.199 66.3452 177.74 69.6343 177.257C69.7319 177.257 69.7514 177.422 69.6343 177.434C63.9493 178.544 58.3216 180.047 52.7788 181.934C47.2611 183.748 41.776 185.684 36.3234 187.741C33.2392 188.919 30.1941 190.239 27.1392 191.523C27.0319 191.617 26.9343 191.369 27.0319 191.287Z" fill="#263238"/>
<path d="M22.2788 155.959L68.5315 162.026C68.5315 162.026 80.3313 136.11 86.4703 112.231C92.6094 88.3534 75.178 92.9947 54.8089 116.142C34.4398 139.29 22.2788 155.959 22.2788 155.959Z" fill="#008DB9"/>
<path d="M22.2788 155.959L68.5315 162.026C68.5315 162.026 80.3313 136.11 86.4703 112.231C92.6094 88.3534 75.178 92.9947 54.8089 116.142C34.4398 139.29 22.2788 155.959 22.2788 155.959Z" fill="#008DB9"/>
<path d="M72.7282 99.992C72.733 100.051 72.733 100.11 72.7282 100.169C72.4806 102.208 72.4282 104.276 72.5721 106.33C73.1784 104.398 73.5881 102.385 73.7921 100.334C73.7921 99.9803 73.8702 99.6386 73.8994 99.2852L72.7282 99.992ZM48.5039 155.358C48.0803 156.643 47.7536 157.972 47.5279 159.328L48.5039 159.446C48.6112 158.086 48.6112 156.717 48.5039 155.358ZM32.4585 142.789L32.0095 143.354C32.517 143.354 32.9855 143.354 33.5418 143.248C33.171 143.071 32.8196 142.918 32.4585 142.789ZM73.9678 146.712C74.241 146.841 74.5241 146.971 74.8071 147.077C74.8576 146.923 74.9163 146.774 74.9828 146.629C74.651 146.641 74.3094 146.664 73.9678 146.712ZM59.4644 130.95C58.4461 129.294 57.2774 127.78 55.9801 126.438C56.6664 128.332 57.5485 130.113 58.6055 131.739C59.6166 133.392 60.7862 134.894 62.0898 136.216C61.3743 134.351 60.4941 132.586 59.4644 130.95Z" fill="white"/>
<path d="M66.6577 161.507C66.9114 161.507 68.6097 161.507 68.6097 161.507C68.8146 160.789 72.7967 149.727 73.7727 147.371C75.7833 142.53 78.0281 137.818 80.2143 133.094C80.2826 132.941 80.4778 133.094 80.4095 133.2C78.8674 137.323 77.3839 141.446 75.8125 145.592C76.2029 145.039 76.5933 144.485 76.974 143.92C77.745 142.742 78.4477 141.564 79.1797 140.315C79.248 140.209 79.3847 140.315 79.3359 140.445C78.6374 142.149 77.7545 143.733 76.7105 145.157C76.2672 145.782 75.7878 146.368 75.2757 146.912C75.1489 147.253 75.022 147.607 74.8853 147.937C73.9093 150.293 69.0977 162.167 68.922 162.155L66.6967 161.825C66.5308 161.872 66.5308 161.495 66.6577 161.507Z" fill="#263238"/>
<path d="M30.9946 146.476C41.0279 147.289 51.0319 148.95 60.9773 150.834C63.8012 151.376 66.6056 151.993 69.3905 152.684C69.4685 152.684 69.4685 152.849 69.3905 152.837C64.3933 152.307 59.406 151.529 54.4186 150.787C49.4312 150.045 44.4049 149.244 39.4175 148.29C36.6066 147.772 33.786 147.253 30.9849 146.676C30.8677 146.688 30.8677 146.464 30.9946 146.476Z" fill="#263238"/>
<path d="M84.1572 96.5758C84.3329 99.0261 91.8871 116.06 100.935 117.108C103.863 117.438 106.117 98.1072 106.117 98.1072L106.547 96.729L112.627 77.3862L94.9616 58.9505L92.3947 56.4767C92.3947 56.4767 91.0185 61.8955 89.3691 68.669C89.291 68.9871 89.2031 69.3051 89.1251 69.6349C89.047 69.9648 88.9299 70.3771 88.842 70.7305C88.5883 71.7436 88.3247 72.7684 88.0905 73.8051C87.9051 74.5943 87.7196 75.36 87.5439 76.1611C87.3683 76.9621 87.1926 77.8103 86.9974 78.6349C85.7134 84.5302 84.7645 90.5245 84.1572 96.5758Z" fill="#EB9481"/>
<path d="M89.3691 68.669C90.3751 74.5699 92.4325 80.136 95.3987 84.9813C98.3649 89.8267 102.169 93.8353 106.547 96.729L112.627 77.3862L94.9616 58.9505L92.3947 56.4767C92.3947 56.4767 91.0186 61.8955 89.3691 68.669Z" fill="#263238"/>
<path d="M117.976 47.677C119.528 55.923 125.676 61.3536 131.708 59.7162C137.74 58.0788 141.361 50.0095 139.809 41.7164C138.257 33.4233 132.108 28.028 126.077 29.6772C120.045 31.3264 116.424 39.3721 117.976 47.677Z" fill="#455A64"/>
<path d="M114.53 49.1613C116.268 58.3851 123.1 64.3811 129.815 62.5552C136.53 60.7293 140.551 51.7647 138.823 42.5292C137.096 33.2937 130.254 27.3094 123.549 29.1353C116.844 30.9612 112.803 39.914 114.53 49.1613Z" fill="#C7C7C7"/>
<path d="M134.265 37.3578C142.464 72.2855 126.057 82.1218 119.811 84.2893C114.14 86.2212 94.6395 91.9227 83.4936 58.1966C72.3477 24.4705 83.2106 8.82663 95.9766 3.58453C108.743 -1.65757 126.067 2.4183 134.265 37.3578Z" fill="#EB9481"/>
<path d="M124.193 32.9638C123.505 33.0462 122.814 33.0816 122.124 33.0699C121.397 33.2372 120.646 33.1088 119.986 32.7047C119.798 32.5296 119.664 32.2843 119.604 32.0072C119.544 31.7302 119.562 31.4369 119.654 31.1733C119.903 30.6879 120.256 30.292 120.674 30.0268C121.093 29.7616 121.563 29.6368 122.036 29.6655C122.997 29.5365 123.964 29.8429 124.749 30.5254C124.918 30.6964 125.044 30.9227 125.109 31.1771C125.175 31.4316 125.179 31.7035 125.12 31.9605C125.062 32.2174 124.943 32.4486 124.779 32.6265C124.614 32.8045 124.411 32.9215 124.193 32.9638Z" fill="#263238"/>
<path d="M105.112 41.092C105.775 40.844 106.427 40.553 107.064 40.2203C107.787 40.0276 108.438 39.5562 108.918 38.8773C109.032 38.6264 109.075 38.3373 109.04 38.0542C109.005 37.7712 108.893 37.51 108.723 37.3106C108.336 36.9817 107.883 36.7833 107.412 36.7357C106.94 36.6881 106.466 36.793 106.039 37.0397C105.113 37.3759 104.324 38.1146 103.824 39.113C103.721 39.3485 103.677 39.6148 103.697 39.8799C103.717 40.145 103.8 40.3974 103.936 40.6067C104.072 40.816 104.256 40.9732 104.465 41.0593C104.673 41.1454 104.898 41.1568 105.112 41.092Z" fill="#263238"/>
<path d="M110.968 47.253C110.968 47.1587 110.841 47.4179 110.87 47.5121C111.495 49.8681 111.846 52.6953 110.285 54.0971C110.236 54.0971 110.285 54.2503 110.334 54.2267C112.403 53.1076 111.856 49.338 110.968 47.253Z" fill="#263238"/>
<path d="M108.606 45.3681C105.366 46.1692 106.927 53.9204 109.933 53.1783C112.94 52.4361 111.319 44.6967 108.606 45.3681Z" fill="#263238"/>
<path d="M107.425 46.1456C106.957 46.7582 106.557 47.6888 105.903 47.9716C105.249 48.2543 104.38 47.6535 103.716 47.0174C103.648 46.9585 103.599 47.0174 103.619 47.147C103.902 48.6312 104.683 50.0213 106.049 49.8564C107.415 49.6915 107.894 48.1365 107.894 46.5462C107.903 46.2517 107.62 45.91 107.425 46.1456Z" fill="#263238"/>
<path d="M122.377 43.0004C122.377 42.9061 122.563 43.071 122.573 43.1653C122.983 45.592 123.783 48.2896 125.745 48.5723C125.803 48.5723 125.823 48.7019 125.745 48.7137C123.48 48.9611 122.446 45.3682 122.377 43.0004Z" fill="#263238"/>
<path d="M123.656 39.9847C126.799 38.8067 128.536 46.4637 125.608 47.5828C122.68 48.7019 121.031 40.986 123.656 39.9847Z" fill="#263238"/>
<path d="M125.12 40.0436C125.715 40.2792 126.379 40.8564 126.994 40.7033C127.609 40.5501 128.029 39.5253 128.292 38.5711C128.292 38.4769 128.39 38.5711 128.409 38.5711C128.78 40.0318 128.731 41.6928 127.619 42.3643C126.506 43.0357 125.54 41.9755 124.915 40.609C124.798 40.4206 124.876 39.914 125.12 40.0436Z" fill="#263238"/>
<path d="M115.477 66.6193C116.043 67.0787 116.648 67.7973 117.429 67.6441C118.176 67.4488 118.88 67.0676 119.498 66.525C119.51 66.5078 119.527 66.4969 119.545 66.4947C119.563 66.4925 119.581 66.4992 119.596 66.5133C119.61 66.5273 119.619 66.5476 119.621 66.5697C119.623 66.5918 119.617 66.6139 119.605 66.631C119.394 67.1757 119.065 67.6415 118.653 67.9794C118.241 68.3173 117.76 68.5148 117.263 68.5512C116.828 68.5249 116.409 68.3412 116.06 68.024C115.712 67.7069 115.451 67.2708 115.311 66.7724C115.243 66.6428 115.389 66.5604 115.477 66.6193Z" fill="#263238"/>
<path d="M122.026 54.6508C122.026 54.6508 123.187 58.1023 123.549 59.7868C123.549 59.9518 118.747 62.779 115.643 59.3157C115.611 59.2891 115.588 59.2481 115.581 59.2017C115.574 59.1553 115.582 59.1073 115.604 59.0683C115.626 59.0292 115.66 59.0023 115.698 58.9935C115.737 58.9846 115.777 58.9946 115.809 59.0212C117.902 59.9413 120.186 60.0199 122.319 59.245C122.319 58.7502 120.152 53.4139 120.367 53.355C121.477 53.1348 122.606 53.0951 123.724 53.2372C121.46 45.9689 118.259 39.1954 116.102 31.9036C116.083 31.8496 116.081 31.789 116.097 31.7336C116.113 31.6782 116.145 31.632 116.188 31.604C116.231 31.576 116.281 31.5682 116.328 31.5823C116.375 31.5963 116.416 31.631 116.443 31.6798C120.22 38.5004 122.973 46.8053 125.462 54.2385C125.793 55.1455 122.68 54.7686 122.026 54.6508Z" fill="#263238"/>
<path d="M122.309 60.0578C121.791 61.6213 120.951 62.9996 119.869 64.063C119.262 64.613 118.529 64.9255 117.771 64.9583C116.102 64.9583 115.662 63.2973 115.604 61.7306C115.58 60.901 115.636 60.071 115.77 59.2568C117.822 60.3614 120.114 60.6422 122.309 60.0578Z" fill="#263238"/>
<path d="M119.869 64.063C119.262 64.613 118.53 64.9254 117.771 64.9583C116.102 64.9583 115.663 63.2973 115.604 61.7306C117.312 61.3654 119.264 62.1664 119.869 64.063Z" fill="#FF99BA"/>
<path d="M84.8893 57.0304C90.4916 57.4662 91.1357 41.9991 91.1357 41.9991C91.1357 41.9991 114.56 35.4141 115.399 11.9954C115.399 11.9954 120.211 26.5319 132.967 32.3277C132.967 32.3277 130.849 6.88289 113.847 3.16041C113.847 3.16041 92.59 -4.44947 81.9028 16.3304C71.2156 37.1104 81.1317 56.7359 84.8893 57.0304Z" fill="#263238"/>
<path d="M115.399 10.2638C115.862 13.8368 115.685 17.4879 114.882 20.9718C114.123 24.5124 112.76 27.8227 110.88 30.6903C110.419 31.4113 109.92 32.0959 109.387 32.74L108.606 33.7413C108.333 34.0476 108.04 34.3303 107.747 34.6248C107.162 35.1903 106.596 35.8028 105.99 36.3329C105.385 36.863 104.722 37.2989 104.038 37.7701C103.716 37.9939 103.404 38.2413 103.062 38.4533L102.086 39.0188L100.047 40.1379C98.6412 40.7269 97.2162 41.2216 95.801 41.6928C97.1186 40.88 98.485 40.2321 99.7831 39.4193L101.686 38.1235L102.662 37.4756C102.965 37.24 103.248 36.969 103.541 36.7099C104.126 36.1916 104.712 35.685 105.307 35.1903C105.903 34.6955 106.381 34.0123 106.918 33.4822L107.728 32.6222L108.45 31.6563C108.946 31.038 109.413 30.385 109.846 29.7008C111.619 26.9696 112.996 23.8944 113.916 20.6066C114.386 18.956 114.745 17.262 114.989 15.5412C115.249 13.7992 115.386 12.0337 115.399 10.2638Z" fill="#263238"/>
<path d="M89.0665 56.6652C89.0665 56.6652 80.8486 47.0174 77.1105 50.7752C73.3724 54.533 80.7803 69.5407 86.0409 70.6009C86.7075 70.7944 87.3997 70.8231 88.0757 70.6854C88.7518 70.5477 89.3978 70.2465 89.9749 69.7997C90.552 69.3529 91.0483 68.7699 91.434 68.0857C91.8196 67.4015 92.0866 66.6302 92.219 65.8183L89.0665 56.6652Z" fill="#EB9481"/>
<path d="M79.3261 55.0042C79.308 55.0042 79.2906 55.0129 79.2778 55.0284C79.265 55.0438 79.2578 55.0648 79.2578 55.0867C79.2578 55.1085 79.265 55.1295 79.2778 55.145C79.2906 55.1604 79.308 55.1691 79.3261 55.1691C83.0447 56.0526 85.4652 59.4924 87.3781 63.1913C86.1093 61.8955 84.577 61.3772 83.1033 63.1913C83.0252 63.2973 83.1033 63.4387 83.2301 63.3916C83.8001 63.0209 84.4511 62.8717 85.094 62.9645C85.7369 63.0573 86.3403 63.3875 86.8218 63.9099C87.6231 64.787 88.343 65.7666 88.969 66.8313C89.1837 67.173 89.7108 66.8313 89.5253 66.4426L89.4765 66.3484C88.7153 61.118 84.1183 54.4505 79.3261 55.0042Z" fill="#263238"/>
<path d="M83.4448 51.7529C83.4448 51.7529 78.1158 34.613 79.9604 23.422C82.01 10.9588 94.8054 -3.25967 109.436 2.06489C109.436 2.06489 92.0335 5.21015 85.8848 22.0909C83.0544 29.8657 88.4028 50.4454 88.4028 50.4454L83.4448 51.7529Z" fill="#C7C7C7"/>
<path d="M91.6636 76.1806C98.1224 73.7525 101.499 64.5784 99.205 55.6897C96.9112 46.8009 89.8158 41.5634 83.357 43.9915C76.8982 46.4195 73.5218 55.5936 75.8157 64.4824C78.1095 73.3712 85.2048 78.6086 91.6636 76.1806Z" fill="#C7C7C7"/>
<path d="M95.6838 56.406C97.7431 64.3928 94.7078 72.6388 88.8518 74.8181C82.9958 76.9974 76.6713 72.2972 74.6022 64.3104C72.5331 56.3235 75.5782 48.0775 81.4342 45.8865C87.2902 43.6954 93.6244 48.4663 95.6838 56.406Z" fill="#455A64"/>
<path d="M106.478 96.8467L101.11 113.197L84.2255 92.6413L79.4919 99.2852C79.4919 99.2852 96.0839 132.01 96.1425 130.526L101.667 116.39L109.748 126.132L109.016 101.606L106.478 96.8467Z" fill="#EBEBEB"/>
<path d="M109.992 113.998C109.748 109.958 109.611 105.858 109.221 101.83C109.221 101.688 109.016 101.629 108.987 101.83C108.333 105.741 109.299 121.231 109.299 124.942C108.967 124.518 101.813 116.366 101.745 116.496C100.544 118.734 96.4939 129.006 96.2206 129.937C93.5952 124.742 82.4883 104.256 79.3944 99.3088C79.3759 99.2862 79.3517 99.2718 79.3257 99.2678C79.2996 99.2638 79.2732 99.2705 79.2507 99.2868C79.2282 99.3031 79.2109 99.3281 79.2015 99.3577C79.1922 99.3873 79.1913 99.4199 79.1992 99.4502C81.5123 104.94 95.8595 131.975 96.0644 131.904C98.1988 127.058 100.127 122.085 101.842 117.002C103.053 118.781 110.275 127.981 110.295 127.381C110.385 122.917 110.284 118.45 109.992 113.998Z" fill="#263238"/>
</svg>
